<svg xmlns="http://www.w3.org/2000/svg" xmlns:xlink="http://www.w3.org/1999/xlink" width="500" zoomAndPan="magnify" viewBox="0 0 375 374.999991" height="500" preserveAspectRatio="xMidYMid meet" version="1.0"><defs><g/><clipPath id="53cc7157f9"><path d="M 92 135 L 208.070312 135 L 208.070312 266.320312 L 92 266.320312 Z M 92 135 " clip-rule="nonzero"/></clipPath><clipPath id="4b42e53fd2"><path d="M 73.820312 141 L 108 141 L 108 266 L 73.820312 266 Z M 73.820312 141 " clip-rule="nonzero"/></clipPath></defs><g clip-path="url(#53cc7157f9)"><path fill="#f0355e" d="M 208.28125 231.894531 C 200.660156 235.113281 193 238.214844 185.335938 241.292969 L 173.820312 245.855469 C 171.898438 246.609375 169.996094 247.425781 168.023438 248.019531 C 166.054688 248.628906 164.074219 249.207031 162.121094 249.863281 L 115.089844 265.140625 L 111.917969 266.167969 L 111.421875 262.871094 L 93.316406 143.105469 L 92.855469 140.070312 L 95.917969 139.863281 L 144.761719 136.5625 L 150.867188 136.140625 C 152.898438 135.960938 154.929688 135.746094 156.976562 135.800781 L 169.246094 135.8125 C 177.421875 135.832031 185.605469 135.921875 193.796875 136.082031 C 185.703125 137.339844 177.605469 138.53125 169.503906 139.652344 L 157.351562 141.3125 C 155.328125 141.640625 153.285156 141.699219 151.25 141.800781 L 145.144531 142.199219 L 96.300781 145.5 L 98.90625 142.257812 L 117.011719 262.027344 L 113.34375 259.761719 L 160.375 244.484375 C 162.339844 243.867188 164.28125 243.171875 166.230469 242.507812 C 168.179688 241.828125 170.195312 241.371094 172.191406 240.851562 L 184.195312 237.777344 C 192.203125 235.761719 200.222656 233.769531 208.28125 231.894531 " fill-opacity="1" fill-rule="nonzero"/></g><path fill="#f0355e" d="M 122.039062 162.164062 L 118.566406 139.1875 C 117.523438 132.289062 119.25 125.492188 123.425781 120.050781 C 127.605469 114.605469 133.738281 111.179688 140.683594 110.402344 C 154.910156 108.816406 168.234375 119.039062 170.375 133.1875 L 173.847656 156.164062 L 168.257812 157.007812 L 164.785156 134.03125 C 163.09375 122.847656 152.578125 114.761719 141.308594 116.019531 C 135.90625 116.625 131.144531 119.277344 127.910156 123.492188 C 124.675781 127.703125 123.34375 132.976562 124.152344 138.34375 L 127.628906 161.316406 L 122.039062 162.164062 " fill-opacity="1" fill-rule="nonzero"/><path fill="#f0355e" d="M 163.753906 157.398438 C 164.359375 161.40625 168.117188 164.292969 172.152344 163.84375 C 176.183594 163.394531 178.960938 159.777344 178.355469 155.769531 C 177.746094 151.761719 173.988281 148.878906 169.957031 149.328125 C 165.925781 149.777344 163.148438 153.390625 163.753906 157.398438 " fill-opacity="1" fill-rule="nonzero"/><path fill="#f0355e" d="M 117.53125 162.554688 C 118.136719 166.5625 121.898438 169.445312 125.929688 168.996094 C 129.960938 168.546875 132.738281 164.933594 132.132812 160.925781 C 131.527344 156.917969 127.765625 154.03125 123.734375 154.484375 C 119.703125 154.933594 116.925781 158.546875 117.53125 162.554688 " fill-opacity="1" fill-rule="nonzero"/><g clip-path="url(#4b42e53fd2)"><path fill="#f0355e" d="M 88.136719 141.859375 C 88.386719 144.320312 88.585938 146.773438 88.746094 149.226562 C 88.933594 151.679688 89.042969 154.125 89.167969 156.574219 C 89.210938 157.796875 89.339844 159.027344 89.3125 160.242188 C 89.289062 160.847656 89.164062 161.445312 89.089844 162.050781 C 89.007812 162.652344 88.957031 163.253906 88.902344 163.859375 L 88.21875 171.101562 L 85.484375 200.082031 L 80.015625 258.035156 L 75.796875 255.316406 C 76.269531 255.054688 76.582031 254.90625 76.96875 254.726562 C 77.335938 254.554688 77.703125 254.394531 78.070312 254.246094 C 78.804688 253.941406 79.550781 253.675781 80.304688 253.433594 C 81.8125 252.96875 83.34375 252.570312 84.917969 252.289062 C 86.503906 252.0625 88.132812 252.203125 89.714844 252.386719 C 91.304688 252.597656 92.871094 252.964844 94.367188 253.484375 C 97.375 254.519531 100.050781 256.257812 102.210938 258.359375 C 104.382812 260.464844 106.066406 262.917969 107.371094 265.492188 C 105.425781 263.355469 103.230469 261.507812 100.878906 260.09375 C 98.511719 258.6875 95.945312 257.824219 93.382812 257.492188 C 92.097656 257.339844 90.808594 257.316406 89.535156 257.421875 C 88.261719 257.5 87.015625 257.816406 85.765625 258.011719 C 84.507812 258.148438 83.242188 258.414062 82.023438 258.820312 C 81.414062 259.011719 80.804688 259.230469 80.21875 259.472656 C 79.925781 259.59375 79.632812 259.71875 79.351562 259.851562 C 79.085938 259.972656 78.757812 260.136719 78.601562 260.222656 L 73.882812 262.824219 L 74.386719 257.503906 L 79.855469 199.550781 L 82.589844 170.570312 L 83.273438 163.328125 C 83.328125 162.722656 83.394531 162.121094 83.425781 161.515625 C 83.46875 160.910156 83.453125 160.300781 83.546875 159.699219 C 83.746094 158.5 84.101562 157.316406 84.371094 156.121094 C 84.953125 153.742188 85.519531 151.359375 86.164062 148.980469 C 86.777344 146.605469 87.433594 144.230469 88.136719 141.859375 " fill-opacity="1" fill-rule="nonzero"/></g><g fill="#100f0d" fill-opacity="1"><g transform="translate(121.59771, 210.340181)"><g><path d="M 4.59375 -3.15625 L 4.59375 -32.5625 C 4.59375 -33.445312 4.898438 -34.191406 5.515625 -34.796875 C 6.128906 -35.410156 6.875 -35.71875 7.75 -35.71875 L 20.609375 -35.71875 C 22.046875 -35.71875 23.46875 -35.546875 24.875 -35.203125 C 26.289062 -34.867188 27.550781 -34.34375 28.65625 -33.625 C 29.757812 -32.914062 30.648438 -31.984375 31.328125 -30.828125 C 32.015625 -29.671875 32.359375 -28.273438 32.359375 -26.640625 L 32.359375 -26.53125 C 32.359375 -25.476562 32.21875 -24.523438 31.9375 -23.671875 C 31.664062 -22.828125 31.289062 -22.082031 30.8125 -21.4375 C 30.34375 -20.789062 29.800781 -20.234375 29.1875 -19.765625 C 28.570312 -19.304688 27.925781 -18.910156 27.25 -18.578125 C 28.300781 -18.203125 29.257812 -17.765625 30.125 -17.265625 C 31 -16.773438 31.75 -16.191406 32.375 -15.515625 C 33.007812 -14.835938 33.492188 -14.035156 33.828125 -13.109375 C 34.171875 -12.191406 34.34375 -11.125 34.34375 -9.90625 L 34.34375 -9.796875 C 34.34375 -8.203125 34.023438 -6.789062 33.390625 -5.5625 C 32.765625 -4.332031 31.875 -3.3125 30.71875 -2.5 C 29.5625 -1.6875 28.175781 -1.066406 26.5625 -0.640625 C 24.945312 -0.210938 23.132812 0 21.125 0 L 7.75 0 C 6.875 0 6.128906 -0.304688 5.515625 -0.921875 C 4.898438 -1.535156 4.59375 -2.28125 4.59375 -3.15625 Z M 10.765625 -5.5625 L 21.171875 -5.5625 C 23.316406 -5.5625 25 -5.96875 26.21875 -6.78125 C 27.445312 -7.601562 28.0625 -8.832031 28.0625 -10.46875 L 28.0625 -10.5625 C 28.0625 -12.09375 27.457031 -13.273438 26.25 -14.109375 C 25.039062 -14.941406 23.195312 -15.359375 20.71875 -15.359375 L 10.765625 -15.359375 Z M 10.765625 -30.15625 L 10.765625 -20.671875 L 19.34375 -20.671875 C 21.382812 -20.671875 23.015625 -21.066406 24.234375 -21.859375 C 25.460938 -22.660156 26.078125 -23.878906 26.078125 -25.515625 L 26.078125 -25.625 C 26.078125 -27.050781 25.539062 -28.160156 24.46875 -28.953125 C 23.394531 -29.753906 21.835938 -30.15625 19.796875 -30.15625 Z M 10.765625 -30.15625 "/></g></g></g><g fill="#100f0d" fill-opacity="1"><g transform="translate(153.126394, 210.340181)"><g><path d="M 2.09375 -7.859375 C 2.09375 -9.316406 2.363281 -10.585938 2.90625 -11.671875 C 3.445312 -12.765625 4.203125 -13.671875 5.171875 -14.390625 C 6.148438 -15.109375 7.328125 -15.644531 8.703125 -16 C 10.078125 -16.351562 11.582031 -16.53125 13.21875 -16.53125 C 14.75 -16.53125 16.070312 -16.425781 17.1875 -16.21875 C 18.3125 -16.019531 19.40625 -15.75 20.46875 -15.40625 L 20.46875 -16.078125 C 20.46875 -18.015625 19.894531 -19.472656 18.75 -20.453125 C 17.613281 -21.441406 15.957031 -21.9375 13.78125 -21.9375 C 12.59375 -21.9375 11.519531 -21.828125 10.5625 -21.609375 C 9.613281 -21.390625 8.695312 -21.144531 7.8125 -20.875 C 7.46875 -20.769531 7.144531 -20.71875 6.84375 -20.71875 C 6.125 -20.71875 5.507812 -20.960938 5 -21.453125 C 4.488281 -21.953125 4.234375 -22.554688 4.234375 -23.265625 C 4.234375 -23.847656 4.394531 -24.359375 4.71875 -24.796875 C 5.039062 -25.242188 5.441406 -25.550781 5.921875 -25.71875 C 7.210938 -26.195312 8.535156 -26.578125 9.890625 -26.859375 C 11.253906 -27.148438 12.820312 -27.296875 14.59375 -27.296875 C 18.375 -27.296875 21.289062 -26.378906 23.34375 -24.546875 C 25.40625 -22.710938 26.4375 -19.851562 26.4375 -15.96875 L 26.4375 -2.703125 C 26.4375 -1.847656 26.144531 -1.140625 25.5625 -0.578125 C 24.988281 -0.0234375 24.273438 0.25 23.421875 0.25 C 22.535156 0.25 21.8125 -0.0078125 21.25 -0.53125 C 20.6875 -1.0625 20.40625 -1.664062 20.40625 -2.34375 L 20.40625 -3.375 C 19.488281 -2.28125 18.316406 -1.347656 16.890625 -0.578125 C 15.460938 0.179688 13.710938 0.5625 11.640625 0.5625 C 10.378906 0.5625 9.171875 0.378906 8.015625 0.015625 C 6.859375 -0.335938 5.84375 -0.863281 4.96875 -1.5625 C 4.101562 -2.257812 3.40625 -3.125 2.875 -4.15625 C 2.351562 -5.195312 2.09375 -6.394531 2.09375 -7.75 Z M 8.109375 -8.109375 L 8.109375 -8.015625 C 8.109375 -6.722656 8.601562 -5.71875 9.59375 -5 C 10.582031 -4.28125 11.84375 -3.921875 13.375 -3.921875 C 14.394531 -3.921875 15.347656 -4.054688 16.234375 -4.328125 C 17.117188 -4.609375 17.875 -5.003906 18.5 -5.515625 C 19.125 -6.023438 19.625 -6.632812 20 -7.34375 C 20.375 -8.0625 20.5625 -8.847656 20.5625 -9.703125 L 20.5625 -11.53125 C 19.78125 -11.84375 18.867188 -12.097656 17.828125 -12.296875 C 16.796875 -12.503906 15.664062 -12.609375 14.4375 -12.609375 C 12.394531 -12.609375 10.828125 -12.210938 9.734375 -11.421875 C 8.648438 -10.640625 8.109375 -9.535156 8.109375 -8.109375 Z M 8.109375 -8.109375 "/></g></g></g><g fill="#100f0d" fill-opacity="1"><g transform="translate(177.767543, 210.340181)"><g><path d="M 5.046875 -27.25 C 5.828125 -27.25 6.457031 -27.035156 6.9375 -26.609375 C 7.414062 -26.179688 7.789062 -25.613281 8.0625 -24.90625 L 15.3125 -6.984375 L 22.046875 -24.90625 C 22.316406 -25.550781 22.679688 -26.101562 23.140625 -26.5625 C 23.597656 -27.019531 24.21875 -27.25 25 -27.25 C 25.820312 -27.25 26.519531 -26.96875 27.09375 -26.40625 C 27.675781 -25.84375 27.96875 -25.15625 27.96875 -24.34375 C 27.96875 -23.800781 27.878906 -23.304688 27.703125 -22.859375 L 17.859375 0.765625 C 17.285156 2.160156 16.691406 3.332031 16.078125 4.28125 C 15.460938 5.238281 14.796875 6.015625 14.078125 6.609375 C 13.367188 7.203125 12.578125 7.632812 11.703125 7.90625 C 10.835938 8.175781 9.863281 8.3125 8.78125 8.3125 C 7.894531 8.3125 7.117188 8.25 6.453125 8.125 C 5.785156 8.007812 5.128906 7.816406 4.484375 7.546875 C 4.015625 7.378906 3.570312 7.097656 3.15625 6.703125 C 2.75 6.316406 2.546875 5.75 2.546875 5 C 2.546875 4.21875 2.789062 3.597656 3.28125 3.140625 C 3.78125 2.679688 4.367188 2.453125 5.046875 2.453125 C 5.316406 2.453125 5.53125 2.46875 5.6875 2.5 C 5.84375 2.53125 6.003906 2.582031 6.171875 2.65625 C 6.546875 2.757812 6.882812 2.84375 7.1875 2.90625 C 7.5 2.976562 7.875 3.015625 8.3125 3.015625 C 9.238281 3.015625 9.976562 2.800781 10.53125 2.375 C 11.09375 1.945312 11.628906 1.207031 12.140625 0.15625 L 12.34375 -0.40625 L 2.34375 -22.765625 C 2.101562 -23.234375 1.984375 -23.722656 1.984375 -24.234375 C 1.984375 -25.117188 2.269531 -25.84375 2.84375 -26.40625 C 3.425781 -26.96875 4.160156 -27.25 5.046875 -27.25 Z M 5.046875 -27.25 "/></g></g></g><g fill="#100f0d" fill-opacity="1"><g transform="translate(202.408693, 210.340181)"><g><path d="M 6.9375 -27.25 C 7.820312 -27.25 8.5625 -26.953125 9.15625 -26.359375 C 9.75 -25.765625 10.046875 -25.023438 10.046875 -24.140625 L 10.046875 -22.453125 C 11.035156 -23.847656 12.257812 -25.035156 13.71875 -26.015625 C 15.1875 -27.003906 17.023438 -27.5 19.234375 -27.5 C 20.835938 -27.5 22.382812 -27.191406 23.875 -26.578125 C 25.375 -25.972656 26.703125 -25.070312 27.859375 -23.875 C 29.015625 -22.6875 29.945312 -21.222656 30.65625 -19.484375 C 31.375 -17.753906 31.734375 -15.765625 31.734375 -13.515625 L 31.734375 -13.421875 C 31.734375 -11.171875 31.382812 -9.175781 30.6875 -7.4375 C 30 -5.707031 29.066406 -4.25 27.890625 -3.0625 C 26.710938 -1.875 25.375 -0.972656 23.875 -0.359375 C 22.382812 0.253906 20.835938 0.5625 19.234375 0.5625 C 16.992188 0.5625 15.140625 0.0859375 13.671875 -0.859375 C 12.210938 -1.816406 11.003906 -2.925781 10.046875 -4.1875 L 10.046875 5.359375 C 10.046875 6.242188 9.75 6.972656 9.15625 7.546875 C 8.5625 8.128906 7.820312 8.421875 6.9375 8.421875 C 6.09375 8.421875 5.367188 8.128906 4.765625 7.546875 C 4.171875 6.972656 3.875 6.242188 3.875 5.359375 L 3.875 -24.140625 C 3.875 -25.023438 4.160156 -25.765625 4.734375 -26.359375 C 5.316406 -26.953125 6.050781 -27.25 6.9375 -27.25 Z M 9.90625 -13.515625 L 9.90625 -13.421875 C 9.90625 -12.128906 10.113281 -10.953125 10.53125 -9.890625 C 10.957031 -8.835938 11.523438 -7.925781 12.234375 -7.15625 C 12.953125 -6.394531 13.785156 -5.8125 14.734375 -5.40625 C 15.691406 -5 16.703125 -4.796875 17.765625 -4.796875 C 18.816406 -4.796875 19.804688 -5 20.734375 -5.40625 C 21.671875 -5.8125 22.488281 -6.378906 23.1875 -7.109375 C 23.882812 -7.847656 24.4375 -8.753906 24.84375 -9.828125 C 25.257812 -10.898438 25.46875 -12.097656 25.46875 -13.421875 L 25.46875 -13.515625 C 25.46875 -14.816406 25.257812 -16 24.84375 -17.0625 C 24.4375 -18.132812 23.882812 -19.046875 23.1875 -19.796875 C 22.488281 -20.546875 21.671875 -21.125 20.734375 -21.53125 C 19.804688 -21.9375 18.816406 -22.140625 17.765625 -22.140625 C 16.703125 -22.140625 15.691406 -21.9375 14.734375 -21.53125 C 13.785156 -21.125 12.953125 -20.535156 12.234375 -19.765625 C 11.523438 -19.003906 10.957031 -18.097656 10.53125 -17.046875 C 10.113281 -15.992188 9.90625 -14.816406 9.90625 -13.515625 Z M 9.90625 -13.515625 "/></g></g></g><g fill="#100f0d" fill-opacity="1"><g transform="translate(231.33541, 210.340181)"><g><path d="M 2.40625 -13.46875 C 2.40625 -15.40625 2.726562 -17.222656 3.375 -18.921875 C 4.019531 -20.628906 4.925781 -22.117188 6.09375 -23.390625 C 7.269531 -24.671875 8.65625 -25.675781 10.25 -26.40625 C 11.851562 -27.132812 13.625 -27.5 15.5625 -27.5 C 17.707031 -27.5 19.578125 -27.097656 21.171875 -26.296875 C 22.773438 -25.503906 24.113281 -24.46875 25.1875 -23.1875 C 26.257812 -21.914062 27.054688 -20.492188 27.578125 -18.921875 C 28.109375 -17.359375 28.375 -15.796875 28.375 -14.234375 C 28.375 -13.347656 28.082031 -12.632812 27.5 -12.09375 C 26.925781 -11.550781 26.25 -11.28125 25.46875 -11.28125 L 8.578125 -11.28125 C 8.910156 -9.03125 9.773438 -7.328125 11.171875 -6.171875 C 12.566406 -5.015625 14.285156 -4.4375 16.328125 -4.4375 C 17.617188 -4.4375 18.78125 -4.648438 19.8125 -5.078125 C 20.851562 -5.503906 21.816406 -6.070312 22.703125 -6.78125 C 22.941406 -6.957031 23.171875 -7.09375 23.390625 -7.1875 C 23.617188 -7.289062 23.921875 -7.34375 24.296875 -7.34375 C 24.972656 -7.34375 25.546875 -7.101562 26.015625 -6.625 C 26.492188 -6.15625 26.734375 -5.5625 26.734375 -4.84375 C 26.734375 -4.46875 26.65625 -4.109375 26.5 -3.765625 C 26.351562 -3.429688 26.160156 -3.160156 25.921875 -2.953125 C 24.703125 -1.867188 23.316406 -1.003906 21.765625 -0.359375 C 20.210938 0.285156 18.367188 0.609375 16.234375 0.609375 C 14.285156 0.609375 12.46875 0.269531 10.78125 -0.40625 C 9.101562 -1.082031 7.644531 -2.035156 6.40625 -3.265625 C 5.164062 -4.492188 4.1875 -5.960938 3.46875 -7.671875 C 2.757812 -9.390625 2.40625 -11.289062 2.40625 -13.375 Z M 8.515625 -15.359375 L 22.359375 -15.359375 C 22.253906 -16.347656 22.03125 -17.273438 21.6875 -18.140625 C 21.34375 -19.003906 20.878906 -19.75 20.296875 -20.375 C 19.722656 -21.007812 19.035156 -21.515625 18.234375 -21.890625 C 17.441406 -22.265625 16.535156 -22.453125 15.515625 -22.453125 C 13.578125 -22.453125 11.992188 -21.804688 10.765625 -20.515625 C 9.546875 -19.222656 8.796875 -17.503906 8.515625 -15.359375 Z M 8.515625 -15.359375 "/></g></g></g><g fill="#100f0d" fill-opacity="1"><g transform="translate(256.843877, 210.340181)"><g><path d="M 2.5 -13.421875 L 2.5 -13.515625 C 2.5 -15.765625 2.847656 -17.753906 3.546875 -19.484375 C 4.242188 -21.222656 5.171875 -22.6875 6.328125 -23.875 C 7.484375 -25.070312 8.816406 -25.972656 10.328125 -26.578125 C 11.847656 -27.191406 13.40625 -27.5 15 -27.5 C 17.25 -27.5 19.101562 -27.03125 20.5625 -26.09375 C 22.03125 -25.164062 23.238281 -24.054688 24.1875 -22.765625 L 24.1875 -34.453125 C 24.1875 -35.328125 24.484375 -36.054688 25.078125 -36.640625 C 25.671875 -37.222656 26.394531 -37.515625 27.25 -37.515625 C 28.132812 -37.515625 28.875 -37.222656 29.46875 -36.640625 C 30.0625 -36.054688 30.359375 -35.328125 30.359375 -34.453125 L 30.359375 -2.8125 C 30.359375 -1.925781 30.0625 -1.191406 29.46875 -0.609375 C 28.875 -0.0351562 28.148438 0.25 27.296875 0.25 C 26.410156 0.25 25.671875 -0.0351562 25.078125 -0.609375 C 24.484375 -1.191406 24.1875 -1.925781 24.1875 -2.8125 L 24.1875 -4.484375 C 23.195312 -3.054688 21.960938 -1.859375 20.484375 -0.890625 C 19.003906 0.078125 17.175781 0.5625 15 0.5625 C 13.4375 0.5625 11.894531 0.253906 10.375 -0.359375 C 8.863281 -0.972656 7.53125 -1.875 6.375 -3.0625 C 5.21875 -4.25 4.28125 -5.707031 3.5625 -7.4375 C 2.851562 -9.175781 2.5 -11.171875 2.5 -13.421875 Z M 16.484375 -4.796875 C 17.503906 -4.796875 18.488281 -5 19.4375 -5.40625 C 20.394531 -5.8125 21.226562 -6.394531 21.9375 -7.15625 C 22.65625 -7.925781 23.226562 -8.835938 23.65625 -9.890625 C 24.082031 -10.953125 24.296875 -12.128906 24.296875 -13.421875 L 24.296875 -13.515625 C 24.296875 -14.816406 24.082031 -16 23.65625 -17.0625 C 23.226562 -18.132812 22.65625 -19.046875 21.9375 -19.796875 C 21.226562 -20.546875 20.394531 -21.125 19.4375 -21.53125 C 18.488281 -21.9375 17.503906 -22.140625 16.484375 -22.140625 C 15.429688 -22.140625 14.4375 -21.941406 13.5 -21.546875 C 12.5625 -21.160156 11.734375 -20.59375 11.015625 -19.84375 C 10.304688 -19.101562 9.742188 -18.195312 9.328125 -17.125 C 8.921875 -16.050781 8.71875 -14.847656 8.71875 -13.515625 L 8.71875 -13.421875 C 8.71875 -12.128906 8.921875 -10.945312 9.328125 -9.875 C 9.742188 -8.800781 10.304688 -7.890625 11.015625 -7.140625 C 11.734375 -6.390625 12.5625 -5.8125 13.5 -5.40625 C 14.4375 -5 15.429688 -4.796875 16.484375 -4.796875 Z M 16.484375 -4.796875 "/></g></g></g><g fill="#100f0d" fill-opacity="1"><g transform="translate(285.770594, 210.340181)"><g><path d="M 4.234375 -24.140625 C 4.234375 -25.023438 4.519531 -25.765625 5.09375 -26.359375 C 5.675781 -26.953125 6.410156 -27.25 7.296875 -27.25 C 8.179688 -27.25 8.921875 -26.953125 9.515625 -26.359375 C 10.109375 -25.765625 10.40625 -25.023438 10.40625 -24.140625 L 10.40625 -2.8125 C 10.40625 -1.925781 10.109375 -1.191406 9.515625 -0.609375 C 8.921875 -0.0351562 8.179688 0.25 7.296875 0.25 C 6.441406 0.25 5.71875 -0.0351562 5.125 -0.609375 C 4.53125 -1.191406 4.234375 -1.925781 4.234375 -2.8125 Z M 7.296875 -37.203125 C 8.285156 -37.203125 9.117188 -36.925781 9.796875 -36.375 C 10.472656 -35.832031 10.8125 -35.101562 10.8125 -34.1875 L 10.8125 -33.890625 C 10.8125 -32.960938 10.472656 -32.21875 9.796875 -31.65625 C 9.117188 -31.101562 8.285156 -30.828125 7.296875 -30.828125 C 6.304688 -30.828125 5.472656 -31.101562 4.796875 -31.65625 C 4.117188 -32.21875 3.78125 -32.960938 3.78125 -33.890625 L 3.78125 -34.1875 C 3.78125 -35.101562 4.117188 -35.832031 4.796875 -36.375 C 5.472656 -36.925781 6.304688 -37.203125 7.296875 -37.203125 Z M 7.296875 -37.203125 "/></g></g></g><g fill="#100f0d" fill-opacity="1"><g transform="translate(295.055087, 210.340181)"><g><path d="M 2.09375 -7.859375 C 2.09375 -9.316406 2.363281 -10.585938 2.90625 -11.671875 C 3.445312 -12.765625 4.203125 -13.671875 5.171875 -14.390625 C 6.148438 -15.109375 7.328125 -15.644531 8.703125 -16 C 10.078125 -16.351562 11.582031 -16.53125 13.21875 -16.53125 C 14.75 -16.53125 16.070312 -16.425781 17.1875 -16.21875 C 18.3125 -16.019531 19.40625 -15.75 20.46875 -15.40625 L 20.46875 -16.078125 C 20.46875 -18.015625 19.894531 -19.472656 18.75 -20.453125 C 17.613281 -21.441406 15.957031 -21.9375 13.78125 -21.9375 C 12.59375 -21.9375 11.519531 -21.828125 10.5625 -21.609375 C 9.613281 -21.390625 8.695312 -21.144531 7.8125 -20.875 C 7.46875 -20.769531 7.144531 -20.71875 6.84375 -20.71875 C 6.125 -20.71875 5.507812 -20.960938 5 -21.453125 C 4.488281 -21.953125 4.234375 -22.554688 4.234375 -23.265625 C 4.234375 -23.847656 4.394531 -24.359375 4.71875 -24.796875 C 5.039062 -25.242188 5.441406 -25.550781 5.921875 -25.71875 C 7.210938 -26.195312 8.535156 -26.578125 9.890625 -26.859375 C 11.253906 -27.148438 12.820312 -27.296875 14.59375 -27.296875 C 18.375 -27.296875 21.289062 -26.378906 23.34375 -24.546875 C 25.40625 -22.710938 26.4375 -19.851562 26.4375 -15.96875 L 26.4375 -2.703125 C 26.4375 -1.847656 26.144531 -1.140625 25.5625 -0.578125 C 24.988281 -0.0234375 24.273438 0.25 23.421875 0.25 C 22.535156 0.25 21.8125 -0.0078125 21.25 -0.53125 C 20.6875 -1.0625 20.40625 -1.664062 20.40625 -2.34375 L 20.40625 -3.375 C 19.488281 -2.28125 18.316406 -1.347656 16.890625 -0.578125 C 15.460938 0.179688 13.710938 0.5625 11.640625 0.5625 C 10.378906 0.5625 9.171875 0.378906 8.015625 0.015625 C 6.859375 -0.335938 5.84375 -0.863281 4.96875 -1.5625 C 4.101562 -2.257812 3.40625 -3.125 2.875 -4.15625 C 2.351562 -5.195312 2.09375 -6.394531 2.09375 -7.75 Z M 8.109375 -8.109375 L 8.109375 -8.015625 C 8.109375 -6.722656 8.601562 -5.71875 9.59375 -5 C 10.582031 -4.28125 11.84375 -3.921875 13.375 -3.921875 C 14.394531 -3.921875 15.347656 -4.054688 16.234375 -4.328125 C 17.117188 -4.609375 17.875 -5.003906 18.5 -5.515625 C 19.125 -6.023438 19.625 -6.632812 20 -7.34375 C 20.375 -8.0625 20.5625 -8.847656 20.5625 -9.703125 L 20.5625 -11.53125 C 19.78125 -11.84375 18.867188 -12.097656 17.828125 -12.296875 C 16.796875 -12.503906 15.664062 -12.609375 14.4375 -12.609375 C 12.394531 -12.609375 10.828125 -12.210938 9.734375 -11.421875 C 8.648438 -10.640625 8.109375 -9.535156 8.109375 -8.109375 Z M 8.109375 -8.109375 "/></g></g></g><g fill="#111b1e" fill-opacity="1"><g transform="translate(150.216523, 226.036573)"><g><path d="M 3.375 0.109375 C 2.78125 0.109375 2.253906 -0.015625 1.796875 -0.265625 C 1.347656 -0.515625 0.992188 -0.859375 0.734375 -1.296875 C 0.472656 -1.742188 0.34375 -2.257812 0.34375 -2.84375 C 0.34375 -3.414062 0.472656 -3.921875 0.734375 -4.359375 C 0.992188 -4.804688 1.347656 -5.15625 1.796875 -5.40625 C 2.253906 -5.664062 2.78125 -5.796875 3.375 -5.796875 C 3.96875 -5.796875 4.488281 -5.664062 4.9375 -5.40625 C 5.394531 -5.15625 5.753906 -4.804688 6.015625 -4.359375 C 6.273438 -3.921875 6.40625 -3.414062 6.40625 -2.84375 C 6.40625 -2.257812 6.273438 -1.742188 6.015625 -1.296875 C 5.753906 -0.859375 5.394531 -0.515625 4.9375 -0.265625 C 4.488281 -0.015625 3.96875 0.109375 3.375 0.109375 Z M 1.65625 -2.84375 C 1.65625 -2.5 1.726562 -2.195312 1.875 -1.9375 C 2.019531 -1.675781 2.222656 -1.472656 2.484375 -1.328125 C 2.742188 -1.179688 3.039062 -1.109375 3.375 -1.109375 C 3.71875 -1.109375 4.015625 -1.179688 4.265625 -1.328125 C 4.523438 -1.472656 4.722656 -1.675781 4.859375 -1.9375 C 5.003906 -2.195312 5.078125 -2.5 5.078125 -2.84375 C 5.078125 -3.175781 5.003906 -3.472656 4.859375 -3.734375 C 4.722656 -3.992188 4.523438 -4.195312 4.265625 -4.34375 C 4.015625 -4.488281 3.71875 -4.5625 3.375 -4.5625 C 3.039062 -4.5625 2.742188 -4.488281 2.484375 -4.34375 C 2.222656 -4.195312 2.019531 -3.992188 1.875 -3.734375 C 1.726562 -3.472656 1.65625 -3.175781 1.65625 -2.84375 Z M 1.65625 -2.84375 "/></g></g></g><g fill="#111b1e" fill-opacity="1"><g transform="translate(161.965839, 226.036573)"><g><path d="M 0.6875 0 L 0.6875 -5.671875 L 1.78125 -5.671875 L 4.28125 -2.21875 L 4.28125 -5.671875 L 5.5625 -5.671875 L 5.5625 0 L 4.46875 0 L 1.96875 -3.484375 L 1.96875 0 Z M 0.6875 0 "/></g></g></g><g fill="#111b1e" fill-opacity="1"><g transform="translate(173.204318, 226.036573)"><g><path d="M 0.6875 0 L 0.6875 -5.671875 L 1.96875 -5.671875 L 1.96875 -1.203125 L 4.453125 -1.203125 L 4.453125 0 Z M 0.6875 0 "/></g></g></g><g fill="#111b1e" fill-opacity="1"><g transform="translate(182.86973, 226.036573)"><g><path d="M 0.6875 0 L 0.6875 -5.671875 L 1.96875 -5.671875 L 1.96875 0 Z M 0.6875 0 "/></g></g></g><g fill="#111b1e" fill-opacity="1"><g transform="translate(190.516099, 226.036573)"><g><path d="M 0.6875 0 L 0.6875 -5.671875 L 1.78125 -5.671875 L 4.28125 -2.21875 L 4.28125 -5.671875 L 5.5625 -5.671875 L 5.5625 0 L 4.46875 0 L 1.96875 -3.484375 L 1.96875 0 Z M 0.6875 0 "/></g></g></g><g fill="#111b1e" fill-opacity="1"><g transform="translate(201.754577, 226.036573)"><g><path d="M 0.6875 0 L 0.6875 -5.671875 L 4.40625 -5.671875 L 4.40625 -4.59375 L 1.96875 -4.59375 L 1.96875 -3.40625 L 4.1875 -3.40625 L 4.1875 -2.328125 L 1.96875 -2.328125 L 1.96875 -1.09375 L 4.5 -1.09375 L 4.5 0 Z M 0.6875 0 "/></g></g></g><g fill="#111b1e" fill-opacity="1"><g transform="translate(211.663244, 226.036573)"><g/></g></g><g fill="#111b1e" fill-opacity="1"><g transform="translate(218.563624, 226.036573)"><g><path d="M 2.65625 0.109375 C 2.1875 0.109375 1.78125 0.03125 1.4375 -0.125 C 1.09375 -0.28125 0.828125 -0.5 0.640625 -0.78125 C 0.453125 -1.070312 0.359375 -1.414062 0.359375 -1.8125 L 1.625 -1.8125 C 1.625 -1.539062 1.71875 -1.328125 1.90625 -1.171875 C 2.09375 -1.023438 2.34375 -0.953125 2.65625 -0.953125 C 2.925781 -0.953125 3.140625 -1.003906 3.296875 -1.109375 C 3.453125 -1.210938 3.53125 -1.359375 3.53125 -1.546875 C 3.53125 -1.742188 3.429688 -1.90625 3.234375 -2.03125 C 3.046875 -2.15625 2.753906 -2.265625 2.359375 -2.359375 C 1.691406 -2.492188 1.195312 -2.703125 0.875 -2.984375 C 0.5625 -3.273438 0.40625 -3.648438 0.40625 -4.109375 C 0.40625 -4.628906 0.59375 -5.039062 0.96875 -5.34375 C 1.351562 -5.644531 1.867188 -5.796875 2.515625 -5.796875 C 2.960938 -5.796875 3.351562 -5.71875 3.6875 -5.5625 C 4.019531 -5.40625 4.273438 -5.1875 4.453125 -4.90625 C 4.640625 -4.632812 4.734375 -4.304688 4.734375 -3.921875 L 3.484375 -3.921875 C 3.484375 -4.171875 3.398438 -4.367188 3.234375 -4.515625 C 3.066406 -4.660156 2.832031 -4.734375 2.53125 -4.734375 C 2.257812 -4.734375 2.046875 -4.679688 1.890625 -4.578125 C 1.734375 -4.472656 1.65625 -4.328125 1.65625 -4.140625 C 1.65625 -3.960938 1.742188 -3.8125 1.921875 -3.6875 C 2.097656 -3.570312 2.398438 -3.460938 2.828125 -3.359375 C 3.535156 -3.191406 4.046875 -2.96875 4.359375 -2.6875 C 4.671875 -2.40625 4.828125 -2.039062 4.828125 -1.59375 C 4.828125 -1.0625 4.632812 -0.644531 4.25 -0.34375 C 3.863281 -0.0390625 3.332031 0.109375 2.65625 0.109375 Z M 2.65625 0.109375 "/></g></g></g><g fill="#111b1e" fill-opacity="1"><g transform="translate(228.756088, 226.036573)"><g><path d="M 2.046875 0 L 2.046875 -4.46875 L 0.25 -4.46875 L 0.25 -5.671875 L 5.140625 -5.671875 L 5.140625 -4.46875 L 3.328125 -4.46875 L 3.328125 0 Z M 2.046875 0 "/></g></g></g><g fill="#111b1e" fill-opacity="1"><g transform="translate(239.12695, 226.036573)"><g><path d="M 3.375 0.109375 C 2.78125 0.109375 2.253906 -0.015625 1.796875 -0.265625 C 1.347656 -0.515625 0.992188 -0.859375 0.734375 -1.296875 C 0.472656 -1.742188 0.34375 -2.257812 0.34375 -2.84375 C 0.34375 -3.414062 0.472656 -3.921875 0.734375 -4.359375 C 0.992188 -4.804688 1.347656 -5.15625 1.796875 -5.40625 C 2.253906 -5.664062 2.78125 -5.796875 3.375 -5.796875 C 3.96875 -5.796875 4.488281 -5.664062 4.9375 -5.40625 C 5.394531 -5.15625 5.753906 -4.804688 6.015625 -4.359375 C 6.273438 -3.921875 6.40625 -3.414062 6.40625 -2.84375 C 6.40625 -2.257812 6.273438 -1.742188 6.015625 -1.296875 C 5.753906 -0.859375 5.394531 -0.515625 4.9375 -0.265625 C 4.488281 -0.015625 3.96875 0.109375 3.375 0.109375 Z M 1.65625 -2.84375 C 1.65625 -2.5 1.726562 -2.195312 1.875 -1.9375 C 2.019531 -1.675781 2.222656 -1.472656 2.484375 -1.328125 C 2.742188 -1.179688 3.039062 -1.109375 3.375 -1.109375 C 3.71875 -1.109375 4.015625 -1.179688 4.265625 -1.328125 C 4.523438 -1.472656 4.722656 -1.675781 4.859375 -1.9375 C 5.003906 -2.195312 5.078125 -2.5 5.078125 -2.84375 C 5.078125 -3.175781 5.003906 -3.472656 4.859375 -3.734375 C 4.722656 -3.992188 4.523438 -4.195312 4.265625 -4.34375 C 4.015625 -4.488281 3.71875 -4.5625 3.375 -4.5625 C 3.039062 -4.5625 2.742188 -4.488281 2.484375 -4.34375 C 2.222656 -4.195312 2.019531 -3.992188 1.875 -3.734375 C 1.726562 -3.472656 1.65625 -3.175781 1.65625 -2.84375 Z M 1.65625 -2.84375 "/></g></g></g><g fill="#111b1e" fill-opacity="1"><g transform="translate(250.876264, 226.036573)"><g><path d="M 0.6875 0 L 0.6875 -5.671875 L 3.109375 -5.671875 C 3.535156 -5.671875 3.910156 -5.59375 4.234375 -5.4375 C 4.554688 -5.28125 4.800781 -5.054688 4.96875 -4.765625 C 5.144531 -4.472656 5.234375 -4.125 5.234375 -3.71875 C 5.234375 -3.300781 5.132812 -2.941406 4.9375 -2.640625 C 4.75 -2.347656 4.488281 -2.125 4.15625 -1.96875 L 5.328125 0 L 3.828125 0 L 2.828125 -1.765625 L 1.96875 -1.765625 L 1.96875 0 Z M 1.953125 -2.859375 L 2.9375 -2.859375 C 3.25 -2.859375 3.488281 -2.929688 3.65625 -3.078125 C 3.832031 -3.222656 3.921875 -3.4375 3.921875 -3.71875 C 3.921875 -3.988281 3.832031 -4.195312 3.65625 -4.34375 C 3.488281 -4.5 3.25 -4.578125 2.9375 -4.578125 L 1.953125 -4.578125 Z M 1.953125 -2.859375 "/></g></g></g><g fill="#111b1e" fill-opacity="1"><g transform="translate(261.579574, 226.036573)"><g><path d="M 0.6875 0 L 0.6875 -5.671875 L 4.40625 -5.671875 L 4.40625 -4.59375 L 1.96875 -4.59375 L 1.96875 -3.40625 L 4.1875 -3.40625 L 4.1875 -2.328125 L 1.96875 -2.328125 L 1.96875 -1.09375 L 4.5 -1.09375 L 4.5 0 Z M 0.6875 0 "/></g></g></g></svg>