<?xml version="1.0" encoding="UTF-8"?>
<svg version="1.1" xmlns="http://www.w3.org/2000/svg" width="468" height="278">
<path d="M0 0 C154.44 0 308.88 0 468 0 C468 91.74 468 183.48 468 278 C313.56 278 159.12 278 0 278 C0 186.26 0 94.52 0 0 Z " fill="#FDF8F8" transform="translate(0,0)"/>
<path d="M0 0 C6.42638818 3.71986541 11.45229218 10.0944539 15.51953125 16.1953125 C15.14453125 18.8828125 15.14453125 18.8828125 14.51953125 21.1953125 C11.69122038 21.25187872 10.08205386 21.26606231 7.51953125 20.1953125 C6 18.265625 6 18.265625 4.58203125 15.8828125 C1.69652018 11.07617868 -1.05185831 8.71287902 -6.48046875 7.1953125 C-11.09706635 6.53823669 -15.4002879 6.815207 -19.48046875 9.1953125 C-22.947866 12.83704816 -24.08699381 15.23113762 -24.16796875 20.2578125 C-23.93266213 27.97064052 -20.80149467 32.99520316 -16.48046875 39.1953125 C-15.37552216 40.86146221 -14.2712833 42.52808162 -13.16796875 44.1953125 C-12.69746094 44.8759375 -12.22695312 45.5565625 -11.7421875 46.2578125 C-8.73099663 50.88180838 -8.25127837 53.81903218 -8.35546875 59.4453125 C-8.37351563 60.70859375 -8.3915625 61.971875 -8.41015625 63.2734375 C-8.43335938 64.23765625 -8.4565625 65.201875 -8.48046875 66.1953125 C-7.61881104 66.1638916 -7.61881104 66.1638916 -6.73974609 66.13183594 C-4.11183501 66.04817486 -1.48420485 65.9964979 1.14453125 65.9453125 C2.04816406 65.91179687 2.95179688 65.87828125 3.8828125 65.84375 C9.60373197 65.76023293 13.08681071 66.190674 17.51953125 70.1953125 C18.98828125 72.3515625 18.98828125 72.3515625 20.01953125 74.6953125 C20.42816406 75.57574219 20.83679688 76.45617187 21.2578125 77.36328125 C21.88236328 78.76513672 21.88236328 78.76513672 22.51953125 80.1953125 C42.06546667 123.47981601 88.05875168 142.45670092 129.62402344 158.84008789 C140.07837581 162.96771666 150.33222984 167.45075141 160.51953125 172.1953125 C162.53922485 173.13526537 164.55986241 174.07319665 166.58203125 175.0078125 C167.41089844 175.39195312 168.23976563 175.77609375 169.09375 176.171875 C171.65653298 177.25311355 174.24008254 178.05495868 176.89453125 178.8828125 C183.50733795 181.22171714 188.4993091 185.46085919 193.84033203 189.84863281 C195.51218403 191.1894202 197.21850134 192.46051972 198.953125 193.71875 C208.84984088 200.92797726 217.40242761 208.9229422 220.51953125 221.1953125 C221.39340243 227.32245526 220.30887435 231.73284892 217.51953125 237.1953125 C208.43579309 238.16166762 202.03265276 232.7776003 195.05078125 227.52734375 C187.52577977 223.56742785 178.89208119 223.86397069 170.609375 223.78125 C169.40132706 223.76188385 168.19327911 223.7425177 166.94862366 223.7225647 C163.11816302 223.6631383 159.28767172 223.6165315 155.45703125 223.5703125 C152.84829472 223.53209874 150.23957035 223.49304507 147.63085938 223.453125 C141.26051628 223.35746714 134.89011418 223.27330023 128.51953125 223.1953125 C128.51953125 219.8953125 128.51953125 216.5953125 128.51953125 213.1953125 C141.38953125 213.1953125 154.25953125 213.1953125 167.51953125 213.1953125 C160.02558691 208.64016986 152.53156742 204.08526264 145.03253174 199.53852844 C142.24816132 197.85030083 139.46408872 196.16161008 136.68164062 194.47021484 C112.9928056 180.07576391 88.7732861 166.60781734 64.51953125 153.1953125 C18.72057809 127.84819436 18.72057809 127.84819436 3.8203125 118.11450195 C-5.0977698 112.34215258 -5.0977698 112.34215258 -15.48046875 111.1953125 C-18.1887728 112.29415552 -18.1887728 112.29415552 -20.8046875 113.94921875 C-21.81942139 114.54879395 -22.83415527 115.14836914 -23.87963867 115.76611328 C-24.9647876 116.42337402 -26.04993652 117.08063477 -27.16796875 117.7578125 C-28.91015 118.79217922 -30.65532695 119.82135349 -32.40083313 120.85009766 C-33.60792908 121.56162049 -34.81420839 122.27453041 -36.0196991 122.98876953 C-42.33443469 126.72330702 -48.74334293 130.27816906 -55.16796875 133.8203125 C-63.46164916 138.40589487 -71.73739752 143.01933435 -79.98046875 147.6953125 C-88.24902439 152.38325287 -96.543641 157.02203573 -104.85546875 161.6328125 C-107.13802812 162.89972646 -109.42058021 164.16665353 -111.703125 165.43359375 C-115.05438936 167.2937014 -118.40565363 169.153808 -121.75732422 171.01318359 C-135.43944272 178.61067121 -149.00499491 186.36980239 -162.4453125 194.38720703 C-167.06133306 197.13706613 -171.68526646 199.87353429 -176.30859375 202.61108398 C-181.70017895 205.80420608 -187.09016426 209.00002891 -192.48046875 212.1953125 C-180.27046875 212.5253125 -168.06046875 212.8553125 -155.48046875 213.1953125 C-155.48046875 213.5253125 -155.48046875 213.8553125 -155.48046875 214.1953125 C-157.12245239 214.23289673 -157.12245239 214.23289673 -158.79760742 214.27124023 C-162.86982358 214.36561258 -166.94188101 214.46575981 -171.01391602 214.56762695 C-172.77429483 214.61086319 -174.53471253 214.652546 -176.29516602 214.69262695 C-178.82970888 214.75060435 -181.36405809 214.81421877 -183.8984375 214.87890625 C-184.68196091 214.89561874 -185.46548431 214.91233124 -186.27275085 214.92955017 C-190.11369425 215.03302057 -193.74225997 215.28109434 -197.48046875 216.1953125 C-188.65726178 217.40077935 -179.80707752 217.53224734 -170.91796875 217.7578125 C-169.3209542 217.80108895 -167.72394884 217.84470587 -166.12695312 217.88867188 C-162.24488652 217.99481319 -158.36272443 218.09633869 -154.48046875 218.1953125 C-154.48046875 216.5453125 -154.48046875 214.8953125 -154.48046875 213.1953125 C-154.15046875 213.1953125 -153.82046875 213.1953125 -153.48046875 213.1953125 C-153.45357659 214.67438142 -153.43412254 216.15358733 -153.41796875 217.6328125 C-153.40636719 218.45652344 -153.39476562 219.28023437 -153.3828125 220.12890625 C-153.48046875 222.1953125 -153.48046875 222.1953125 -154.48046875 223.1953125 C-156.23376749 223.25760986 -157.98961288 223.24944169 -159.74365234 223.21362305 C-160.86927582 223.19418137 -161.99489929 223.17473969 -163.15463257 223.15470886 C-164.38364288 223.13072525 -165.6126532 223.10674164 -166.87890625 223.08203125 C-169.46873108 223.04987089 -172.05857637 223.01932484 -174.6484375 222.99023438 C-178.74117301 222.9425495 -182.83322215 222.88638347 -186.92529297 222.79760742 C-190.86798051 222.71301416 -194.81044682 222.67827173 -198.75390625 222.64453125 C-199.96267426 222.61042648 -201.17144226 222.57632172 -202.4168396 222.54118347 C-212.52566391 222.50902731 -219.30013809 225.76720564 -227.10546875 232.0078125 C-230.89067196 234.88125144 -234.84123841 235.07959474 -239.48046875 235.1953125 C-243.87076772 229.02547901 -243.34756641 222.40440547 -242.48046875 215.1953125 C-237.13069467 198.30335185 -221.68574507 189.60951846 -206.91796875 181.7578125 C-205.80736084 181.16508545 -204.69675293 180.5723584 -203.55249023 179.96166992 C-181.44107836 168.23689167 -158.95099884 157.62368204 -135.66064453 148.45117188 C-106.58873136 137.05855051 -106.58873136 137.05855051 -80.48046875 120.1953125 C-79.43375 119.39738281 -78.38703125 118.59945312 -77.30859375 117.77734375 C-64.22392166 107.53909406 -56.40892014 94.81768434 -49.35498047 79.98876953 C-48.07934072 77.37267528 -46.68476528 74.84085138 -45.23046875 72.3203125 C-44.7921875 71.55976562 -44.35390625 70.79921875 -43.90234375 70.015625 C-42.21162122 67.85112857 -41.02530052 67.21147797 -38.48046875 66.1953125 C-35.91503906 65.96826172 -35.91503906 65.96826172 -33.05859375 66 C-32.03378906 66.00644531 -31.00898438 66.01289062 -29.953125 66.01953125 C-28.35791016 66.04466797 -28.35791016 66.04466797 -26.73046875 66.0703125 C-25.65152344 66.07933594 -24.57257813 66.08835937 -23.4609375 66.09765625 C-20.80055597 66.12119945 -18.14062539 66.15408451 -15.48046875 66.1953125 C-16.01250725 52.82569981 -19.61906034 45.33143211 -28.18359375 35.17578125 C-33.05226154 28.75417632 -32.33798418 20.84082391 -31.48046875 13.1953125 C-29.72151933 7.12251505 -24.9034351 3.38477746 -19.74609375 0.0859375 C-14.05012981 -2.15316557 -5.81088224 -1.88510511 0 0 Z " fill="#FBF6F6" transform="translate(247.48046875,3.8046875)"/>
<path d="M0 0 C6.42638818 3.71986541 11.45229218 10.0944539 15.51953125 16.1953125 C15.14453125 18.8828125 15.14453125 18.8828125 14.51953125 21.1953125 C11.69122038 21.25187872 10.08205386 21.26606231 7.51953125 20.1953125 C6 18.265625 6 18.265625 4.58203125 15.8828125 C1.69652018 11.07617868 -1.05185831 8.71287902 -6.48046875 7.1953125 C-11.09706635 6.53823669 -15.4002879 6.815207 -19.48046875 9.1953125 C-22.947866 12.83704816 -24.08699381 15.23113762 -24.16796875 20.2578125 C-23.93266213 27.97064052 -20.80149467 32.99520316 -16.48046875 39.1953125 C-15.37552216 40.86146221 -14.2712833 42.52808162 -13.16796875 44.1953125 C-12.69746094 44.8759375 -12.22695312 45.5565625 -11.7421875 46.2578125 C-8.73099663 50.88180838 -8.25127837 53.81903218 -8.35546875 59.4453125 C-8.37351563 60.70859375 -8.3915625 61.971875 -8.41015625 63.2734375 C-8.43335938 64.23765625 -8.4565625 65.201875 -8.48046875 66.1953125 C-7.61881104 66.1638916 -7.61881104 66.1638916 -6.73974609 66.13183594 C-4.11183501 66.04817486 -1.48420485 65.9964979 1.14453125 65.9453125 C2.04816406 65.91179687 2.95179688 65.87828125 3.8828125 65.84375 C9.60373197 65.76023293 13.08681071 66.190674 17.51953125 70.1953125 C18.98828125 72.3515625 18.98828125 72.3515625 20.01953125 74.6953125 C20.42816406 75.57574219 20.83679688 76.45617187 21.2578125 77.36328125 C21.88236328 78.76513672 21.88236328 78.76513672 22.51953125 80.1953125 C42.06546667 123.47981601 88.05875168 142.45670092 129.62402344 158.84008789 C140.07837581 162.96771666 150.33222984 167.45075141 160.51953125 172.1953125 C162.53922485 173.13526537 164.55986241 174.07319665 166.58203125 175.0078125 C167.41089844 175.39195312 168.23976563 175.77609375 169.09375 176.171875 C171.65653298 177.25311355 174.24008254 178.05495868 176.89453125 178.8828125 C183.50733795 181.22171714 188.4993091 185.46085919 193.84033203 189.84863281 C195.51218403 191.1894202 197.21850134 192.46051972 198.953125 193.71875 C208.84984088 200.92797726 217.40242761 208.9229422 220.51953125 221.1953125 C221.39340243 227.32245526 220.30887435 231.73284892 217.51953125 237.1953125 C208.43579309 238.16166762 202.03265276 232.7776003 195.05078125 227.52734375 C187.52577977 223.56742785 178.89208119 223.86397069 170.609375 223.78125 C169.40132706 223.76188385 168.19327911 223.7425177 166.94862366 223.7225647 C163.11816302 223.6631383 159.28767172 223.6165315 155.45703125 223.5703125 C152.84829472 223.53209874 150.23957035 223.49304507 147.63085938 223.453125 C141.26051628 223.35746714 134.89011418 223.27330023 128.51953125 223.1953125 C128.51953125 219.8953125 128.51953125 216.5953125 128.51953125 213.1953125 C141.38953125 213.1953125 154.25953125 213.1953125 167.51953125 213.1953125 C160.02558691 208.64016986 152.53156742 204.08526264 145.03253174 199.53852844 C142.24816132 197.85030083 139.46408872 196.16161008 136.68164062 194.47021484 C112.9928056 180.07576391 88.7732861 166.60781734 64.51953125 153.1953125 C18.72057809 127.84819436 18.72057809 127.84819436 3.8203125 118.11450195 C-5.0977698 112.34215258 -5.0977698 112.34215258 -15.48046875 111.1953125 C-18.1887728 112.29415552 -18.1887728 112.29415552 -20.8046875 113.94921875 C-21.81942139 114.54879395 -22.83415527 115.14836914 -23.87963867 115.76611328 C-24.9647876 116.42337402 -26.04993652 117.08063477 -27.16796875 117.7578125 C-28.91015 118.79217922 -30.65532695 119.82135349 -32.40083313 120.85009766 C-33.60792908 121.56162049 -34.81420839 122.27453041 -36.0196991 122.98876953 C-42.33443469 126.72330702 -48.74334293 130.27816906 -55.16796875 133.8203125 C-63.46164916 138.40589487 -71.73739752 143.01933435 -79.98046875 147.6953125 C-88.24902439 152.38325287 -96.543641 157.02203573 -104.85546875 161.6328125 C-107.13802812 162.89972646 -109.42058021 164.16665353 -111.703125 165.43359375 C-115.05438936 167.2937014 -118.40565363 169.153808 -121.75732422 171.01318359 C-135.43944272 178.61067121 -149.00499491 186.36980239 -162.4453125 194.38720703 C-167.06133306 197.13706613 -171.68526646 199.87353429 -176.30859375 202.61108398 C-181.70017895 205.80420608 -187.09016426 209.00002891 -192.48046875 212.1953125 C-180.27046875 212.5253125 -168.06046875 212.8553125 -155.48046875 213.1953125 C-155.48046875 213.5253125 -155.48046875 213.8553125 -155.48046875 214.1953125 C-157.12245239 214.23289673 -157.12245239 214.23289673 -158.79760742 214.27124023 C-162.86982358 214.36561258 -166.94188101 214.46575981 -171.01391602 214.56762695 C-172.77429483 214.61086319 -174.53471253 214.652546 -176.29516602 214.69262695 C-178.82970888 214.75060435 -181.36405809 214.81421877 -183.8984375 214.87890625 C-184.68196091 214.89561874 -185.46548431 214.91233124 -186.27275085 214.92955017 C-190.11369425 215.03302057 -193.74225997 215.28109434 -197.48046875 216.1953125 C-188.65726178 217.40077935 -179.80707752 217.53224734 -170.91796875 217.7578125 C-169.3209542 217.80108895 -167.72394884 217.84470587 -166.12695312 217.88867188 C-162.24488652 217.99481319 -158.36272443 218.09633869 -154.48046875 218.1953125 C-154.48046875 216.5453125 -154.48046875 214.8953125 -154.48046875 213.1953125 C-154.15046875 213.1953125 -153.82046875 213.1953125 -153.48046875 213.1953125 C-153.45357659 214.67438142 -153.43412254 216.15358733 -153.41796875 217.6328125 C-153.40636719 218.45652344 -153.39476562 219.28023437 -153.3828125 220.12890625 C-153.48046875 222.1953125 -153.48046875 222.1953125 -154.48046875 223.1953125 C-156.23376749 223.25760986 -157.98961288 223.24944169 -159.74365234 223.21362305 C-160.86927582 223.19418137 -161.99489929 223.17473969 -163.15463257 223.15470886 C-164.38364288 223.13072525 -165.6126532 223.10674164 -166.87890625 223.08203125 C-169.46873108 223.04987089 -172.05857637 223.01932484 -174.6484375 222.99023438 C-178.74117301 222.9425495 -182.83322215 222.88638347 -186.92529297 222.79760742 C-190.86798051 222.71301416 -194.81044682 222.67827173 -198.75390625 222.64453125 C-199.96267426 222.61042648 -201.17144226 222.57632172 -202.4168396 222.54118347 C-212.52566391 222.50902731 -219.30013809 225.76720564 -227.10546875 232.0078125 C-230.89067196 234.88125144 -234.84123841 235.07959474 -239.48046875 235.1953125 C-243.87076772 229.02547901 -243.34756641 222.40440547 -242.48046875 215.1953125 C-237.13069467 198.30335185 -221.68574507 189.60951846 -206.91796875 181.7578125 C-205.80736084 181.16508545 -204.69675293 180.5723584 -203.55249023 179.96166992 C-181.44107836 168.23689167 -158.95099884 157.62368204 -135.66064453 148.45117188 C-106.58873136 137.05855051 -106.58873136 137.05855051 -80.48046875 120.1953125 C-79.43375 119.39738281 -78.38703125 118.59945312 -77.30859375 117.77734375 C-64.22392166 107.53909406 -56.40892014 94.81768434 -49.35498047 79.98876953 C-48.07934072 77.37267528 -46.68476528 74.84085138 -45.23046875 72.3203125 C-44.7921875 71.55976562 -44.35390625 70.79921875 -43.90234375 70.015625 C-42.21162122 67.85112857 -41.02530052 67.21147797 -38.48046875 66.1953125 C-35.91503906 65.96826172 -35.91503906 65.96826172 -33.05859375 66 C-32.03378906 66.00644531 -31.00898438 66.01289062 -29.953125 66.01953125 C-28.35791016 66.04466797 -28.35791016 66.04466797 -26.73046875 66.0703125 C-25.65152344 66.07933594 -24.57257813 66.08835937 -23.4609375 66.09765625 C-20.80055597 66.12119945 -18.14062539 66.15408451 -15.48046875 66.1953125 C-16.01250725 52.82569981 -19.61906034 45.33143211 -28.18359375 35.17578125 C-33.05226154 28.75417632 -32.33798418 20.84082391 -31.48046875 13.1953125 C-29.72151933 7.12251505 -24.9034351 3.38477746 -19.74609375 0.0859375 C-14.05012981 -2.15316557 -5.81088224 -1.88510511 0 0 Z M-42.1171875 73.28515625 C-44.68364673 76.88114068 -45.47882957 80.95598047 -46.48046875 85.1953125 C-47.11810414 86.87330038 -47.76674156 88.54824975 -48.48046875 90.1953125 C-47.49046875 89.8653125 -46.50046875 89.5353125 -45.48046875 89.1953125 C-49.11229951 97.44449593 -53.92972015 104.1571084 -59.48046875 111.1953125 C-58.98675781 110.44765625 -58.49304688 109.7 -57.984375 108.9296875 C-57.34371094 107.94484375 -56.70304688 106.96 -56.04296875 105.9453125 C-55.40488281 104.97078125 -54.76679688 103.99625 -54.109375 102.9921875 C-52.69447498 100.56276683 -52.07096641 98.87835041 -51.48046875 96.1953125 C-50.49046875 94.7103125 -50.49046875 94.7103125 -49.48046875 93.1953125 C-49.48046875 92.2053125 -49.48046875 91.2153125 -49.48046875 90.1953125 C-50.14046875 90.1953125 -50.80046875 90.1953125 -51.48046875 90.1953125 C-52.52221569 91.73819134 -53.48674465 93.33331576 -54.41796875 94.9453125 C-73.35443562 125.51081297 -108.00252553 140.6536194 -139.93652344 153.74169922 C-146.33696044 156.36695424 -152.72278065 159.02723281 -159.10546875 161.6953125 C-159.75894287 161.96845276 -160.41241699 162.24159302 -161.08569336 162.52301025 C-205.23147081 178.49588 -205.23147081 178.49588 -236.8359375 210.36328125 C-237.6621058 212.71160205 -237.78839478 214.73190428 -237.48046875 217.1953125 C-236.02699687 215.27571261 -234.59060794 213.35554615 -233.2265625 211.37109375 C-225.23776006 199.99599296 -213.88990387 192.16023421 -201.48046875 186.1953125 C-202.43566406 186.80117187 -203.39085937 187.40703125 -204.375 188.03125 C-219.06226691 197.4846408 -232.72597342 207.95173857 -238.203125 225.35546875 C-238.65709358 227.42227931 -238.65709358 227.42227931 -237.48046875 230.1953125 C-236.71718262 229.7734668 -235.95389648 229.35162109 -235.16748047 228.91699219 C-231.56381461 226.9258196 -227.95979103 224.93529658 -224.35546875 222.9453125 C-223.69532776 222.58084015 -223.03518677 222.2163678 -222.3550415 221.84085083 C-214.03450668 217.24803357 -205.70508398 212.67261555 -197.35546875 208.1328125 C-179.92539712 198.64715846 -162.59460734 188.98327743 -145.33764648 179.18652344 C-138.09222184 175.082765 -130.804203 171.0602327 -123.50585938 167.05175781 C-111.08729654 160.22984431 -98.76584254 153.28315651 -86.6875 145.87109375 C-75.72796636 139.16409117 -64.66533088 132.79889032 -52.41796875 128.7578125 C-45.089671 126.27631643 -38.97128792 122.51066028 -32.45849609 118.42871094 C-28.97500794 116.2565828 -25.46009788 114.14523417 -21.91796875 112.0703125 C-21.26328613 111.66780273 -20.60860352 111.26529297 -19.93408203 110.85058594 C-15.56676108 108.31414135 -13.31773973 108.00156294 -8.48046875 109.1953125 C-5.69140625 110.4387207 -5.69140625 110.4387207 -2.85546875 111.99609375 C-1.30085938 112.84397461 -1.30085938 112.84397461 0.28515625 113.70898438 C1.3525 114.30259766 2.41984375 114.89621094 3.51953125 115.5078125 C4.586875 116.08982422 5.65421875 116.67183594 6.75390625 117.27148438 C10.87708873 119.5356449 14.88526378 121.73904411 18.70703125 124.48828125 C21.91947883 126.43805846 24.63272882 126.93552542 28.27880859 127.63964844 C31.8816241 128.53309016 34.72272551 130.34583355 37.83203125 132.3203125 C39.32020534 133.22887479 40.80990441 134.13494203 42.30078125 135.0390625 C43.12320312 135.54050781 43.945625 136.04195313 44.79296875 136.55859375 C49.50018436 139.38427189 54.27547756 142.0906849 59.04745483 144.80511475 C60.85114345 145.83118492 62.65386019 146.85894285 64.45629883 147.88720703 C66.91800451 149.29152464 69.3800138 150.69530728 71.84228516 152.09863281 C75.41700495 154.13637298 78.99006575 156.17700611 82.5625 158.21875 C83.13787506 158.54758682 83.71325012 158.87642365 84.30606079 159.21522522 C87.20025368 160.86943025 90.094288 162.52391252 92.98828125 164.1784668 C98.35767715 167.24787108 103.72817394 170.31528631 109.10313416 173.37493896 C112.18004074 175.12649793 115.25626291 176.87925559 118.33203125 178.6328125 C118.92948151 178.97342712 119.52693176 179.31404175 120.14248657 179.66497803 C126.54009823 183.31503566 132.91762326 186.98659521 139.20703125 190.8203125 C146.59291755 195.30460061 154.14266859 199.48210994 161.69238281 203.68310547 C169.16576336 207.85125325 176.57711107 212.1140587 183.95703125 216.4453125 C191.25207891 220.72404666 198.56730222 224.95685848 205.95703125 229.0703125 C206.71491943 229.49344727 207.47280762 229.91658203 208.25366211 230.35253906 C211.22566881 232.31527901 211.22566881 232.31527901 214.51953125 233.1953125 C214.93843343 230.40593038 214.93843343 230.40593038 214.51953125 227.1953125 C212.26953125 224.4453125 212.26953125 224.4453125 209.51953125 222.1953125 C208.51953125 221.1953125 207.51953125 220.1953125 206.51953125 219.1953125 C208.16953125 219.8553125 209.81953125 220.5153125 211.51953125 221.1953125 C208.2414719 212.3307013 201.92062183 206.39032236 194.95703125 200.2578125 C194.31999268 199.68998047 193.6829541 199.12214844 193.02661133 198.53710938 C189.28030625 195.32086403 186.29427541 193.63781436 181.51953125 192.1953125 C179.20393152 190.77944031 176.95764884 189.33132784 174.70703125 187.8203125 C161.20402925 179.05552092 146.23254617 172.64606379 131.51953125 166.1953125 C194.58220777 191.22106297 194.58220777 191.22106297 211.51953125 216.1953125 C211.84953125 215.5353125 212.17953125 214.8753125 212.51953125 214.1953125 C207.94147994 203.66579448 199.62391972 196.37152844 190.33203125 190.0703125 C189.76943604 189.68681641 189.20684082 189.30332031 188.62719727 188.90820312 C177.72081543 181.79423703 165.43927466 176.69578571 153.58203125 171.3828125 C152.2158808 170.76851976 150.84975159 170.1541798 149.48364258 169.53979492 C135.73347098 163.36477598 121.94529084 157.27681664 108.02734375 151.48828125 C84.66890402 141.76213671 61.91688829 132.01775213 43.51953125 114.1953125 C42.92140625 113.67066406 42.32328125 113.14601562 41.70703125 112.60546875 C37.80970129 109.05998108 34.78886473 104.97272745 31.83203125 100.6328125 C31.40365967 100.01035645 30.97528809 99.38790039 30.53393555 98.74658203 C27.91224679 94.7785946 25.86475244 90.81959802 24.01953125 86.43359375 C19.91378273 76.12667684 19.91378273 76.12667684 12.01171875 68.92480469 C5.27017957 66.98067772 -1.52198834 67.06883847 -8.48046875 67.1953125 C-10.10715484 67.14535247 -11.73357211 67.08498962 -13.359375 67.01171875 C-28.89324062 66.32872152 -28.89324062 66.32872152 -42.1171875 73.28515625 Z " fill="#161616" transform="translate(247.48046875,3.8046875)"/>
<path d="M0 0 C2.7890625 1.2434082 2.7890625 1.2434082 5.625 2.80078125 C7.17960937 3.64866211 7.17960937 3.64866211 8.765625 4.51367188 C9.83296875 5.10728516 10.9003125 5.70089844 12 6.3125 C13.06734375 6.89451172 14.1346875 7.47652344 15.234375 8.07617188 C19.35755748 10.3403324 23.36573253 12.54373161 27.1875 15.29296875 C30.39994758 17.24274596 33.11319757 17.74021292 36.75927734 18.44433594 C40.36209285 19.33777766 43.20319426 21.15052105 46.3125 23.125 C47.80067409 24.03356229 49.29037316 24.93962953 50.78125 25.84375 C51.60367188 26.34519531 52.42609375 26.84664062 53.2734375 27.36328125 C57.98065311 30.18895939 62.75594631 32.8953724 67.52792358 35.60980225 C69.3316122 36.63587242 71.13432894 37.66363035 72.93676758 38.69189453 C75.39847326 40.09621214 77.86048255 41.49999478 80.32275391 42.90332031 C83.8974737 44.94106048 87.4705345 46.98169361 91.04296875 49.0234375 C91.61834381 49.35227432 92.19371887 49.68111115 92.78652954 50.01991272 C95.68072243 51.67411775 98.57475675 53.32860002 101.46875 54.9831543 C106.8381459 58.05255858 112.20864269 61.11997381 117.58360291 64.17962646 C120.66050949 65.93118543 123.73673166 67.68394309 126.8125 69.4375 C127.40995026 69.77811462 128.00740051 70.11872925 128.62295532 70.46966553 C135.02056698 74.11972316 141.39809201 77.79128271 147.6875 81.625 C155.0733863 86.10928811 162.62313734 90.28679744 170.17285156 94.48779297 C178.65257141 99.21720896 187.04443289 104.08449449 195.41772461 108.99926758 C204.20007691 114.14364656 213.07450567 119.10900942 222 124 C221.72893154 119.04359423 221.72893154 119.04359423 219.15234375 115.00390625 C218.42144531 114.52824219 217.69054687 114.05257812 216.9375 113.5625 C216.20402344 113.06878906 215.47054688 112.57507813 214.71484375 112.06640625 C214.14894531 111.71449219 213.58304687 111.36257812 213 111 C213.66 110.67 214.32 110.34 215 110 C217.625 111.4375 217.625 111.4375 220 113 C215.20600214 104.39371032 209.5165767 98.30936893 202 92 C201.09507812 91.17628906 201.09507812 91.17628906 200.171875 90.3359375 C197.92827892 88.31670103 196.15861101 87.04925527 193.2578125 86.1484375 C189.4937267 84.82152956 186.47233663 82.82993155 183.1875 80.625 C176.14496083 76.06092552 168.8203866 72.29898826 161.25 68.6875 C160.22156982 68.19652832 159.19313965 67.70555664 158.13354492 67.19970703 C151.17270701 63.92369142 144.12434866 60.90189591 137 58 C140.82807409 56.7239753 141.94970848 57.51719639 145.63671875 59.02734375 C147.32776733 59.71534058 147.32776733 59.71534058 149.05297852 60.41723633 C150.85206665 61.16976685 150.85206665 61.16976685 152.6875 61.9375 C153.92048594 62.44752329 155.1534775 62.95753301 156.38647461 63.4675293 C179.80418958 73.2589246 204.17269906 85.42450878 220 106 C216.14722671 98.87820694 211.52273596 90.76136798 204 87 C204.33 86.01 204.66 85.02 205 84 C215.8711731 91.50110944 225.60113094 99.6182891 229 113 C229.87387118 119.12714276 228.7893431 123.53753642 226 129 C216.91626184 129.96635512 210.51312151 124.5822878 203.53125 119.33203125 C196.00624852 115.37211535 187.37254994 115.66865819 179.08984375 115.5859375 C177.27777184 115.55688828 177.27777184 115.55688828 175.42909241 115.5272522 C171.59863177 115.4678258 167.76814047 115.421219 163.9375 115.375 C161.32876347 115.33678624 158.7200391 115.29773257 156.11132812 115.2578125 C149.74098503 115.16215464 143.37058293 115.07798773 137 115 C137 111.7 137 108.4 137 105 C149.87 105 162.74 105 176 105 C168.50605566 100.44485736 161.01203617 95.88995014 153.51300049 91.34321594 C150.72863007 89.65498833 147.94455747 87.96629758 145.16210938 86.27490234 C121.47327435 71.88045141 97.25375485 58.41250484 73 45 C27.20104684 19.65288186 27.20104684 19.65288186 12.30078125 9.91918945 C3.38269895 4.14684008 3.38269895 4.14684008 -7 3 C-9.70830405 4.09884302 -9.70830405 4.09884302 -12.32421875 5.75390625 C-13.33895264 6.35348145 -14.35368652 6.95305664 -15.39916992 7.57080078 C-17.02689331 8.55669189 -17.02689331 8.55669189 -18.6875 9.5625 C-20.42968125 10.59686672 -22.1748582 11.62604099 -23.92036438 12.65478516 C-25.12746033 13.36630799 -26.33373964 14.07921791 -27.53923035 14.79345703 C-33.85396594 18.52799452 -40.26287418 22.08285656 -46.6875 25.625 C-54.98118041 30.21058237 -63.25692877 34.82402185 -71.5 39.5 C-79.76855564 44.18794037 -88.06317225 48.82672323 -96.375 53.4375 C-98.65755937 54.70441396 -100.94011146 55.97134103 -103.22265625 57.23828125 C-106.57392061 59.0983889 -109.92518488 60.9584955 -113.27685547 62.81787109 C-127.12013662 70.50485005 -140.83829905 78.3667951 -154.43847656 86.47607422 C-158.57491898 88.93696571 -162.72483327 91.37484906 -166.875 93.8125 C-168.2682332 94.63150355 -169.66146283 95.45051319 -171.0546875 96.26953125 C-172.02664062 96.84058594 -172.99859375 97.41164063 -174 98 C-174.495 97.01 -174.495 97.01 -175 96 C-175.59538574 96.33845947 -176.19077148 96.67691895 -176.80419922 97.02563477 C-179.48985267 98.5462464 -182.18225312 100.05448828 -184.875 101.5625 C-185.81214844 102.09552734 -186.74929687 102.62855469 -187.71484375 103.17773438 C-188.61074219 103.67724609 -189.50664062 104.17675781 -190.4296875 104.69140625 C-191.67081299 105.39052124 -191.67081299 105.39052124 -192.93701172 106.10375977 C-193.95819092 106.54739868 -193.95819092 106.54739868 -195 107 C-195.66 106.67 -196.32 106.34 -197 106 C-196.195625 105.566875 -195.39125 105.13375 -194.5625 104.6875 C-191.72153646 103.19525998 -191.72153646 103.19525998 -191 100 C-188.83300781 98.56469727 -188.83300781 98.56469727 -185.953125 97.06640625 C-184.8916626 96.50638916 -183.8302002 95.94637207 -182.73657227 95.36938477 C-181.58600342 94.77311279 -180.43543457 94.17684082 -179.25 93.5625 C-176.84504207 92.29659181 -174.44401641 91.02330578 -172.04296875 89.75 C-171.43940048 89.43096207 -170.83583221 89.11192413 -170.213974 88.78321838 C-164.93257636 85.98452789 -159.73618733 83.05443194 -154.5625 80.0625 C-146.66572994 75.5082579 -138.72330433 71.04393294 -130.75 66.625 C-129.60942139 65.99215088 -128.46884277 65.35930176 -127.29370117 64.70727539 C-122.78464573 62.20585277 -118.27521962 59.70512143 -113.76269531 57.20996094 C-102.02497364 50.71559594 -90.40482685 44.08733652 -78.9375 37.125 C-67.62957648 30.28157804 -56.52680699 23.75426257 -43.9375 19.5625 C-36.60920225 17.08100393 -30.49081917 13.31534778 -23.97802734 9.23339844 C-20.49453919 7.0612703 -16.97962913 4.94992167 -13.4375 2.875 C-12.78281738 2.47249023 -12.12813477 2.06998047 -11.45361328 1.65527344 C-7.08629233 -0.88117115 -4.83727098 -1.19374956 0 0 Z " fill="#0F0F0F" transform="translate(239,112)"/>
<path d="M0 0 C1.78205898 0.05473196 3.56602796 0.05876696 5.34863281 0.02636719 C12.25723373 -0.08173973 19.25409631 -0.12252844 25.52783203 3.07763672 C30.79794992 8.46123798 33.52700531 15.58115973 36.38134766 22.44238281 C40.49950695 31.90818593 47.4728793 39.68611744 54.52783203 47.07763672 C55.05505859 47.67962891 55.58228516 48.28162109 56.12548828 48.90185547 C73.18269446 67.61679525 101.80553032 77.33883697 124.48046875 86.80126953 C128.34556684 88.42013933 132.19132539 90.07980703 136.02783203 91.76513672 C136.64110352 92.03414795 137.254375 92.30315918 137.88623047 92.58032227 C143.66477014 95.12388707 149.42476094 97.70944738 155.17407227 100.31835938 C159.75030396 102.39236352 164.33722197 104.43609277 168.94847107 106.43127441 C171.52696395 107.54861243 174.10082385 108.67641904 176.67446899 109.80487061 C178.53391687 110.61554119 180.39933024 111.41248556 182.26489258 112.20898438 C190.1359649 115.66980816 196.76435135 119.78952836 203.52783203 125.07763672 C204.9411301 126.10312866 206.35714774 127.12490212 207.77783203 128.14013672 C214.56305394 133.30190062 220.36116374 138.97954228 223.52783203 147.07763672 C223.19783203 147.73763672 222.86783203 148.39763672 222.52783203 149.07763672 C222.01736328 148.39958984 221.50689453 147.72154297 220.98095703 147.02294922 C201.8699453 122.55814342 170.02219249 107.66868778 140.80786133 99.01245117 C111.60460714 90.27421382 77.40861569 77.86132727 54.52783203 57.07763672 C53.56490234 56.20751953 52.60197266 55.33740234 51.60986328 54.44091797 C38.87797062 42.5405124 30.61329831 27.87446129 23.52783203 12.07763672 C23.52783203 11.41763672 23.52783203 10.75763672 23.52783203 10.07763672 C15.30131602 7.7894667 7.59971489 6.77771991 -0.90966797 6.76513672 C-1.74916992 6.75998047 -2.58867187 6.75482422 -3.45361328 6.74951172 C-8.46859883 6.8054335 -12.65638554 7.54452246 -17.47216797 9.07763672 C-19.26654297 9.20138672 -19.26654297 9.20138672 -21.09716797 9.32763672 C-25.51528355 10.30944018 -26.97928542 12.5783109 -29.47216797 16.07763672 C-30.52015639 17.3811049 -31.58282144 18.67290606 -32.65966797 19.95263672 C-33.14822266 20.54818359 -33.63677734 21.14373047 -34.14013672 21.75732422 C-35.47216797 23.07763672 -35.47216797 23.07763672 -37.47216797 23.07763672 C-37.20404297 22.45888672 -36.93591797 21.84013672 -36.65966797 21.20263672 C-35.45746962 18.24404798 -35.45746962 18.24404798 -34.91748047 15.72998047 C-33.59206994 10.30561514 -32.177083 6.56423406 -27.58935547 3.19482422 C-19.38694763 -1.13338361 -9.03593691 -0.40722706 0 0 Z " fill="#E6E1E1" transform="translate(236.47216796875,70.92236328125)"/>
<path d="M0 0 C19 0 19 0 26 4 C31.34166071 9.77476834 32.46376147 14.13847443 32.3125 21.890625 C31.6977064 28.00782132 29.59827703 32.92036724 24.9375 37 C16.66655968 42.63127852 12.6121877 40 0 40 C0 26.8 0 13.6 0 0 Z " fill="#FBF6F6" transform="translate(285,202)"/>
<path d="M0 0 C3.526875 -0.061875 7.05375 -0.12375 10.6875 -0.1875 C12.342052 -0.22846802 12.342052 -0.22846802 14.0300293 -0.27026367 C20.40578463 -0.32449812 24.10127877 0.20123468 28.8125 4.75 C30.57098729 8.08187066 30.51262487 10.28346973 30 14 C28.53486642 16.3248821 26.93784577 18.01370809 25 20 C25.804375 20.804375 26.60875 21.60875 27.4375 22.4375 C31 26 31 26 31.3125 28.6875 C30.92114131 32.83590212 29.61954362 34.79833557 27 38 C23.82011883 40.04667148 21.31911757 40.23687908 17.578125 40.1953125 C16.65418945 40.19031738 15.73025391 40.18532227 14.77832031 40.18017578 C13.61397461 40.16196777 12.44962891 40.14375977 11.25 40.125 C7.5375 40.08375 3.825 40.0425 0 40 C0 26.8 0 13.6 0 0 Z " fill="#191818" transform="translate(103,202)"/>
<path d="M0 0 C-2.84066449 2.26843251 -5.62371024 3.88054947 -8.9296875 5.3828125 C-9.88351318 5.82334961 -10.83733887 6.26388672 -11.82006836 6.71777344 C-12.8281958 7.1821582 -13.83632324 7.64654297 -14.875 8.125 C-38.20223959 18.75168349 -38.20223959 18.75168349 -54 38 C-54 39.32 -54 40.64 -54 42 C-53.64808594 41.50371094 -53.29617187 41.00742188 -52.93359375 40.49609375 C-44.30937077 28.62934307 -30.98560087 17.19735168 -17 12 C-16.01 12.33 -15.02 12.66 -14 13 C-14.85980469 13.46148437 -15.71960937 13.92296875 -16.60546875 14.3984375 C-32.37007469 23.02795807 -46.61075442 32.97957056 -54 50 C-54.76269589 52.65327939 -55.38691507 55.3058803 -56 58 C-51.99774406 55.79529283 -47.99588774 53.58986255 -43.99438477 51.38378906 C-42.63576788 50.63489686 -41.27704591 49.88619528 -39.91821289 49.13769531 C-37.95430643 48.05585187 -35.99079099 46.97330161 -34.02734375 45.890625 C-33.42913315 45.56128967 -32.83092255 45.23195435 -32.21458435 44.89263916 C-28.62663608 42.91318106 -28.62663608 42.91318106 -25.07595825 40.86804199 C-20.19740402 38 -20.19740402 38 -18 38 C-19 41 -19 41 -20 42 C-18.30230469 41.02546875 -18.30230469 41.02546875 -16.5703125 40.03125 C-15.08866924 39.18727599 -13.60689142 38.34353819 -12.125 37.5 C-11.37863281 37.07074219 -10.63226563 36.64148438 -9.86328125 36.19921875 C-9.14785156 35.79316406 -8.43242188 35.38710937 -7.6953125 34.96875 C-7.03547363 34.59169922 -6.37563477 34.21464844 -5.69580078 33.82617188 C-4 33 -4 33 -2 33 C-3.62439672 38.05367867 -5.64727781 37.9413016 -11 41 C7.315 41.495 7.315 41.495 26 42 C26 42.33 26 42.66 26 43 C24.35801636 43.03758423 24.35801636 43.03758423 22.68286133 43.07592773 C18.61064517 43.17030008 14.53858774 43.27044731 10.46655273 43.37231445 C8.70617392 43.41555069 6.94575622 43.4572335 5.18530273 43.49731445 C2.65075987 43.55529185 0.11641066 43.61890627 -2.41796875 43.68359375 C-3.59325386 43.70866249 -3.59325386 43.70866249 -4.7922821 43.73423767 C-8.6332255 43.83770807 -12.26179122 44.08578184 -16 45 C-7.17679303 46.20546685 1.67339123 46.33693484 10.5625 46.5625 C12.15951455 46.60577645 13.75651991 46.64939337 15.35351562 46.69335938 C19.23558223 46.79950069 23.11774432 46.90102619 27 47 C27 45.35 27 43.7 27 42 C27.33 42 27.66 42 28 42 C28.02689216 43.47906892 28.04634621 44.95827483 28.0625 46.4375 C28.07410156 47.26121094 28.08570312 48.08492187 28.09765625 48.93359375 C28 51 28 51 27 52 C25.24670126 52.06229736 23.49085587 52.05412919 21.73681641 52.01831055 C20.61119293 51.99886887 19.48556946 51.97942719 18.32583618 51.95939636 C16.48232071 51.92342094 16.48232071 51.92342094 14.6015625 51.88671875 C12.01173767 51.85455839 9.42189238 51.82401234 6.83203125 51.79492188 C2.73929574 51.747237 -1.3527534 51.69107097 -5.44482422 51.60229492 C-9.38751176 51.51770166 -13.32997807 51.48295923 -17.2734375 51.44921875 C-18.48220551 51.41511398 -19.69097351 51.38100922 -20.93637085 51.34587097 C-31.04519516 51.31371481 -37.81966934 54.57189314 -45.625 60.8125 C-49.41020321 63.68593894 -53.36076966 63.88428224 -58 64 C-62.39029897 57.83016651 -61.86709766 51.20909297 -61 44 C-55.44834503 26.4705986 -39.15032836 17.87203746 -23.875 9.8125 C-22.74707031 9.20986328 -21.61914062 8.60722656 -20.45703125 7.98632812 C-18.28340047 6.8283295 -16.10615507 5.67708201 -13.92480469 4.53369141 C-12.11648201 3.58545409 -10.31376088 2.62633888 -8.52050781 1.64990234 C-3.33427964 -1.11142655 -3.33427964 -1.11142655 0 0 Z " fill="#0E0E0E" transform="translate(66,175)"/>
<path d="M0 0 C-1.24692781 3.74078342 -2.2277683 3.97684067 -5.6171875 5.828125 C-6.60283691 6.37283447 -7.58848633 6.91754395 -8.60400391 7.47875977 C-9.68343262 8.06326904 -10.76286133 8.64777832 -11.875 9.25 C-13.58269515 10.19008236 -15.29038476 11.13017494 -16.99777222 12.07081604 C-18.79174442 13.05733198 -20.58797985 14.03961518 -22.38476562 15.02099609 C-28.14811429 18.17148478 -33.88474521 21.37019853 -39.625 24.5625 C-40.75325195 25.18858154 -41.88150391 25.81466309 -43.04394531 26.4597168 C-51.19180263 30.98324305 -59.31383033 35.55067252 -67.42041016 40.14770508 C-73.51301422 43.6010995 -79.62203207 47.02367208 -85.73974609 50.43237305 C-95.29957397 55.76208089 -104.77717938 61.17664189 -114.12548828 66.86865234 C-117.87671818 69.13267935 -121.65893388 71.34450986 -125.4375 73.5625 C-126.56768555 74.22620605 -126.56768555 74.22620605 -127.72070312 74.90332031 C-129.48014101 75.93610541 -131.24001999 76.96813901 -133 78 C-133.495 77.01 -133.495 77.01 -134 76 C-134.59538574 76.33845947 -135.19077148 76.67691895 -135.80419922 77.02563477 C-138.48985267 78.5462464 -141.18225312 80.05448828 -143.875 81.5625 C-144.81214844 82.09552734 -145.74929687 82.62855469 -146.71484375 83.17773438 C-147.61074219 83.67724609 -148.50664062 84.17675781 -149.4296875 84.69140625 C-150.67081299 85.39052124 -150.67081299 85.39052124 -151.93701172 86.10375977 C-152.95819092 86.54739868 -152.95819092 86.54739868 -154 87 C-154.66 86.67 -155.32 86.34 -156 86 C-155.195625 85.566875 -154.39125 85.13375 -153.5625 84.6875 C-150.72153646 83.19525998 -150.72153646 83.19525998 -150 80 C-147.83300781 78.56469727 -147.83300781 78.56469727 -144.953125 77.06640625 C-143.8916626 76.50638916 -142.8302002 75.94637207 -141.73657227 75.36938477 C-140.58600342 74.77311279 -139.43543457 74.17684082 -138.25 73.5625 C-135.84504207 72.29659181 -133.44401641 71.02330578 -131.04296875 69.75 C-130.43940048 69.43096207 -129.83583221 69.11192413 -129.213974 68.78321838 C-123.93257636 65.98452789 -118.73618733 63.05443194 -113.5625 60.0625 C-105.66572994 55.5082579 -97.72330433 51.04393294 -89.75 46.625 C-88.03913208 45.67572632 -88.03913208 45.67572632 -86.29370117 44.70727539 C-81.78464573 42.20585277 -77.27521962 39.70512143 -72.76269531 37.20996094 C-61.02502776 30.71562588 -49.404088 24.08849743 -37.9375 17.125 C-9.70037492 0 -9.70037492 0 0 0 Z " fill="#0C0C0C" transform="translate(198,132)"/>
<path d="M0 0 C1.98 0 3.96 0 6 0 C6.47308594 1.06734375 6.94617188 2.1346875 7.43359375 3.234375 C8.10152104 4.73960173 8.76949349 6.24480842 9.4375 7.75 C9.79005859 8.54535156 10.14261719 9.34070313 10.50585938 10.16015625 C12.49584909 14.64198947 14.50261157 19.11541469 16.53515625 23.578125 C16.94644775 24.48336914 17.35773926 25.38861328 17.78149414 26.32128906 C18.58618076 28.09027756 19.39390388 29.85788833 20.20483398 31.62402344 C20.57036377 32.4287207 20.93589355 33.23341797 21.3125 34.0625 C21.80169922 35.13177734 21.80169922 35.13177734 22.30078125 36.22265625 C23 38 23 38 23 40 C21.35 40 19.7 40 18 40 C15.525 34.555 15.525 34.555 13 29 C11.35493161 31.19342452 9.71862763 33.39392132 8.125 35.625 C5.70217413 38.33286421 4.53757304 39.21387266 1 40 C-3.54690461 40.13852577 -6.88050153 39.84645006 -10.5625 37.0625 C-12.73764884 32.42848725 -13.21063505 29.01827753 -12 24 C-10.07936877 19.99263484 -7.60809687 16.31369164 -5.203125 12.5859375 C-2.64078137 8.56395035 -1.21290516 4.6090396 0 0 Z " fill="#F7F2F2" transform="translate(151,202)"/>
<path d="M0 0 C1.65 0 3.3 0 5 0 C9.84935991 9.33298598 14.31152084 18.78836816 18.5 28.4375 C18.94520996 29.46238525 19.39041992 30.48727051 19.84912109 31.54321289 C23 38.86044619 23 38.86044619 23 40 C21.35 40 19.7 40 18 40 C17.66226562 39.21753906 17.32453125 38.43507812 16.9765625 37.62890625 C16.53054688 36.61699219 16.08453125 35.60507813 15.625 34.5625 C14.96371094 33.04849609 14.96371094 33.04849609 14.2890625 31.50390625 C13.24923714 28.87856453 13.24923714 28.87856453 11 28 C10.9175 28.721875 10.835 29.44375 10.75 30.1875 C9.82417862 33.65933017 8.49865523 35.43193768 6 38 C2.04310248 40.2458067 -1.50521735 40.48158386 -6 40 C-8.75329021 38.20437595 -10.52627461 36.94745078 -12 34 C-13.0123734 26.25745645 -11.18720131 21.24056959 -7.125 14.75 C-6.20638498 13.22669443 -5.29220299 11.70070539 -4.3828125 10.171875 C-3.96032227 9.46224609 -3.53783203 8.75261719 -3.10253906 8.02148438 C-1.69748949 5.44535274 -0.78215255 2.82294138 0 0 Z " fill="#F6F1F1" transform="translate(344,202)"/>
<path d="M0 0 C0 3 0 3 -1.23461914 4.58911133 C-5.74242921 8.94748423 -10.4435063 12.89817805 -15.4375 16.6875 C-16.14970703 17.24244141 -16.86191406 17.79738281 -17.59570312 18.36914062 C-24.03326086 23.28647582 -30.32530177 26.46434939 -38 29 C-41.21632084 30.39574749 -44.38527333 31.89281338 -47.5625 33.375 C-56.29322588 37.39724364 -65.10521799 41.16839815 -74 44.8125 C-84.42120262 49.08416954 -94.79358381 53.4527585 -105.125 57.9375 C-105.74616699 58.20672272 -106.36733398 58.47594543 -107.00732422 58.75332642 C-113.93390718 61.75740648 -120.83149406 64.80894658 -127.67260742 68.00341797 C-129.83101422 68.92764083 -131.91870886 69.59763158 -134.1875 70.1875 C-149.14474671 74.98561319 -164.74611256 87.4181427 -172.01171875 101.19921875 C-172.33785156 101.79347656 -172.66398438 102.38773437 -173 103 C-173.33 103 -173.66 103 -174 103 C-173.84657062 94.71481361 -170.15887498 89.04441053 -164.27026367 83.31787109 C-159.65585174 79.12936114 -154.85610894 75.80621874 -149.4375 72.75 C-148.6230542 72.28601807 -147.8086084 71.82203613 -146.96948242 71.34399414 C-130.39313796 62.05529597 -112.99495412 54.58795112 -95.42675781 47.41113281 C-91.54416297 45.81228712 -87.67345718 44.18663179 -83.8046875 42.5546875 C-83.10527039 42.25990509 -82.40585327 41.96512268 -81.6852417 41.66140747 C-78.89910719 40.486922 -76.11308394 39.3121867 -73.32836914 38.13433838 C-71.39424763 37.31667876 -69.45896095 36.50183435 -67.5234375 35.6875 C-66.40888184 35.21699219 -65.29432617 34.74648437 -64.14599609 34.26171875 C-61.1280781 33.05136642 -58.09530004 31.99348112 -55 31 C-55.33 31.99 -55.66 32.98 -56 34 C-35.40240672 25.19921014 -16.03150584 16.03150584 0 0 Z " fill="#E3DFDF" transform="translate(184,118)"/>
<path d="M0 0 C6.42638818 3.71986541 11.45229218 10.0944539 15.51953125 16.1953125 C15.14453125 18.8828125 15.14453125 18.8828125 14.51953125 21.1953125 C11.69122038 21.25187872 10.08205386 21.26606231 7.51953125 20.1953125 C6 18.265625 6 18.265625 4.58203125 15.8828125 C1.69652018 11.07617868 -1.05185831 8.71287902 -6.48046875 7.1953125 C-11.09706635 6.53823669 -15.4002879 6.815207 -19.48046875 9.1953125 C-23.02759494 12.89380029 -24.04919726 15.26920697 -24.04296875 20.3828125 C-23.88622923 26.14298976 -22.5896022 30.14483917 -19.671875 35.07421875 C-18.49577649 37.1680597 -18.04465068 38.88083388 -17.48046875 41.1953125 C-16.68184923 42.87888878 -15.84584665 44.54505697 -14.98046875 46.1953125 C-12.36628727 51.18049578 -11.34382445 54.81034572 -11.41796875 60.4453125 C-11.42699219 61.33734375 -11.43601563 62.229375 -11.4453125 63.1484375 C-11.45691406 63.82390625 -11.46851563 64.499375 -11.48046875 65.1953125 C-12.80046875 65.1953125 -14.12046875 65.1953125 -15.48046875 65.1953125 C-15.54041016 63.79732422 -15.54041016 63.79732422 -15.6015625 62.37109375 C-16.55895479 50.68145211 -20.70965477 44.05146305 -28.18359375 35.171875 C-33.05694059 28.75810243 -32.33739431 20.83556472 -31.48046875 13.1953125 C-29.72151933 7.12251505 -24.9034351 3.38477746 -19.74609375 0.0859375 C-14.05012981 -2.15316557 -5.81088224 -1.88510511 0 0 Z " fill="#0E0E0E" transform="translate(247.48046875,3.8046875)"/>
<path d="M0 0 C3.526875 -0.061875 7.05375 -0.12375 10.6875 -0.1875 C12.342052 -0.22846802 12.342052 -0.22846802 14.0300293 -0.27026367 C22.92811586 -0.34595397 22.92811586 -0.34595397 27 3 C27.8971875 3.61875 27.8971875 3.61875 28.8125 4.25 C30.78029425 7.14990732 30.35154015 9.60177855 30 13 C28.17671302 17.22234879 26.14608787 19.08516205 22 21 C18.88278688 21.35560882 15.81952753 21.28316243 12.6875 21.1875 C9.820625 21.125625 6.95375 21.06375 4 21 C4 27.27 4 33.54 4 40 C2.68 40 1.36 40 0 40 C0 26.8 0 13.6 0 0 Z " fill="#F7F2F2" transform="translate(212,202)"/>
<path d="M0 0 C19 0 19 0 26 4 C31.34166071 9.77476834 32.46376147 14.13847443 32.3125 21.890625 C31.6977064 28.00782132 29.59827703 32.92036724 24.9375 37 C16.66655968 42.63127852 12.6121877 40 0 40 C0 26.8 0 13.6 0 0 Z M5 1 C5 13.54 5 26.08 5 39 C15.3569827 39.56432224 15.3569827 39.56432224 23 35 C26.88426068 29.0963989 28.69593248 23.08585798 28 16 C26.69162749 10.39563273 24.49308151 6.72597004 20 3 C15.10557281 0.18010841 15.10557281 0.18010841 5 1 Z " fill="#1E1E1E" transform="translate(285,202)"/>
<path d="M0 0 C3.8053125 -0.12375 3.8053125 -0.12375 7.6875 -0.25 C8.87218872 -0.30462402 8.87218872 -0.30462402 10.08081055 -0.36035156 C13.90260839 -0.42027101 15.63709783 -0.23202728 18.95703125 1.890625 C22.08412963 5.11936902 22.19669427 7.38660357 22.5234375 11.83203125 C21.65418792 15.43228136 19.93187411 16.81338938 17 19 C14.0252855 19.58791544 11.20435534 19.47559667 8.1875 19.3125 C4.1346875 19.1578125 4.1346875 19.1578125 0 19 C0 12.73 0 6.46 0 0 Z " fill="#FBF6F6" transform="translate(107,222)"/>
<path d="M0 0 C0.66 0 1.32 0 2 0 C1.38722388 2.96175123 0.74627478 4.38058783 -1 7 C-1 7.99 -1 8.98 -1 10 C-2.2421875 12.0859375 -2.2421875 12.0859375 -3.875 14.375 C-5.59989537 16.79985291 -6.9234371 18.77437659 -7.8828125 21.6015625 C-9.33613723 24.72163726 -11.01641056 25.37540456 -14 27 C-15.40145558 28.28421319 -16.77467266 29.59962956 -18.125 30.9375 C-31.67665741 43.2499203 -51.02505517 54.9836953 -69 59 C-67.54951543 55.27395261 -65.88682534 54.05380721 -62.37890625 52.23046875 C-60.98369751 51.49159424 -60.98369751 51.49159424 -59.56030273 50.73779297 C-58.57102783 50.22619629 -57.58175293 49.71459961 -56.5625 49.1875 C-54.54291804 48.1132164 -52.52467012 47.03642084 -50.5078125 45.95703125 C-49.54520508 45.44350098 -48.58259766 44.9299707 -47.59082031 44.40087891 C-28.77037274 34.22450045 -9.75038239 19.50076479 0 0 Z " fill="#F0EBEB" transform="translate(196,94)"/>
<path d="M0 0 C3.5578125 -0.0928125 3.5578125 -0.0928125 7.1875 -0.1875 C8.29387817 -0.22846802 8.29387817 -0.22846802 9.42260742 -0.27026367 C13.827366 -0.32558339 16.5179177 0.29171377 20 3 C21.57898053 6.15796107 21.81928171 9.60670636 21 13 C19.02136729 15.70760266 17.49080703 17.69090702 14.08886719 18.39624023 C11.92775256 18.4920019 9.84801255 18.43702204 7.6875 18.3125 C5.150625 18.209375 2.61375 18.10625 0 18 C0 12.06 0 6.12 0 0 Z " fill="#FBF6F6" transform="translate(107,203)"/>
<path d="M0 0 C1.98 0 3.96 0 6 0 C6.47308594 1.06734375 6.94617188 2.1346875 7.43359375 3.234375 C8.10152104 4.73960173 8.76949349 6.24480842 9.4375 7.75 C9.79005859 8.54535156 10.14261719 9.34070313 10.50585938 10.16015625 C12.49584909 14.64198947 14.50261157 19.11541469 16.53515625 23.578125 C16.94644775 24.48336914 17.35773926 25.38861328 17.78149414 26.32128906 C18.58618076 28.09027756 19.39390388 29.85788833 20.20483398 31.62402344 C20.57036377 32.4287207 20.93589355 33.23341797 21.3125 34.0625 C21.80169922 35.13177734 21.80169922 35.13177734 22.30078125 36.22265625 C23 38 23 38 23 40 C21.35 40 19.7 40 18 40 C15.525 34.555 15.525 34.555 13 29 C11.35493161 31.19342452 9.71862763 33.39392132 8.125 35.625 C5.70217413 38.33286421 4.53757304 39.21387266 1 40 C-3.54690461 40.13852577 -6.88050153 39.84645006 -10.5625 37.0625 C-12.73764884 32.42848725 -13.21063505 29.01827753 -12 24 C-10.07936877 19.99263484 -7.60809687 16.31369164 -5.203125 12.5859375 C-2.64078137 8.56395035 -1.21290516 4.6090396 0 0 Z M1 3 C-0.76462683 6.08809695 -1 7.23312136 -1 11 C-1.66 11 -2.32 11 -3 11 C-3.81837442 12.41328129 -4.62946219 13.83078346 -5.4375 15.25 C-5.88996094 16.03890625 -6.34242188 16.8278125 -6.80859375 17.640625 C-9.03347632 22.04662196 -9.51866779 26.07265597 -9 31 C-7.01621635 33.91368224 -5.58551319 35.63558769 -2.0625 36.4453125 C1.6419845 36.65579457 3.63273643 36.21556775 6.875 34.3125 C9.17787165 31.80643379 10.22999858 30.31100612 11 27 C10.55431508 21.30513715 8.88295742 16.75741703 6.5625 11.625 C6.24990234 10.90183594 5.93730469 10.17867187 5.61523438 9.43359375 C4.10722824 5.52737714 4.10722824 5.52737714 1 3 Z " fill="#171717" transform="translate(151,202)"/>
<path d="M0 0 C6.42638818 3.71986541 11.45229218 10.0944539 15.51953125 16.1953125 C15.14453125 18.8828125 15.14453125 18.8828125 14.51953125 21.1953125 C11.69122038 21.25187872 10.08205386 21.26606231 7.51953125 20.1953125 C6 18.265625 6 18.265625 4.58203125 15.8828125 C1.69978785 11.08162191 -1.05198328 8.70265931 -6.48046875 7.1953125 C-10.90243799 6.63950121 -15.16359783 7.11609477 -19.48046875 8.1953125 C-19.81046875 7.5353125 -20.14046875 6.8753125 -20.48046875 6.1953125 C-20.89296875 6.6903125 -21.30546875 7.1853125 -21.73046875 7.6953125 C-23.48046875 9.1953125 -23.48046875 9.1953125 -27.48046875 9.1953125 C-27.48046875 8.2053125 -27.48046875 7.2153125 -27.48046875 6.1953125 C-19.68031096 -1.07301635 -10.46025737 -3.39340633 0 0 Z " fill="#1B1A1A" transform="translate(247.48046875,3.8046875)"/>
<path d="M0 0 C4.25905172 2.80474138 4.25905172 2.80474138 5.5625 4.6875 C5.75 7.375 5.75 7.375 5.5625 9.6875 C4.2425 10.0175 2.9225 10.3475 1.5625 10.6875 C1.2221875 9.0478125 1.2221875 9.0478125 0.875 7.375 C-0.11246884 3.66120266 -0.11246884 3.66120266 -2.625 1.75 C-6.20643303 0.39701419 -8.63016482 0.21993252 -12.4375 0.6875 C-17.25033786 3.14110361 -19.80338895 6.00463591 -22.4375 10.6875 C-23.20689681 12.91352615 -23.20689681 12.91352615 -23.4375 14.6875 C-22.7775 14.3575 -22.1175 14.0275 -21.4375 13.6875 C-16.34471398 13.43703511 -13.13498649 13.65615449 -8.4375 15.6875 C-5.59522269 15.88579842 -3.99005772 15.96377886 -1.4375 14.6875 C-1.8125 17.125 -1.8125 17.125 -2.4375 19.6875 C-5.33062696 21.13406348 -7.20316066 20.98697586 -10.4375 20.6875 C-12.50684964 19.74351381 -14.47302359 18.66809865 -16.46875 17.578125 C-19.17692997 16.35299596 -21.5147912 16.39522912 -24.4375 16.6875 C-23.03135785 24.13178197 -21.47294151 30.59509623 -15.4375 35.6875 C-10.36964847 37.37678384 -6.07610069 37.34924259 -1.1875 35.375 C1.18200443 33.92098592 3.4009675 32.43335318 5.5625 30.6875 C5.5625 33 5.5625 33 4.5625 35.6875 C-1.83436761 39.06039383 -8.60097066 40.05098965 -15.640625 38.06640625 C-21.14772441 35.70171662 -24.4165129 31.77822912 -27.4375 26.6875 C-29.18508686 21.44473943 -29.52881308 15.59929947 -27.56640625 10.36328125 C-21.70991883 0.28244226 -11.0839442 -4.23205142 0 0 Z " fill="#141414" transform="translate(275.4375,203.3125)"/>
<path d="M0 0 C-12.46872626 7.29987838 -24.94987746 14.57418112 -37.51171875 21.71289062 C-41.70047941 24.0977089 -45.87238505 26.50555323 -50.015625 28.96875 C-50.80461182 29.43764648 -51.59359863 29.90654297 -52.40649414 30.38964844 C-53.8898565 31.27429952 -55.37094938 32.16277101 -56.84936523 33.05566406 C-61.78240861 36 -61.78240861 36 -64 36 C-63.67 36.99 -63.34 37.98 -63 39 C-64.98 39.99 -66.96 40.98 -69 42 C-69 41.34 -69 40.68 -69 40 C-69.59538574 40.33845947 -70.19077148 40.67691895 -70.80419922 41.02563477 C-73.48985267 42.5462464 -76.18225312 44.05448828 -78.875 45.5625 C-79.81214844 46.09552734 -80.74929687 46.62855469 -81.71484375 47.17773438 C-82.61074219 47.67724609 -83.50664063 48.17675781 -84.4296875 48.69140625 C-85.25710449 49.15748291 -86.08452148 49.62355957 -86.93701172 50.10375977 C-87.95819092 50.54739868 -87.95819092 50.54739868 -89 51 C-89.66 50.67 -90.32 50.34 -91 50 C-90.195625 49.566875 -89.39125 49.13375 -88.5625 48.6875 C-85.72153646 47.19525998 -85.72153646 47.19525998 -85 44 C-82.83300781 42.56469727 -82.83300781 42.56469727 -79.953125 41.06640625 C-78.8916626 40.50638916 -77.8302002 39.94637207 -76.73657227 39.36938477 C-75.58600342 38.77311279 -74.43543457 38.17684082 -73.25 37.5625 C-70.84504207 36.29659181 -68.44401641 35.02330578 -66.04296875 33.75 C-65.43940048 33.43096207 -64.83583221 33.11192413 -64.213974 32.78321838 C-58.93258366 29.98453176 -53.73609338 27.05458709 -48.5625 24.0625 C-39.14736877 18.62941218 -29.65664182 13.33905798 -20.14672852 8.07446289 C-19.05932373 7.47239014 -17.97191895 6.87031738 -16.8515625 6.25 C-15.8296582 5.68796875 -14.80775391 5.1259375 -13.75488281 4.546875 C-11.44884842 3.25202974 -9.20742156 1.89346436 -6.9609375 0.5 C-3.72091073 -1.14138559 -3.244513 -1.06142798 0 0 Z " fill="#555454" transform="translate(133,168)"/>
<path d="M0 0 C3.526875 -0.061875 7.05375 -0.12375 10.6875 -0.1875 C12.342052 -0.22846802 12.342052 -0.22846802 14.0300293 -0.27026367 C22.92811586 -0.34595397 22.92811586 -0.34595397 27 3 C27.8971875 3.61875 27.8971875 3.61875 28.8125 4.25 C30.78029425 7.14990732 30.35154015 9.60177855 30 13 C28.17671302 17.22234879 26.14608787 19.08516205 22 21 C18.88278688 21.35560882 15.81952753 21.28316243 12.6875 21.1875 C9.820625 21.125625 6.95375 21.06375 4 21 C4 27.27 4 33.54 4 40 C2.68 40 1.36 40 0 40 C0 26.8 0 13.6 0 0 Z M4 1 C4 7.27 4 13.54 4 20 C6.536875 20.0825 9.07375 20.165 11.6875 20.25 C12.47729248 20.28641602 13.26708496 20.32283203 14.08081055 20.36035156 C17.79889241 20.41864492 19.66643901 20.19634212 22.953125 18.26171875 C25.7259501 15.19785284 25.96015864 13.19726854 26.2109375 9.19140625 C25.88957522 5.85280918 24.42147504 4.21392004 22 2 C18.81453711 0.40726856 15.36800652 0.89858167 11.875 0.9375 C7.976875 0.9684375 7.976875 0.9684375 4 1 Z " fill="#020202" transform="translate(212,202)"/>
<path d="M0 0 C-1 3 -1 3 -2.97998047 4.26757812 C-3.85025879 4.68458984 -4.72053711 5.10160156 -5.6171875 5.53125 C-7.09554077 6.244021 -7.09554077 6.244021 -8.60375977 6.97119141 C-9.68326904 7.47569824 -10.76277832 7.98020508 -11.875 8.5 C-12.99253662 9.02899902 -14.11007324 9.55799805 -15.26147461 10.10302734 C-26.54713224 15.37631743 -38.05988138 20.03361571 -49.62939453 24.64013672 C-53.07827911 26.03158153 -56.50770792 27.46306904 -59.93359375 28.91015625 C-61.03823975 29.37663574 -62.14288574 29.84311523 -63.28100586 30.32373047 C-65.38109936 31.21346291 -67.47964939 32.10684996 -69.57641602 33.00439453 C-70.51026123 33.39868652 -71.44410645 33.79297852 -72.40625 34.19921875 C-73.22416016 34.54815186 -74.04207031 34.89708496 -74.88476562 35.2565918 C-77 36 -77 36 -80 36 C-80 35.34 -80 34.68 -80 34 C-62.82355282 25.66641377 -45.62960806 17.76110068 -27.72045898 11.12207031 C-20.56585661 8.4568681 -13.63709484 5.54525009 -6.77427673 2.20910645 C-2.19669525 0 -2.19669525 0 0 0 Z " fill="#141414" transform="translate(145,139)"/>
<path d="M0 0 C1.00063477 0.19734741 1.00063477 0.19734741 2.02148438 0.39868164 C5.35299437 1.3009003 7.3875708 2.19082158 9.50317383 4.98608398 C10.92145331 7.54906752 12.16304424 10.14587091 13.375 12.8125 C17.83807163 21.94519477 22.68282241 30.04656986 29 38 C29.70382812 38.886875 30.40765625 39.77375 31.1328125 40.6875 C39.62660334 50.71706852 50.50316726 58.72177567 62 65 C61.01 65.495 61.01 65.495 60 66 C57.6060706 64.8367095 55.39448683 63.62549758 53.125 62.25 C52.45533203 61.84604004 51.78566406 61.44208008 51.09570312 61.02587891 C44.28707412 56.77614347 38.68776273 51.6186106 33 46 C32.35804688 45.43023437 31.71609375 44.86046875 31.0546875 44.2734375 C20.04096272 34.28424526 12.99204308 19.3590719 7 6 C7 5.34 7 4.68 7 4 C-1.22651601 1.71182998 -8.92811714 0.70008319 -17.4375 0.6875 C-18.27700195 0.68234375 -19.11650391 0.6771875 -19.98144531 0.671875 C-24.99643086 0.72779678 -29.18421757 1.46688574 -34 3 C-35.19625 3.0825 -36.3925 3.165 -37.625 3.25 C-42.14165397 4.25370088 -43.34854802 6.3174278 -46 10 C-46.98290968 11.01680311 -47.97334787 12.02738219 -49 13 C-47.71724404 7.98559033 -45.96065786 5.3305532 -42 2 C-29.98036496 -4.86836288 -13.11028743 -2.76395011 0 0 Z " fill="#2C2C2C" transform="translate(253,77)"/>
<path d="M0 0 C0.33 0 0.66 0 1 0 C1.02689216 1.47906892 1.04634621 2.95827483 1.0625 4.4375 C1.07410156 5.26121094 1.08570313 6.08492187 1.09765625 6.93359375 C1 9 1 9 0 10 C-1.32892039 10.11332736 -2.66368566 10.15948804 -3.99731445 10.17700195 C-4.84522049 10.18983719 -5.69312653 10.20267242 -6.56672668 10.21589661 C-7.95102119 10.22697701 -7.95102119 10.22697701 -9.36328125 10.23828125 C-10.30680954 10.246353 -11.25033783 10.25442474 -12.22245789 10.26274109 C-14.22405143 10.27659992 -16.2256688 10.28731399 -18.22729492 10.29516602 C-21.28935593 10.31236997 -24.3503351 10.35623872 -27.41210938 10.40039062 C-29.3541587 10.41051783 -31.29621724 10.41903385 -33.23828125 10.42578125 C-34.61346672 10.45204338 -34.61346672 10.45204338 -36.01643372 10.47883606 C-42.41140309 10.45701458 -42.41140309 10.45701458 -45.61010742 7.97338867 C-46.06877197 7.32217041 -46.52743652 6.67095215 -47 6 C-46.67 5.01 -46.34 4.02 -46 3 C-45.33967773 3.06566162 -44.67935547 3.13132324 -43.99902344 3.19897461 C-34.7549599 4.04949718 -25.52485986 4.32320549 -16.25 4.5625 C-14.66665829 4.60581478 -13.08332485 4.64943256 -11.5 4.69335938 C-7.66675271 4.79905873 -3.83341776 4.9006837 0 5 C0 3.35 0 1.7 0 0 Z " fill="#1F1F1F" transform="translate(93,217)"/>
<path d="M0 0 C0 3 0 3 -1.23461914 4.58911133 C-5.74242921 8.94748423 -10.4435063 12.89817805 -15.4375 16.6875 C-16.14970703 17.24244141 -16.86191406 17.79738281 -17.59570312 18.36914062 C-24.03326086 23.28647582 -30.32530177 26.46434939 -38 29 C-41.21631866 30.39574654 -44.38532635 31.89270407 -47.5625 33.375 C-60.05534639 39.13402262 -72.75422574 44.35052472 -85.4921875 49.53710938 C-87.97369803 50.57199322 -90.43048728 51.62912369 -92.8828125 52.72851562 C-93.83788696 53.15266754 -93.83788696 53.15266754 -94.81225586 53.58538818 C-96.59042136 54.3785713 -98.3637239 55.18263007 -100.13671875 55.98730469 C-103 57 -103 57 -106 56 C-101.81578234 54.09688469 -97.62794105 52.20186724 -93.4375 50.3125 C-92.79551666 50.02299469 -92.15353333 49.73348938 -91.49209595 49.43521118 C-81.94961747 45.14010071 -72.34821689 41.01537941 -62.67971802 37.01266479 C-40.36482232 27.76996838 -16.83993281 17.96259499 0 0 Z " fill="#262525" transform="translate(184,118)"/>
<path d="M0 0 C1.65 0 3.3 0 5 0 C9.84935991 9.33298598 14.31152084 18.78836816 18.5 28.4375 C18.94520996 29.46238525 19.39041992 30.48727051 19.84912109 31.54321289 C23 38.86044619 23 38.86044619 23 40 C21.35 40 19.7 40 18 40 C16.83056841 37.54294958 15.66394232 35.0846517 14.5 32.625 C13.96511963 31.49578125 13.96511963 31.49578125 13.41943359 30.34375 C11.47668716 26.21828583 9.58080277 22.07832811 7.7578125 17.8984375 C7.40009766 17.07907715 7.04238281 16.2597168 6.67382812 15.41552734 C5.9819029 13.8219733 5.2955739 12.2259761 4.61523438 10.62744141 C3.13547855 6.60957188 3.13547855 6.60957188 0 4 C-0.103125 4.721875 -0.20625 5.44375 -0.3125 6.1875 C-1.05986932 9.24491993 -2.28045189 11.38329635 -4 14 C-4.33 13.34 -4.66 12.68 -5 12 C-4.26821134 9.92803369 -3.44100997 7.8891448 -2.5625 5.875 C-2.08941406 4.77929688 -1.61632812 3.68359375 -1.12890625 2.5546875 C-0.75636719 1.71164063 -0.38382812 0.86859375 0 0 Z " fill="#1A1A1A" transform="translate(344,202)"/>
<path d="M0 0 C13.53 0 27.06 0 41 0 C40.67 1.98 40.34 3.96 40 6 C35.35929747 6.02499343 30.71863539 6.04299677 26.07788086 6.05493164 C24.50398067 6.05991488 22.930085 6.0667039 21.35620117 6.07543945 C12.51396518 6.12323532 3.7949897 6.0673356 -5 5 C-2.64046906 2.64046906 -1.22104383 2.50858587 2 2 C1.34 1.34 0.68 0.68 0 0 Z " fill="#D9D5D5" transform="translate(53,216)"/>
<path d="M0 0 C15.09028342 -0.75346769 15.09028342 -0.75346769 21 4 C26.34166071 9.77476834 27.46376147 14.13847443 27.3125 21.890625 C26.6977064 28.00782132 24.59827703 32.92036724 19.9375 37 C15.39958069 40.08964719 12.20267718 40.11195117 6.8125 40.0625 C5.54019531 40.05347656 4.26789063 40.04445312 2.95703125 40.03515625 C1.49330078 40.01775391 1.49330078 40.01775391 0 40 C0 39.67 0 39.34 0 39 C1.08667969 38.94392578 1.08667969 38.94392578 2.1953125 38.88671875 C10.08017165 38.45677933 10.08017165 38.45677933 17 35 C20.84463592 29.05941741 22.69779472 23.10481901 22 16 C20.69395555 10.40560489 18.49938539 6.71199295 14 3 C10.99221479 1.99740493 8.46179353 1.69685358 5.3125 1.4375 C4.31863281 1.35371094 3.32476562 1.26992187 2.30078125 1.18359375 C1.16189453 1.09271484 1.16189453 1.09271484 0 1 C0 0.67 0 0.34 0 0 Z " fill="#151515" transform="translate(290,202)"/>
<path d="M0 0 C-1.62439672 5.05367867 -3.64727781 4.9413016 -9 8 C9.315 8.495 9.315 8.495 28 9 C28 9.33 28 9.66 28 10 C26.92105469 10.01981934 25.84210938 10.03963867 24.73046875 10.06005859 C20.69720567 10.1365856 16.6642814 10.22522737 12.63134766 10.31738281 C10.89150724 10.35547915 9.15159324 10.39036447 7.41162109 10.421875 C4.89914795 10.46794901 2.387173 10.5258695 -0.125 10.5859375 C-1.27705933 10.60326431 -1.27705933 10.60326431 -2.45239258 10.62094116 C-7.57303517 10.7584048 -12.06779378 11.60547741 -17 13 C-14.03 13.495 -14.03 13.495 -11 14 C-11 14.33 -11 14.66 -11 15 C-12.98 15.33 -14.96 15.66 -17 16 C-13.7 16.33 -10.4 16.66 -7 17 C-7 17.33 -7 17.66 -7 18 C-7.96824707 18.03758423 -7.96824707 18.03758423 -8.95605469 18.07592773 C-11.88755894 18.19214433 -14.81876217 18.31475442 -17.75 18.4375 C-18.76578125 18.47681641 -19.7815625 18.51613281 -20.828125 18.55664062 C-21.8078125 18.59853516 -22.7875 18.64042969 -23.796875 18.68359375 C-25.14797363 18.73858032 -25.14797363 18.73858032 -26.52636719 18.79467773 C-28.79596339 18.98306407 -30.81562887 19.37366501 -33 20 C-33 19.01 -33 18.02 -33 17 C-32.23856689 16.59160889 -31.47713379 16.18321777 -30.69262695 15.76245117 C-27.8499795 14.23705948 -25.00792513 12.71056995 -22.16625977 11.18334961 C-20.93960601 10.52438469 -19.71272137 9.86584937 -18.4855957 9.20776367 C-16.71504063 8.25814806 -14.94540184 7.30682466 -13.17578125 6.35546875 C-12.11270752 5.78465576 -11.04963379 5.21384277 -9.9543457 4.62573242 C-8.02181564 3.56228992 -6.11437149 2.45158224 -4.23901367 1.2902832 C-2 0 -2 0 0 0 Z " fill="#030303" transform="translate(64,208)"/>
<path d="M0 0 C0.99 0.99 0.99 0.99 2 2 C0.71186658 2.83878455 -0.58063256 3.67086783 -1.875 4.5 C-2.59429687 4.9640625 -3.31359375 5.428125 -4.0546875 5.90625 C-6 7 -6 7 -8 7 C-8 8.32 -8 9.64 -8 11 C-8.62753174 11.33620361 -9.25506348 11.67240723 -9.90161133 12.01879883 C-23.74398901 19.44620086 -37.45909942 27.03682035 -51 35 C-52.61572658 35.94558397 -54.23161322 36.89089447 -55.84765625 37.8359375 C-57.398628 38.74446654 -58.94941648 39.65330853 -60.5 40.5625 C-61.212771 40.98039795 -61.92554199 41.3982959 -62.65991211 41.82885742 C-65.48751233 43.49318907 -68.26922673 45.17948449 -71 47 C-71.99 47 -72.98 47 -74 47 C-74 46.34 -74 45.68 -74 45 C-72.85144531 44.3709375 -71.70289062 43.741875 -70.51953125 43.09375 C-60.1103566 37.37505449 -60.1103566 37.37505449 -49.9375 31.25 C-40.42117282 25.28855242 -30.52422933 19.96745627 -20.71191406 14.51367188 C-17.46085697 12.69907393 -14.2269334 10.85709558 -11 9 C-11.495 8.01 -11.495 8.01 -12 7 C-8.04 4.69 -4.08 2.38 0 0 Z " fill="#111111" transform="translate(143,159)"/>
<path d="M0 0 C2.3190918 -0.25537109 2.3190918 -0.25537109 5 0 C6.57739258 1.71240234 6.57739258 1.71240234 7.89453125 4.0859375 C8.37470703 4.93414062 8.85488281 5.78234375 9.34960938 6.65625 C9.83236328 7.5534375 10.31511719 8.450625 10.8125 9.375 C11.56563477 10.70917969 11.56563477 10.70917969 12.33398438 12.0703125 C16 18.6541773 16 18.6541773 16 21 C16.66 21 17.32 21 18 21 C17.67 27.27 17.34 33.54 17 40 C15.68 40 14.36 40 13 40 C13.06703125 39.01644531 13.1340625 38.03289062 13.203125 37.01953125 C13.53810048 23.76453515 8.1953302 14.78660679 1.08569336 3.88500977 C0 2 0 2 0 0 Z " fill="#0A0A0A" transform="translate(178,202)"/>
<path d="M0 0 C14.004248 1.10559853 29.91589996 13.87886176 39.22265625 23.79296875 C41.98052754 27.21757816 44.4743328 30.85264032 46 35 C45.505 35.99 45.505 35.99 45 37 C44.48953125 36.32195312 43.9790625 35.64390625 43.453125 34.9453125 C32.10821431 20.42221761 17.45267483 11.21376678 1.6953125 2.09375 C1.13585937 1.7328125 0.57640625 1.371875 0 1 C0 0.67 0 0.34 0 0 Z " fill="#ECE8E8" transform="translate(414,183)"/>
<path d="M0 0 C1.32 0 2.64 0 4 0 C4 13.2 4 26.4 4 40 C2.68 40 1.36 40 0 40 C0 26.8 0 13.6 0 0 Z " fill="#070707" transform="translate(322,202)"/>
<path d="M0 0 C1.32 0 2.64 0 4 0 C4 13.2 4 26.4 4 40 C2.68 40 1.36 40 0 40 C0 26.8 0 13.6 0 0 Z " fill="#060606" transform="translate(103,202)"/>
<path d="M0 0 C3.51136182 3.45472695 6.83919905 7.01426879 10.125 10.6875 C19.12152064 20.56719891 28.86823893 28.67321291 40 36 C39.67 36.99 39.34 37.98 39 39 C30.25178586 33.66787524 22.37517577 28.18210834 15 21 C13.93845703 20.01386719 13.93845703 20.01386719 12.85546875 19.0078125 C7.85296981 14.24443874 3.42489705 9.02567825 0 3 C0 2.01 0 1.02 0 0 Z " fill="#121212" transform="translate(276,98)"/>
<path d="M0 0 C3.4375 0.9375 3.4375 0.9375 5.4375 2.0625 C7.10049961 5.18062427 6.28059589 7.62533759 5.4375 10.9375 C1.94625983 13.26499345 0.54527749 13.44049316 -3.5625 12.9375 C-6.3537125 10.95427007 -7.38847224 9.80763879 -8.0625 6.4375 C-7.07618275 1.50591377 -4.97611385 -0.08730024 0 0 Z " fill="#F7F3EE" transform="translate(192.5625,253.0625)"/>
<path d="M0 0 C0.33 0.66 0.66 1.32 1 2 C0.525625 2.845625 0.05125 3.69125 -0.4375 4.5625 C-2.73213066 9.61068745 -2.97832938 14.32589969 -1.0625 19.5625 C1.85814141 21.59809856 4.27052093 21.60739752 7.77734375 21.46484375 C11.27363824 20.73363278 12.85198681 18.73383497 15 16 C15.66 15.34 16.32 14.68 17 14 C16.49614177 18.40875955 15.0886933 20.82550966 12 24 C8.04310248 26.2458067 4.49478265 26.48158386 0 26 C-2.75329021 24.20437595 -4.52627461 22.94745078 -6 20 C-7.25083847 11.76663286 -4.73320927 6.6208582 0 0 Z " fill="#0F0F0F" transform="translate(338,216)"/>
<path d="M0 0 C-2.84066449 2.26843251 -5.62371024 3.88054947 -8.9296875 5.3828125 C-9.88351318 5.82334961 -10.83733887 6.26388672 -11.82006836 6.71777344 C-12.8281958 7.1821582 -13.83632324 7.64654297 -14.875 8.125 C-35.55925566 17.54650341 -35.55925566 17.54650341 -51.25 33.375 C-53 36 -53 36 -55.25 36.875 C-55.8275 36.91625 -56.405 36.9575 -57 37 C-55.71377817 33.2828189 -54.29525053 30.8858827 -51.5 28.125 C-50.58734375 27.20074219 -50.58734375 27.20074219 -49.65625 26.2578125 C-41.77257462 19.55668843 -32.99468578 14.62420993 -23.875 9.8125 C-22.74707031 9.20986328 -21.61914062 8.60722656 -20.45703125 7.98632812 C-18.28340047 6.8283295 -16.10615507 5.67708201 -13.92480469 4.53369141 C-12.11648201 3.58545409 -10.31376088 2.62633888 -8.52050781 1.64990234 C-3.33427964 -1.11142655 -3.33427964 -1.11142655 0 0 Z " fill="#202020" transform="translate(66,175)"/>
<path d="M0 0 C0 0.33 0 0.66 0 1 C-4.14010989 1.14574303 -8.28032347 1.28795587 -12.4206543 1.42724609 C-13.82172721 1.47483754 -15.22277072 1.52330459 -16.6237793 1.57275391 C-26.42101882 1.91775192 -36.19629043 2.06374669 -46 2 C-46 1.01 -46 0.02 -46 -1 C-30.84969032 -2.57405815 -14.93497062 -3.46318159 0 0 Z " fill="#E2DDDD" transform="translate(424,221)"/>
<path d="M0 0 C0.74701172 -0.02449219 1.49402344 -0.04898438 2.26367188 -0.07421875 C7.52181697 -0.1019175 10.57606034 0.82281446 14.6875 4.375 C16.15625 6.53125 16.15625 6.53125 17.1875 8.875 C17.58324219 9.74253906 17.97898437 10.61007813 18.38671875 11.50390625 C18.81597656 12.45136719 19.24523437 13.39882812 19.6875 14.375 C21.29871708 17.5247189 22.92449982 20.66663442 24.55078125 23.80859375 C25.6875 26.375 25.6875 26.375 25.6875 29.375 C22.99362968 27.03333181 21.97843824 24.93577677 20.796875 21.59375 C16.9677548 11.12067184 16.9677548 11.12067184 8.92236328 4.09912109 C2.27685274 2.4242878 -4.4835659 2.17098419 -11.3125 2.375 C-7.51652106 -0.15565263 -4.40044111 0.00747739 0 0 Z " fill="#292929" transform="translate(250.3125,69.625)"/>
<path d="M0 0 C3.58313265 1.31974161 6.87284862 2.97471851 10.21386719 4.81738281 C26.0975554 13.55531585 42.944782 20.86283408 60 27 C59.34 27.66 58.68 28.32 58 29 C38.33831922 20.94794291 19.01210447 12.50605224 0 3 C0 2.01 0 1.02 0 0 Z " fill="#232222" transform="translate(316,135)"/>
<path d="M0 0 C2.89640118 -0.08120751 5.79050912 -0.14059421 8.6875 -0.1875 C9.50412109 -0.21263672 10.32074219 -0.23777344 11.16210938 -0.26367188 C15.99432407 -0.32236274 19.02909305 -0.06218017 23 3 C23.8971875 3.61875 23.8971875 3.61875 24.8125 4.25 C26.78029425 7.14990732 26.35154015 9.60177855 26 13 C24.17671302 17.22234879 22.14608787 19.08516205 18 21 C14.88499614 21.35535679 11.81738742 21.28384223 8.6875 21.1875 C7.43356445 21.16719727 7.43356445 21.16719727 6.15429688 21.14648438 C4.10258502 21.11131217 2.05120725 21.05751048 0 21 C0 20.67 0 20.34 0 20 C1.66289062 19.94392578 1.66289062 19.94392578 3.359375 19.88671875 C4.82294974 19.82104552 6.28648991 19.75459865 7.75 19.6875 C8.84441406 19.65366211 8.84441406 19.65366211 9.9609375 19.61914062 C13.1237082 19.46100209 15.61853755 19.19772775 18.44921875 17.73046875 C20.31309451 15.65062753 20.728111 14.38488664 21.0625 11.625 C21.17722656 10.87476563 21.29195312 10.12453125 21.41015625 9.3515625 C20.75277919 5.58260067 19.01206894 4.2590517 16 2 C13.22314536 1.29098566 10.54422046 1.2104763 7.6875 1.1875 C6.94693359 1.16236328 6.20636719 1.13722656 5.44335938 1.11132812 C3.62947031 1.05281557 1.81468097 1.02345651 0 1 C0 0.67 0 0.34 0 0 Z " fill="#131212" transform="translate(216,202)"/>
<path d="M0 0 C1.82592773 0.05419922 1.82592773 0.05419922 4.18359375 0.3046875 C5.02857422 0.39363281 5.87355469 0.48257813 6.74414062 0.57421875 C8.07735352 0.72310547 8.07735352 0.72310547 9.4375 0.875 C10.32244141 0.96652344 11.20738281 1.05804688 12.11914062 1.15234375 C18.73587828 1.86793914 18.73587828 1.86793914 21 3 C23.88370333 3.07194869 26.74239664 3.09291708 29.625 3.0625 C30.82769531 3.05573242 30.82769531 3.05573242 32.0546875 3.04882812 C34.03649006 3.03703168 36.01825433 3.01909605 38 3 C33.33223691 7.66776309 22.63021674 6.06497419 16.3125 6.125 C10.82806361 6.08496762 5.43956254 5.68761964 0 5 C-0.5625 3.0625 -0.5625 3.0625 -1 1 C-0.67 0.67 -0.34 0.34 0 0 Z " fill="#5A5858" transform="translate(47,220)"/>
<path d="M0 0 C-5.86366876 3.43638604 -11.73204589 6.86436538 -17.609375 10.27734375 C-21.42709805 12.49454242 -25.23097272 14.73077868 -29.015625 17.00390625 C-30.42688223 17.83627855 -31.83832438 18.66833746 -33.25 19.5 C-33.88550781 19.8911499 -34.52101563 20.2822998 -35.17578125 20.68530273 C-36.953125 21.71875 -36.953125 21.71875 -40 23 C-42.19042969 22.08007812 -42.19042969 22.08007812 -44 21 C-42.30810547 20.12601563 -42.30810547 20.12601563 -40.58203125 19.234375 C-38.99170101 18.40718465 -37.40190052 17.57897535 -35.8125 16.75 C-34.97130615 16.31196045 -34.1301123 15.8739209 -33.26342773 15.42260742 C-28.51327154 12.92539993 -23.83078378 10.34707148 -19.203125 7.62890625 C-18.26106201 7.07686523 -17.31899902 6.52482422 -16.34838867 5.95605469 C-14.51146913 4.87235104 -12.68069628 3.77815066 -10.85668945 2.67285156 C-9.59924927 1.93180176 -9.59924927 1.93180176 -8.31640625 1.17578125 C-7.57849854 0.73145752 -6.84059082 0.28713379 -6.08032227 -0.1706543 C-3.60428088 -1.15775823 -2.46174055 -0.90487288 0 0 Z " fill="#716F6F" transform="translate(133,168)"/>
<path d="M0 0 C0.66 0 1.32 0 2 0 C3.65625 2.265625 3.65625 2.265625 5.5 5.25 C6.1084375 6.22453125 6.716875 7.1990625 7.34375 8.203125 C7.8903125 9.12609375 8.436875 10.0490625 9 11 C9.39960938 11.6290625 9.79921875 12.258125 10.2109375 12.90625 C11.39084555 16.03709512 11.18659473 18.92388439 11.125 22.25 C11.10695312 23.51328125 11.08890625 24.7765625 11.0703125 26.078125 C11.04710937 27.04234375 11.02390625 28.0065625 11 29 C11.99 29.33 12.98 29.66 14 30 C9.05 30 4.1 30 -1 30 C-1 29.67 -1 29.34 -1 29 C1.64 28.34 4.28 27.68 7 27 C7.60849267 17.56836361 4.84134235 10.98821487 0 3 C0 2.01 0 1.02 0 0 Z " fill="#101010" transform="translate(228,41)"/>
<path d="M0 0 C0.66 0 1.32 0 2 0 C2 0.99 2 1.98 2 3 C3.2065625 2.89171875 3.2065625 2.89171875 4.4375 2.78125 C16.62281491 1.81925145 28.78323165 1.90134303 41 2 C41 2.33 41 2.66 41 3 C43.475 3.495 43.475 3.495 46 4 C46 4.33 46 4.66 46 5 C30.82 5 15.64 5 0 5 C0 3.35 0 1.7 0 0 Z " fill="#605E5E" transform="translate(376,220)"/>
<path d="M0 0 C0.33 0 0.66 0 1 0 C0.91878906 0.55945313 0.83757812 1.11890625 0.75390625 1.6953125 C-0.07627725 12.23356013 5.94433083 20.70996241 11.25 29.375 C15.94660734 37.08547301 17.50185618 42.92941415 17 52 C14.43751728 49.43751728 14.60116624 47.99684801 14.1875 44.4375 C13.24340672 38.33720496 11.34986523 34.12075752 8 29 C6.77020058 27.08373927 5.5410555 25.16705847 4.3125 23.25 C3.73113281 22.36828125 3.14976562 21.4865625 2.55078125 20.578125 C-0.17209259 16.05143297 -1.26700648 12.61052262 -1.1875 7.3125 C-1.18105469 6.35988281 -1.17460937 5.40726563 -1.16796875 4.42578125 C-1 2 -1 2 0 0 Z " fill="#DBD7D7" transform="translate(219,17)"/>
<path d="M0 0 C-1.24927728 3.74783185 -2.30867439 4.03417197 -5.69140625 5.91796875 C-7.10776367 6.71557617 -7.10776367 6.71557617 -8.55273438 7.52929688 C-9.54595703 8.07650391 -10.53917969 8.62371094 -11.5625 9.1875 C-12.55958984 9.74630859 -13.55667969 10.30511719 -14.58398438 10.88085938 C-17.05151461 12.26220405 -19.52351834 13.63478849 -22 15 C-22.33 13.68 -22.66 12.36 -23 11 C-21.33784732 9.66104368 -19.67036393 8.32869858 -18 7 C-17.38640625 6.505 -16.7728125 6.01 -16.140625 5.5 C-13.83135481 3.88182527 -11.61749897 2.85391346 -9 1.8125 C-8.154375 1.46832031 -7.30875 1.12414062 -6.4375 0.76953125 C-4 0 -4 0 0 0 Z " fill="#131313" transform="translate(198,132)"/>
<path d="M0 0 C-1 3 -1 3 -2.875 4 C-3.57625 4.33 -4.2775 4.66 -5 5 C-5.433125 5.45375 -5.86625 5.9075 -6.3125 6.375 C-9.09944543 9.05872523 -13.06570625 12 -17 12 C-17 13.32 -17 14.64 -17 16 C-17.99 16.33 -18.98 16.66 -20 17 C-20 16.34 -20 15.68 -20 15 C-21.98 15.66 -23.96 16.32 -26 17 C-26 15.68 -26 14.36 -26 13 C-25.45061768 12.71278076 -24.90123535 12.42556152 -24.33520508 12.12963867 C-21.82682556 10.81713603 -19.3196554 9.50233934 -16.8125 8.1875 C-15.94818359 7.73568359 -15.08386719 7.28386719 -14.19335938 6.81835938 C-10.74498971 5.00829561 -7.33692047 3.20567563 -4.01171875 1.17578125 C-2 0 -2 0 0 0 Z " fill="#282828" transform="translate(48,213)"/>
<path d="M0 0 C0.99 0.33 1.98 0.66 3 1 C-0.22129982 3.55052068 -3.60726054 5.55202556 -7.1875 7.5625 C-12.88469669 10.78228749 -18.5469572 14.05692697 -24.1875 17.375 C-24.91799561 17.80369385 -25.64849121 18.2323877 -26.40112305 18.67407227 C-27.43039917 19.28013306 -27.43039917 19.28013306 -28.48046875 19.8984375 C-29.08785889 20.25599121 -29.69524902 20.61354492 -30.32104492 20.98193359 C-31.90804235 21.94423973 -33.4557465 22.97049766 -35 24 C-35.99 24 -36.98 24 -38 24 C-38 23.34 -38 22.68 -38 22 C-36.85144531 21.3709375 -35.70289062 20.741875 -34.51953125 20.09375 C-24.40803951 14.53073683 -14.51457111 8.74398141 -4.75390625 2.58203125 C-2.875 1.4375 -2.875 1.4375 0 0 Z " fill="#161616" transform="translate(107,182)"/>
<path d="M0 0 C1.8515625 0.21875 1.8515625 0.21875 4 1 C5.2734375 2.96875 5.2734375 2.96875 6.375 5.5 C8.05369668 9.13199497 9.84031641 12.40185355 12.125 15.6875 C16.8558753 22.64395417 18.5151939 28.69142651 19 37 C17.515 37.495 17.515 37.495 16 38 C15.94005859 36.60201172 15.94005859 36.60201172 15.87890625 35.17578125 C14.98615952 24.27545387 11.71626072 18.56902229 5 10 C0 2.6146789 0 2.6146789 0 0 Z " fill="#1C1B1B" transform="translate(216,31)"/>
<path d="M0 0 C0.69738281 0.00451172 1.39476562 0.00902344 2.11328125 0.01367188 C3.82555803 0.0253998 5.53779033 0.04333347 7.25 0.0625 C6.92 0.7225 6.59 1.3825 6.25 2.0625 C3.9531093 2.50677848 1.6350754 2.8444046 -0.6875 3.125 C-5.37436326 3.56354656 -5.37436326 3.56354656 -9.75 5.0625 C-10.843125 5.124375 -11.93625 5.18625 -13.0625 5.25 C-17.8137236 6.29687978 -18.96096526 8.18884064 -21.75 12.0625 C-22.73290968 13.07930311 -23.72334787 14.08988219 -24.75 15.0625 C-23.46724404 10.04809033 -21.71065786 7.3930532 -17.75 4.0625 C-11.66161798 0.58342456 -6.93582138 -0.08522276 0 0 Z " fill="#1B1A1A" transform="translate(228.75,74.9375)"/>
<path d="M0 0 C3.53527389 0.03150868 5.99467159 0.77979042 9.25 2.1875 C12.09227731 2.38579842 13.69744228 2.46377886 16.25 1.1875 C15.875 3.625 15.875 3.625 15.25 6.1875 C12.35687304 7.63406348 10.48433934 7.48697586 7.25 7.1875 C4.46441817 6.0571966 1.87602254 4.64403882 -0.75 3.1875 C-2.08054011 2.5152759 -3.41312072 1.84702711 -4.75 1.1875 C-3.75 0.1875 -3.75 0.1875 0 0 Z " fill="#0E0E0E" transform="translate(257.75,216.8125)"/>
<path d="M0 0 C0 0.66 0 1.32 0 2 C1.98 2 3.96 2 6 2 C6 2.33 6 2.66 6 3 C5.40832031 3.17015625 4.81664062 3.3403125 4.20703125 3.515625 C-0.72881408 5.02939159 -3.98918818 6.67675592 -8 10 C-9.32 10 -10.64 10 -12 10 C-12 9.01 -12 8.02 -12 7 C-4.48780488 0 -4.48780488 0 0 0 Z " fill="#535252" transform="translate(232,3)"/>
<path d="M0 0 C0.33 0.66 0.66 1.32 1 2 C-0.06550516 4.25850666 -1.17813317 6.35216799 -2.4375 8.5 C-2.79714844 9.12277832 -3.15679687 9.74555664 -3.52734375 10.38720703 C-6.85074137 16.00553764 -10.72594469 21.06664893 -15 26 C-15 21.43863496 -12.20041058 18.93388078 -9.53125 15.375 C-7.72906252 13.05074318 -7.72906252 13.05074318 -8 10 C-6.6875 6.875 -6.6875 6.875 -5 4 C-4.01 3.67 -3.02 3.34 -2 3 C-1.34 2.01 -0.68 1.02 0 0 Z " fill="#262525" transform="translate(203,90)"/>
<path d="M0 0 C0 0.99 0 1.98 0 3 C-0.86625 3.37125 -0.86625 3.37125 -1.75 3.75 C-4.08070046 4.89947796 -4.08070046 4.89947796 -5.7890625 6.87109375 C-8.23387261 9.22519536 -10.64690055 10.69501472 -13.625 12.3125 C-15.06746094 13.11107422 -15.06746094 13.11107422 -16.5390625 13.92578125 C-17.35117187 14.28027344 -18.16328125 14.63476562 -19 15 C-19.66 14.67 -20.32 14.34 -21 14 C-20.195625 13.566875 -19.39125 13.13375 -18.5625 12.6875 C-15.72153646 11.19525998 -15.72153646 11.19525998 -15 8 C-12.49593417 6.485981 -10.04258901 5.12573083 -7.4375 3.8125 C-6.72658203 3.44447266 -6.01566406 3.07644531 -5.28320312 2.69726562 C-3.52659773 1.78948968 -1.76385756 0.89360293 0 0 Z " fill="#4F4E4E" transform="translate(63,204)"/>
<path d="M0 0 C4.23996231 0.57724977 7.82971289 1.58221827 11.765625 3.25 C12.82007813 3.6934375 13.87453125 4.136875 14.9609375 4.59375 C16.58902344 5.28984375 16.58902344 5.28984375 18.25 6 C19.35085938 6.4640625 20.45171875 6.928125 21.5859375 7.40625 C29.50992063 10.75496032 29.50992063 10.75496032 32 12 C31.67 12.99 31.34 13.98 31 15 C30.48727539 14.75354736 29.97455078 14.50709473 29.44628906 14.25317383 C19.72494129 9.58949546 10.02486859 4.98193383 0 1 C0 0.67 0 0.34 0 0 Z " fill="#262525" transform="translate(376,169)"/>
<path d="M0 0 C3 1 3 1 4.4296875 3.84375 C5.14511719 5.65359375 5.14511719 5.65359375 5.875 7.5 C8.20562815 13.2479025 10.81620778 18.6748962 14 24 C13.01 24 12.02 24 11 24 C9.15664797 20.56778191 7.32707091 17.12840873 5.5 13.6875 C4.97535156 12.71103516 4.45070313 11.73457031 3.91015625 10.72851562 C3.41386719 9.79072266 2.91757812 8.85292969 2.40625 7.88671875 C1.94541016 7.02264404 1.48457031 6.15856934 1.00976562 5.26831055 C0 3 0 3 0 0 Z " fill="#161616" transform="translate(263,74)"/>
<path d="M0 0 C7.48406924 4.54587909 13.66318707 10.00667786 20 16 C19.01 16.33 18.02 16.66 17 17 C16.34773438 16.40832031 15.69546875 15.81664062 15.0234375 15.20703125 C12.35669394 12.79594895 9.67880237 10.39766869 7 8 C6.39800781 7.44699219 5.79601562 6.89398438 5.17578125 6.32421875 C2.21515454 3.68996034 -0.01643486 2.35149104 -4 2 C-2.68 1.34 -1.36 0.68 0 0 Z " fill="#282828" transform="translate(434,196)"/>
<path d="M0 0 C0.57878906 0.37382812 1.15757812 0.74765625 1.75390625 1.1328125 C-1.74302022 3.90926668 -5.51255509 6.15520255 -9.37109375 8.3828125 C-10.00402344 8.75921875 -10.63695312 9.135625 -11.2890625 9.5234375 C-12.90608321 10.45725838 -14.57342978 11.30276873 -16.24609375 12.1328125 C-16.90609375 11.8028125 -17.56609375 11.4728125 -18.24609375 11.1328125 C-14.62657959 7.3227976 -10.51115392 4.21792801 -6.18359375 1.2578125 C-5.20712891 0.58105469 -5.20712891 0.58105469 -4.2109375 -0.109375 C-2.24609375 -0.8671875 -2.24609375 -0.8671875 0 0 Z " fill="#545252" transform="translate(170.24609375,144.8671875)"/>
<path d="M0 0 C3.4375 0.9375 3.4375 0.9375 5.4375 2.0625 C7.10049961 5.18062427 6.28059589 7.62533759 5.4375 10.9375 C1.94625983 13.26499345 0.54527749 13.44049316 -3.5625 12.9375 C-6.3537125 10.95427007 -7.38847224 9.80763879 -8.0625 6.4375 C-7.07618275 1.50591377 -4.97611385 -0.08730024 0 0 Z M-4.25 2.125 C-6.02280193 4.57315504 -6.00663964 5.97656909 -5.5625 8.9375 C-4.5625 10.9375 -4.5625 10.9375 -2.5625 11.9375 C1.27016292 11.79659916 1.27016292 11.79659916 4.4375 9.9375 C4.85452122 7.0217309 4.85452122 7.0217309 4.4375 3.9375 C2.7265789 1.96651574 2.7265789 1.96651574 0.4375 0.9375 C-2.49750458 0.6497533 -2.49750458 0.6497533 -4.25 2.125 Z " fill="#2A2837" transform="translate(192.5625,253.0625)"/>
<path d="M0 0 C-3.06790801 1.901176 -6.15632421 3.76610047 -9.25 5.625 C-10.55904297 6.43710938 -10.55904297 6.43710938 -11.89453125 7.265625 C-12.73886719 7.76835937 -13.58320312 8.27109375 -14.453125 8.7890625 C-15.22817383 9.26037598 -16.00322266 9.73168945 -16.80175781 10.21728516 C-19 11 -19 11 -21.28417969 10.13818359 C-21.85040039 9.76258301 -22.41662109 9.38698242 -23 9 C-20.25384196 7.51361733 -17.50245309 6.03718828 -14.75 4.5625 C-13.97269531 4.14162109 -13.19539063 3.72074219 -12.39453125 3.28710938 C-11.64042969 2.88427734 -10.88632813 2.48144531 -10.109375 2.06640625 C-9.41811523 1.69459229 -8.72685547 1.32277832 -8.01464844 0.93969727 C-2.89579937 -1.44789969 -2.89579937 -1.44789969 0 0 Z " fill="#908D8D" transform="translate(112,180)"/>
<path d="M0 0 C5.89126992 1.55033419 11.02060001 4.54911639 16 8 C16.33 8.66 16.66 9.32 17 10 C13.9168649 8.80100302 10.93720508 7.52299523 8 6 C8.33 6.66 8.66 7.32 9 8 C3.96014269 7.55530671 1.62365012 5.28656638 -2 2 C-1.34 1.34 -0.68 0.68 0 0 Z " fill="#282828" transform="translate(226,81)"/>
<path d="M0 0 C4.55315948 0.61811534 8.28459767 2.46765893 12.3125 4.5625 C13.28026367 5.0565332 13.28026367 5.0565332 14.26757812 5.56054688 C15.84785228 6.36824255 17.42432105 7.18337613 19 8 C18.67 8.66 18.34 9.32 18 10 C13.53202662 8.60121198 9.36177921 6.86369228 5.125 4.875 C3.97257812 4.33617187 2.82015625 3.79734375 1.6328125 3.2421875 C0.32957031 2.62730469 0.32957031 2.62730469 -1 2 C-0.67 1.34 -0.34 0.68 0 0 Z " fill="#171717" transform="translate(397,172)"/>
<path d="M0 0 C2.125 0.375 2.125 0.375 4 1 C5.125 5.75 5.125 5.75 4 8 C2.33388095 8.042721 0.66617115 8.04063832 -1 8 C-2 7 -2 7 -2.1875 4.5625 C-2 2 -2 2 0 0 Z " fill="#8D8991" transform="translate(276,258)"/>
<path d="M0 0 C3 1 3 1 5 3 C5.144375 3.66 5.28875 4.32 5.4375 5 C5.87458708 7.38640738 5.87458708 7.38640738 9 9 C8.278125 8.814375 7.55625 8.62875 6.8125 8.4375 C3.87173027 7.98004693 1.85896942 8.26483643 -1 9 C-1.09765625 2.84765625 -1.09765625 2.84765625 -1 1 C-0.67 0.67 -0.34 0.34 0 0 Z " fill="#A6A0A3" transform="translate(254,257)"/>
<path d="M0 0 C1.32 0 2.64 0 4 0 C2.3003494 4.73474097 -0.13659027 8.96167111 -2.625 13.3125 C-3.04523438 14.05306641 -3.46546875 14.79363281 -3.8984375 15.55664062 C-4.92948495 17.37269011 -5.96436046 19.18656533 -7 21 C-7.33 20.34 -7.66 19.68 -8 19 C-7.109375 16.6796875 -7.109375 16.6796875 -5.75 13.875 C-3.58961065 9.3074916 -1.70442118 4.75443802 0 0 Z " fill="#403F3F" transform="translate(204,202)"/>
<path d="M0 0 C0 0.99 0 1.98 0 3 C-2.58984375 4.71875 -2.58984375 4.71875 -5.9375 6.5 C-10.66184107 8.70288992 -10.66184107 8.70288992 -13 13 C-13.99 13.33 -14.98 13.66 -16 14 C-16 12.68 -16 11.36 -16 10 C-13.75 7.9375 -13.75 7.9375 -11 6 C-10.071875 5.2265625 -10.071875 5.2265625 -9.125 4.4375 C-6.23555583 2.482876 -3.23395749 1.30602129 0 0 Z " fill="#626060" transform="translate(191,133)"/>
<path d="M0 0 C0.66 0.33 1.32 0.66 2 1 C0.35 1.66 -1.3 2.32 -3 3 C-2.67 3.99 -2.34 4.98 -2 6 C-3.98 6.99 -5.96 7.98 -8 9 C-8 8.34 -8 7.68 -8 7 C-9.98 7.66 -11.96 8.32 -14 9 C-12.36587557 7.29159719 -11.13093906 6.06546953 -9 5 C-8.67 4.01 -8.34 3.02 -8 2 C-7.05125 1.855625 -6.1025 1.71125 -5.125 1.5625 C-2.1065506 1.17064601 -2.1065506 1.17064601 0 0 Z " fill="#787676" transform="translate(72,201)"/>
<path d="M0 0 C3.10096781 0.34455198 4.79937138 0.84817294 7.3125 2.75 C9.30929204 5.41238939 9.36116409 6.74952319 9 10 C7.68 10.33 6.36 10.66 5 11 C4.731875 9.9275 4.46375 8.855 4.1875 7.75 C3.13772173 4.43491072 2.25387672 2.56122354 0 0 Z " fill="#141313" transform="translate(272,203)"/>
<path d="M0 0 C-3.68100818 3.14823068 -7.83782734 4.82051175 -12.25 6.6875 C-12.99507812 7.00783203 -13.74015625 7.32816406 -14.5078125 7.65820312 C-16.33648991 8.44359663 -18.16797236 9.22245338 -20 10 C-20.33 9.34 -20.66 8.68 -21 8 C-18.0707161 6.46293927 -15.13042886 4.94824838 -12.1875 3.4375 C-11.35412109 2.99986328 -10.52074219 2.56222656 -9.66210938 2.11132812 C-8.45844727 1.49741211 -8.45844727 1.49741211 -7.23046875 0.87109375 C-6.49207764 0.48880615 -5.75368652 0.10651855 -4.99291992 -0.28735352 C-3 -1 -3 -1 0 0 Z " fill="#222121" transform="translate(66,175)"/>
<path d="M0 0 C1.34061543 0.30271961 2.67405895 0.63837971 4 1 C4.66 1 5.32 1 6 1 C8 1 10 1 12 1 C11.34 1.66 10.68 2.32 10 3 C9.35232207 5.57061311 9.35232207 5.57061311 9 8 C7.35 7.67 5.7 7.34 4 7 C3.87625 6.071875 3.87625 6.071875 3.75 5.125 C3.18741541 2.81562433 3.18741541 2.81562433 0.9375 1.75 C0.298125 1.5025 -0.34125 1.255 -1 1 C-0.67 0.67 -0.34 0.34 0 0 Z " fill="#7D6C73" transform="translate(260,258)"/>
<path d="M0 0 C0 0.66 0 1.32 0 2 C-0.58007812 1.95359375 -1.16015625 1.9071875 -1.7578125 1.859375 C-7.49773936 1.59416386 -10.37107344 2.31789933 -15 6 C-17.75 7.8125 -17.75 7.8125 -20 9 C-20.66 8.67 -21.32 8.34 -22 8 C-14.64558751 1.2602214 -9.98615212 -0.34903056 0 0 Z " fill="#363535" transform="translate(272,202)"/>
<path d="M0 0 C0 3 0 3 -1.1796875 4.54296875 C-6.17665472 9.39025723 -11.49798561 13.73787618 -17 18 C-17.33 17.01 -17.66 16.02 -18 15 C-16.80503906 14.12988281 -16.80503906 14.12988281 -15.5859375 13.2421875 C-10.01672022 9.13641418 -4.70891989 5.10132988 0 0 Z " fill="#403F3F" transform="translate(184,118)"/>
<path d="M0 0 C0.33 0 0.66 0 1 0 C1.01417969 0.67804687 1.02835938 1.35609375 1.04296875 2.0546875 C1.41971598 9.40634962 3.28210271 14.67545885 7 21 C6.01 21 5.02 21 4 21 C-0.65167868 14.6260735 -1.43586276 10.10398195 -0.39453125 2.30859375 C-0.26433594 1.54675781 -0.13414062 0.78492187 0 0 Z " fill="#363535" transform="translate(222,20)"/>
<path d="M0 0 C0.33 0 0.66 0 1 0 C0.91298828 0.89138672 0.91298828 0.89138672 0.82421875 1.80078125 C0.41807078 9.26229962 2.52445367 14.47093797 6 21 C5.01 21.33 4.02 21.66 3 22 C-0.69245336 15.32391246 -1.79371484 9.61185548 -1 2 C-0.67 1.34 -0.34 0.68 0 0 Z " fill="#CFCBCB" transform="translate(219,17)"/>
<path d="M0 0 C1.91911376 0.03826454 3.83688026 0.15618412 5.75 0.3125 C6.79671875 0.39113281 7.8434375 0.46976563 8.921875 0.55078125 C11.90609317 0.98629532 14.26447035 1.75888007 17 3 C17 3.33 17 3.66 17 4 C14.37438891 4.08074203 11.75124324 4.1403623 9.125 4.1875 C8.00544922 4.22520508 8.00544922 4.22520508 6.86328125 4.26367188 C4.6953125 4.29296875 4.6953125 4.29296875 1 4 C0.34 3.01 -0.32 2.02 -1 1 C-0.67 0.67 -0.34 0.34 0 0 Z " fill="#9B9898" transform="translate(47,220)"/>
<path d="M0 0 C0.33 1.32 0.66 2.64 1 4 C-3.82950631 7.08551792 -7.35386678 8.14444847 -13.0625 8.1875 C-14.34833984 8.20876953 -14.34833984 8.20876953 -15.66015625 8.23046875 C-18 8 -18 8 -21 6 C-20.20335937 6.03480469 -19.40671875 6.06960937 -18.5859375 6.10546875 C-11.55300767 6.28514214 -6.57609668 6.21848701 -1.125 1.3125 C-0.75375 0.879375 -0.3825 0.44625 0 0 Z " fill="#323131" transform="translate(280,234)"/>
<path d="M0 0 C0.66 0 1.32 0 2 0 C3.35517144 1.70129749 4.63522958 3.46285924 5.875 5.25 C8.36430051 8.82777792 10.82336791 12.00855274 14 15 C13.67 15.66 13.34 16.32 13 17 C3.04480652 7.42769857 3.04480652 7.42769857 0 2 C0 1.34 0 0.68 0 0 Z " fill="#1B1A1A" transform="translate(275,108)"/>
<path d="M0 0 C4.95 0 9.9 0 15 0 C14.67 0.66 14.34 1.32 14 2 C11.45058627 2.31241371 8.99638487 2.51303421 6.4375 2.625 C5.37112305 2.68300781 5.37112305 2.68300781 4.28320312 2.7421875 C2.52257575 2.83671783 0.76132272 2.91945817 -1 3 C-0.67 2.01 -0.34 1.02 0 0 Z " fill="#1B1A1A" transform="translate(221,75)"/>
<path d="M0 0 C1.32 0.33 2.64 0.66 4 1 C3.34 1 2.68 1 2 1 C1.7525 1.70125 1.505 2.4025 1.25 3.125 C-0.16088026 6.37002459 -1.97895398 9.10316737 -4 12 C-4.66 11.67 -5.32 11.34 -6 11 C-4.54955729 6.89041233 -2.48889248 3.56741255 0 0 Z " fill="#232222" transform="translate(194,93)"/>
<path d="M0 0 C1.32 0.66 2.64 1.32 4 2 C2.68 3.32 1.36 4.64 0 6 C0.99 6.66 1.98 7.32 3 8 C1.35 7.67 -0.3 7.34 -2 7 C-2.33 5.35 -2.66 3.7 -3 2 C-2.01 1.34 -1.02 0.68 0 0 Z " fill="#6C646E" transform="translate(233,258)"/>
<path d="M0 0 C0.66 0.33 1.32 0.66 2 1 C-0.45518735 2.50537035 -2.9138452 4.00444426 -5.375 5.5 C-6.07367188 5.92925781 -6.77234375 6.35851562 -7.4921875 6.80078125 C-12.7734375 10 -12.7734375 10 -15 10 C-15 9.34 -15 8.68 -15 8 C-12.54665445 6.63603538 -10.08808766 5.28365831 -7.625 3.9375 C-6.92632812 3.54755859 -6.22765625 3.15761719 -5.5078125 2.75585938 C-3.70389816 1.77584822 -1.85416518 0.88124929 0 0 Z " fill="#151515" transform="translate(44,184)"/>
<path d="M0 0 C0.66 0.66 1.32 1.32 2 2 C0.42652824 3.035969 -1.15921546 4.05331732 -2.75 5.0625 C-3.63171875 5.63097656 -4.5134375 6.19945312 -5.421875 6.78515625 C-8 8 -8 8 -12 7 C-8.04 4.69 -4.08 2.38 0 0 Z " fill="#3B3A3A" transform="translate(143,159)"/>
<path d="M0 0 C0.33 0.66 0.66 1.32 1 2 C0.54625 2.886875 0.0925 3.77375 -0.375 4.6875 C-2.10260562 8.20915762 -2.61211192 11.12111921 -3 15 C-3.99 14.67 -4.98 14.34 -6 14 C-5.57202798 8.29370646 -3.15654048 4.58921384 0 0 Z " fill="#252525" transform="translate(338,216)"/>
<path d="M0 0 C0.99 0.495 0.99 0.495 2 1 C2.6328125 3.94140625 2.6328125 3.94140625 3.125 7.5625 C3.29257813 8.76003906 3.46015625 9.95757812 3.6328125 11.19140625 C3.75398437 12.11824219 3.87515625 13.04507813 4 14 C3.01 14.33 2.02 14.66 1 15 C0.67 10.05 0.34 5.1 0 0 Z " fill="#323131" transform="translate(231,54)"/>
<path d="M0 0 C0.33 0.66 0.66 1.32 1 2 C0.04545169 3.74451933 -0.91803675 5.48562364 -1.953125 7.18359375 C-3.13396188 9.11484489 -3.13396188 9.11484489 -4.0625 11.875 C-4.371875 12.57625 -4.68125 13.2775 -5 14 C-5.99 14.33 -6.98 14.66 -8 15 C-6.51194289 9.19657726 -3.40902445 4.82409121 0 0 Z " fill="#3C3B3B" transform="translate(147,213)"/>
<path d="M0 0 C1.88856668 2.83285002 3.50546052 5.6948727 5.125 8.6875 C5.66382813 9.68136719 6.20265625 10.67523438 6.7578125 11.69921875 C7.16773438 12.45847656 7.57765625 13.21773437 8 14 C7.01 14 6.02 14 5 14 C4.1533966 12.61217515 3.32324661 11.21430603 2.5 9.8125 C2.0359375 9.03519531 1.571875 8.25789063 1.09375 7.45703125 C-0.10729647 4.75896614 -0.20741043 2.9193018 0 0 Z " fill="#272626" transform="translate(269,84)"/>
<path d="M0 0 C-1.39655297 3.49873271 -2.71260484 4.70891831 -6.125 6.25 C-7.21167969 6.75273437 -7.21167969 6.75273437 -8.3203125 7.265625 C-9.15175781 7.62914062 -9.15175781 7.62914062 -10 8 C-9.62317841 5.54291673 -9.4083229 4.33157047 -7.44140625 2.734375 C-2.22222222 0 -2.22222222 0 0 0 Z " fill="#161616" transform="translate(64,208)"/>
<path d="M0 0 C-3.64859761 3.04049801 -7.7444533 4.96518762 -12 7 C-12 6.01 -12 5.02 -12 4 C-10.56988027 3.13353333 -9.13059381 2.28218171 -7.6875 1.4375 C-6.48673828 0.72400391 -6.48673828 0.72400391 -5.26171875 -0.00390625 C-3 -1 -3 -1 0 0 Z " fill="#181717" transform="translate(169,150)"/>
<path d="M0 0 C4.8274799 1.41292095 8.7162359 3.42974154 13 6 C12.34 6.66 11.68 7.32 11 8 C7.04 6.02 3.08 4.04 -1 2 C-0.67 1.34 -0.34 0.68 0 0 Z " fill="#222222" transform="translate(239,113)"/>
<path d="M0 0 C0.99 0.33 1.98 0.66 3 1 C5.14255793 0.61067144 5.14255793 0.61067144 7 0 C7 1.32 7 2.64 7 4 C6.01 4.33 5.02 4.66 4 5 C4 4.34 4 3.68 4 3 C2.02 3.66 0.04 4.32 -2 5 C-2 3.68 -2 2.36 -2 1 C-1.34 0.67 -0.68 0.34 0 0 Z " fill="#3D3B3B" transform="translate(24,225)"/>
<path d="M0 0 C-1.17808052 3.3529984 -2.19406612 5.7552529 -5 8 C-5.99 8.33 -6.98 8.66 -8 9 C-6.68994234 5.06982701 -4.75047804 0 0 0 Z " fill="#191818" transform="translate(17,203)"/>
<path d="M0 0 C0.66 0.99 1.32 1.98 2 3 C2.99 3.66 3.98 4.32 5 5 C0.05 5 -4.9 5 -10 5 C-10 4.67 -10 4.34 -10 4 C-8.71073008 3.63720544 -7.41846728 3.28503302 -6.125 2.9375 C-5.40570313 2.74027344 -4.68640625 2.54304688 -3.9453125 2.33984375 C-2 2 -2 2 0 3 C0 2.01 0 1.02 0 0 Z " fill="#020202" transform="translate(237,66)"/>
<path d="M0 0 C-1.11190476 3.33571429 -1.46320673 3.58417079 -4.375 5.1875 C-4.98085937 5.53167969 -5.58671875 5.87585938 -6.2109375 6.23046875 C-8 7 -8 7 -11 7 C-11 6.34 -11 5.68 -11 5 C-9.54462432 4.16151196 -8.08559627 3.32936066 -6.625 2.5 C-5.81289062 2.0359375 -5.00078125 1.571875 -4.1640625 1.09375 C-2 0 -2 0 0 0 Z " fill="#1C1C1C" transform="translate(80,199)"/>
<path d="M0 0 C0.66 0 1.32 0 2 0 C2 3.3 2 6.6 2 10 C1.01 10.495 1.01 10.495 0 11 C-1.125 3.375 -1.125 3.375 0 0 Z " fill="#080808" transform="translate(220,19)"/>
<path d="M0 0 C0 0.66 0 1.32 0 2 C-3.3 2.66 -6.6 3.32 -10 4 C-10.33 3.34 -10.66 2.68 -11 2 C-6.97107804 -0.96244261 -4.82799816 -1.2350693 0 0 Z " fill="#131313" transform="translate(239,112)"/>
<path d="M0 0 C2.33333333 2.33333333 4.66666667 4.66666667 7 7 C7 7.99 7 8.98 7 10 C2.95868733 8.65289578 2.09711566 6.61571666 0 3 C0 2.01 0 1.02 0 0 Z " fill="#191919" transform="translate(276,98)"/>
<path d="M0 0 C2.475 0.495 2.475 0.495 5 1 C5 2.65 5 4.3 5 6 C2.525 5.01 2.525 5.01 0 4 C0 2.68 0 1.36 0 0 Z " fill="#EDE9DF" transform="translate(259,260)"/>
<path d="M0 0 C0.66 0.33 1.32 0.66 2 1 C-2.29290618 5.75286041 -2.29290618 5.75286041 -6 6 C-6.66 5.34 -7.32 4.68 -8 4 C-6.71349294 3.30289269 -5.42059335 2.61757124 -4.125 1.9375 C-3.40570313 1.55464844 -2.68640625 1.17179688 -1.9453125 0.77734375 C-1.30335937 0.52082031 -0.66140625 0.26429688 0 0 Z " fill="#6A6868" transform="translate(97,185)"/>
<path d="M0 0 C-1.51671964 4.55015893 -5.16891053 6.50057264 -9 9 C-9 6 -9 6 -7.5390625 4.39453125 C-6.59160156 3.61142578 -6.59160156 3.61142578 -5.625 2.8125 C-4.68527344 2.01779297 -4.68527344 2.01779297 -3.7265625 1.20703125 C-2 0 -2 0 0 0 Z " fill="#262525" transform="translate(176,118)"/>
<path d="M0 0 C1 3 1 3 0.22265625 4.82421875 C-0.8515625 6.54947917 -1.92578125 8.27473958 -3 10 C-3.33 10 -3.66 10 -4 10 C-3.51171875 3.9453125 -3.51171875 3.9453125 -3 2 C-2.01 1.34 -1.02 0.68 0 0 Z " fill="#D0CCCC" transform="translate(14,211)"/>
<path d="M0 0 C3.9492568 0.55105909 7.34920174 1.38935371 11 3 C9.4375 4.25 9.4375 4.25 7 5 C4.42998985 3.93237266 2.3469597 2.53455057 0 1 C0 0.67 0 0.34 0 0 Z " fill="#181818" transform="translate(375,163)"/>
<path d="M0 0 C0.66 0.33 1.32 0.66 2 1 C2 3.64 2 6.28 2 9 C1.01 9 0.02 9 -1 9 C-1.09765625 2.84765625 -1.09765625 2.84765625 -1 1 C-0.67 0.67 -0.34 0.34 0 0 Z " fill="#5B5C7B" transform="translate(254,257)"/>
<path d="M0 0 C1.32 0 2.64 0 4 0 C2.92598892 2.91517292 2.22189824 4.77810176 0 7 C-0.93423645 3.98968256 -1.04449911 3.13349732 0 0 Z " fill="#0F0F0F" transform="translate(204,202)"/>
<path d="M0 0 C4.75 0.875 4.75 0.875 7 2 C6.67 2.99 6.34 3.98 6 5 C3.69 4.01 1.38 3.02 -1 2 C-0.67 1.34 -0.34 0.68 0 0 Z " fill="#1E1D1D" transform="translate(397,172)"/>
<path d="M0 0 C-2.35277269 2.72426311 -4.62496331 3.8141763 -8 5 C-7.8125 3.125 -7.8125 3.125 -7 1 C-2.66666667 -1.33333333 -2.66666667 -1.33333333 0 0 Z " fill="#0F0F0F" transform="translate(130,147)"/>
<path d="M0 0 C3.82097239 0.53069061 6.06171403 1.49701566 9 4 C7.3125 4.8125 7.3125 4.8125 5 5 C2.25 2.5625 2.25 2.5625 0 0 Z " fill="#161616" transform="translate(251,120)"/>
<path d="M0 0 C2.625 0.9375 2.625 0.9375 5 2 C4.34 3.32 3.68 4.64 3 6 C1.35 4.35 -0.3 2.7 -2 1 C-1.34 0.67 -0.68 0.34 0 0 Z " fill="#353434" transform="translate(226,81)"/>
<path d="M0 0 C1.24403138 2.48806276 1.06732288 4.23976186 1 7 C1 7.99 1 8.98 1 10 C-1.28773145 8.18887927 -1.95209822 7.39279457 -2.3125 4.4375 C-2 2 -2 2 0 0 Z " fill="#4C4350" transform="translate(187,255)"/>
<path d="M0 0 C-2.68841859 2.25245881 -4.64641875 3.88213958 -8 5 C-8.33 4.01 -8.66 3.02 -9 2 C-3.375 -1.125 -3.375 -1.125 0 0 Z " fill="#222121" transform="translate(206,129)"/>
<path d="M0 0 C0.99 0.33 1.98 0.66 3 1 C-2.28571429 7.42857143 -2.28571429 7.42857143 -5 10 C-3.84414715 6.08788267 -2.64465038 3.1254959 0 0 Z " fill="#313030" transform="translate(209,80)"/>
<path d="M0 0 C3 1 3 1 4.6875 4.0625 C5.120625 5.031875 5.55375 6.00125 6 7 C5.01 7 4.02 7 3 7 C0 2.77777778 0 2.77777778 0 0 Z " fill="#E7E2E2" transform="translate(223,38)"/>
<path d="M0 0 C1.32 0.66 2.64 1.32 4 2 C2.1875 3.5625 2.1875 3.5625 0 5 C-0.99 4.67 -1.98 4.34 -3 4 C-3 3.34 -3 2.68 -3 2 C-2.01 1.34 -1.02 0.68 0 0 Z " fill="#3A3939" transform="translate(168,144)"/>
<path d="M0 0 C0.99 0.33 1.98 0.66 3 1 C1.7260411 3.03833424 0.38938077 5.03852126 -1 7 C-1.66 7 -2.32 7 -3 7 C-1.125 2.25 -1.125 2.25 0 0 Z " fill="#D9D5D5" transform="translate(202,87)"/>
<path d="M0 0 C0.33 1.32 0.66 2.64 1 4 C0.01 4.66 -0.98 5.32 -2 6 C-2.99 5.67 -3.98 5.34 -5 5 C-3.35 3.35 -1.7 1.7 0 0 Z " fill="#161515" transform="translate(280,234)"/>
<path d="M0 0 C-0.33 0.99 -0.66 1.98 -1 3 C-3.5625 4.1875 -3.5625 4.1875 -6 5 C-6 4.01 -6 3.02 -6 2 C-2.25 0 -2.25 0 0 0 Z " fill="#060606" transform="translate(141,164)"/>
</svg>
