<?xml version="1.0" encoding="UTF-8"?>
<svg version="1.1" xmlns="http://www.w3.org/2000/svg" width="467" height="298">
<path d="M0 0 C154.11 0 308.22 0 467 0 C467 98.34 467 196.68 467 298 C312.89 298 158.78 298 0 298 C0 199.66 0 101.32 0 0 Z " fill="#FEFEFE" transform="translate(0,0)"/>
<path d="M0 0 C12.75610898 8.74653926 21.03863487 19.97395258 23.93359375 35.23828125 C23.93359375 36.88828125 23.93359375 38.53828125 23.93359375 40.23828125 C37.13359375 40.23828125 50.33359375 40.23828125 63.93359375 40.23828125 C63.93359375 40.56828125 63.93359375 40.89828125 63.93359375 41.23828125 C33.86037911 46.45932546 33.86037911 46.45932546 24.93359375 46.23828125 C25.07796875 46.77195313 25.22234375 47.305625 25.37109375 47.85546875 C26.83727786 53.74056888 27.16093872 59.18837901 26.93359375 65.23828125 C27.84109375 65.46515625 28.74859375 65.69203125 29.68359375 65.92578125 C33.4313319 67.43929089 34.73578143 68.90086254 36.93359375 72.23828125 C38.14799174 75.88147522 38.54490202 79.4467145 37.93359375 83.23828125 C36.94359375 84.55828125 35.95359375 85.87828125 34.93359375 87.23828125 C168.08859375 87.73328125 168.08859375 87.73328125 303.93359375 88.23828125 C303.93359375 125.52828125 303.93359375 162.81828125 303.93359375 201.23828125 C268.95359375 201.56828125 233.97359375 201.89828125 197.93359375 202.23828125 C197.93359375 202.89828125 197.93359375 203.55828125 197.93359375 204.23828125 C195.62359375 204.23828125 193.31359375 204.23828125 190.93359375 204.23828125 C190.93359375 203.24828125 190.93359375 202.25828125 190.93359375 201.23828125 C186.97359375 201.23828125 183.01359375 201.23828125 178.93359375 201.23828125 C179.26359375 202.22828125 179.59359375 203.21828125 179.93359375 204.23828125 C176.93359375 204.23828125 176.93359375 204.23828125 175.24609375 202.73828125 C174.81296875 202.24328125 174.37984375 201.74828125 173.93359375 201.23828125 C173.93359375 202.22828125 173.93359375 203.21828125 173.93359375 204.23828125 C173.27359375 204.23828125 172.61359375 204.23828125 171.93359375 204.23828125 C171.93359375 203.24828125 171.93359375 202.25828125 171.93359375 201.23828125 C170.16203721 201.35257522 168.39133146 201.48011162 166.62109375 201.61328125 C165.63496094 201.68289062 164.64882813 201.7525 163.6328125 201.82421875 C160.71830942 202.07693597 160.71830942 202.07693597 157.93359375 204.23828125 C155.37109375 204.48828125 155.37109375 204.48828125 152.93359375 204.23828125 C152.27359375 203.57828125 151.61359375 202.91828125 150.93359375 202.23828125 C148.56850014 201.93768182 146.18917494 201.74313113 143.80859375 201.61328125 C142.52726562 201.53851563 141.2459375 201.46375 139.92578125 201.38671875 C138.44464844 201.31324219 138.44464844 201.31324219 136.93359375 201.23828125 C136.93359375 202.22828125 136.93359375 203.21828125 136.93359375 204.23828125 C135.94359375 204.23828125 134.95359375 204.23828125 133.93359375 204.23828125 C133.93359375 203.24828125 133.93359375 202.25828125 133.93359375 201.23828125 C129.64359375 201.23828125 125.35359375 201.23828125 120.93359375 201.23828125 C120.93359375 201.89828125 120.93359375 202.55828125 120.93359375 203.23828125 C118.62359375 203.56828125 116.31359375 203.89828125 113.93359375 204.23828125 C113.60359375 203.24828125 113.27359375 202.25828125 112.93359375 201.23828125 C105.01359375 201.56828125 97.09359375 201.89828125 88.93359375 202.23828125 C88.93359375 202.89828125 88.93359375 203.55828125 88.93359375 204.23828125 C86.62359375 204.23828125 84.31359375 204.23828125 81.93359375 204.23828125 C81.93359375 203.24828125 81.93359375 202.25828125 81.93359375 201.23828125 C78.30359375 201.23828125 74.67359375 201.23828125 70.93359375 201.23828125 C70.93359375 202.22828125 70.93359375 203.21828125 70.93359375 204.23828125 C69.94359375 204.23828125 68.95359375 204.23828125 67.93359375 204.23828125 C67.60359375 203.57828125 67.27359375 202.91828125 66.93359375 202.23828125 C65.94359375 201.90828125 64.95359375 201.57828125 63.93359375 201.23828125 C63.93359375 202.22828125 63.93359375 203.21828125 63.93359375 204.23828125 C63.27359375 204.23828125 62.61359375 204.23828125 61.93359375 204.23828125 C61.93359375 203.24828125 61.93359375 202.25828125 61.93359375 201.23828125 C58.30359375 201.23828125 54.67359375 201.23828125 50.93359375 201.23828125 C50.93359375 202.22828125 50.93359375 203.21828125 50.93359375 204.23828125 C49.94359375 204.23828125 48.95359375 204.23828125 47.93359375 204.23828125 C47.93359375 203.24828125 47.93359375 202.25828125 47.93359375 201.23828125 C44.30359375 201.56828125 40.67359375 201.89828125 36.93359375 202.23828125 C36.93359375 202.89828125 36.93359375 203.55828125 36.93359375 204.23828125 C34.62359375 204.23828125 32.31359375 204.23828125 29.93359375 204.23828125 C29.93359375 203.24828125 29.93359375 202.25828125 29.93359375 201.23828125 C26.30359375 201.23828125 22.67359375 201.23828125 18.93359375 201.23828125 C18.93359375 202.22828125 18.93359375 203.21828125 18.93359375 204.23828125 C17.94359375 204.23828125 16.95359375 204.23828125 15.93359375 204.23828125 C15.60359375 203.57828125 15.27359375 202.91828125 14.93359375 202.23828125 C13.94359375 201.90828125 12.95359375 201.57828125 11.93359375 201.23828125 C11.93359375 202.22828125 11.93359375 203.21828125 11.93359375 204.23828125 C11.27359375 204.23828125 10.61359375 204.23828125 9.93359375 204.23828125 C9.93359375 203.24828125 9.93359375 202.25828125 9.93359375 201.23828125 C7.9954264 201.35246785 6.05804276 201.48001548 4.12109375 201.61328125 C3.04214844 201.68289062 1.96320313 201.7525 0.8515625 201.82421875 C-2.25266811 202.05023858 -2.25266811 202.05023858 -5.06640625 204.23828125 C-10.62196181 203.68272569 -10.62196181 203.68272569 -12.06640625 202.23828125 C-13.75349972 202.11528959 -15.44561528 202.06042867 -17.13696289 202.03295898 C-18.2331897 202.0127771 -19.3294165 201.99259521 -20.4588623 201.97180176 C-21.61970337 201.95532593 -22.78054443 201.9388501 -23.9765625 201.921875 C-25.03709839 201.90322388 -26.09763428 201.88457275 -27.19030762 201.86535645 C-31.16975197 201.79681629 -35.14933981 201.73682279 -39.12890625 201.67578125 C-48.01828125 201.53140625 -56.90765625 201.38703125 -66.06640625 201.23828125 C-66.06640625 167.24828125 -66.06640625 133.25828125 -66.06640625 98.23828125 C-67.38640625 97.57828125 -68.70640625 96.91828125 -70.06640625 96.23828125 C-72.92790598 91.84383523 -73.63387016 88.44003373 -73.06640625 83.23828125 C-71.66179928 80.36522153 -70.32129626 78.49317126 -68.06640625 76.23828125 C-67.78008322 71.26717704 -67.78008322 71.26717704 -68.57299805 66.40576172 C-69.11407526 64.02887725 -69.16470346 61.92249147 -69.12890625 59.48828125 C-69.11988281 58.6890625 -69.11085937 57.88984375 -69.1015625 57.06640625 C-69.08996094 56.463125 -69.07835937 55.85984375 -69.06640625 55.23828125 C-69.90300781 55.29886719 -70.73960938 55.35945313 -71.6015625 55.421875 C-74.73991406 55.64778071 -77.87843566 55.87111494 -81.01708984 56.09277344 C-83.02976186 56.23567938 -85.04222734 56.38148474 -87.0546875 56.52734375 C-93.40715029 56.97425068 -99.69785396 57.3682517 -106.06640625 57.23828125 C-105.76839111 58.18131104 -105.47037598 59.12434082 -105.16333008 60.09594727 C-103.81327132 64.83676504 -103.17821698 69.6391289 -102.515625 74.515625 C-102.3765271 75.5074176 -102.2374292 76.49921021 -102.09411621 77.52105713 C-101.7970464 79.64138568 -101.502092 81.7620115 -101.20907593 83.88290405 C-100.44303577 89.4247411 -99.66093545 94.96430637 -98.87890625 100.50390625 C-98.72431442 101.60095383 -98.5697226 102.6980014 -98.41044617 103.82829285 C-96.93238403 114.27409002 -95.32833666 124.69734446 -93.66479492 135.11499023 C-92.38263934 143.14551106 -91.1978918 151.18520009 -90.06640625 159.23828125 C-89.34281781 164.35544935 -88.61617474 169.47218488 -87.88916016 174.58886719 C-87.67349278 176.10865336 -87.45832578 177.62851062 -87.24365234 179.1484375 C-86.12011773 187.1001301 -84.95952299 195.03635246 -83.61132812 202.95361328 C-82.4910889 209.7061664 -81.48178032 216.47631052 -80.46191406 223.24462891 C-80.19982834 224.97989525 -79.93617555 226.7149257 -79.67089844 228.44970703 C-77.85044903 240.35490408 -76.30131214 252.25787805 -75.06640625 264.23828125 C-74.26650269 263.96902832 -74.26650269 263.96902832 -73.45043945 263.69433594 C-59.04650392 258.85333553 -44.60690814 254.12983223 -30.14788818 249.456604 C-20.41529124 246.31050777 -10.69760847 243.12774138 -1.00390625 239.86328125 C19.53640818 232.97221296 40.32021477 227.14274126 61.43359375 222.2890625 C64.81753856 221.5082111 68.18875531 220.68336346 71.55859375 219.84375 C72.99066162 219.49086914 72.99066162 219.49086914 74.45166016 219.13085938 C76.32530717 218.66845187 78.19745303 218.19990938 80.06787109 217.72460938 C81.34331787 217.41233398 81.34331787 217.41233398 82.64453125 217.09375 C83.40040527 216.90449951 84.1562793 216.71524902 84.93505859 216.52026367 C86.93359375 216.23828125 86.93359375 216.23828125 89.93359375 217.23828125 C88.79482788 217.68312866 88.79482788 217.68312866 87.63305664 218.13696289 C63.77640297 227.44715269 63.77640297 227.44715269 40.140625 237.30078125 C38.90227905 237.83119019 38.90227905 237.83119019 37.63891602 238.37231445 C36.07822397 239.04193623 34.51982633 239.71695087 32.96459961 240.39916992 C27.58921007 242.70409978 22.13418182 244.45899911 16.53417969 246.13793945 C12.63493348 247.32955206 8.76777757 248.5983619 4.90234375 249.89453125 C3.86578644 250.24170952 3.86578644 250.24170952 2.80828857 250.59590149 C0.68298326 251.30882327 -1.44180146 252.0232747 -3.56640625 252.73828125 C-12.17482988 255.63532796 -20.78466679 258.48395869 -29.47558594 261.12597656 C-38.4055896 263.89216481 -47.2769933 266.84792859 -56.16259766 269.75292969 C-58.80466986 270.61628962 -61.44723806 271.47811836 -64.08984375 272.33984375 C-64.88788422 272.60133209 -65.68592468 272.86282043 -66.50814819 273.13223267 C-79.10396701 277.23828125 -79.10396701 277.23828125 -84.06640625 277.23828125 C-84.14299973 276.69324448 -84.2195932 276.1482077 -84.29850769 275.58665466 C-88.60461844 244.52863146 -88.60461844 244.52863146 -93.44140625 213.55078125 C-96.04378393 197.89744041 -98.29437103 182.19219957 -100.56640625 166.48828125 C-100.66490246 165.80793068 -100.76339867 165.12758011 -100.86487961 164.42661285 C-102.8264891 150.8759021 -104.77839683 137.32384704 -106.6875 123.765625 C-106.80433136 122.93815765 -106.92116272 122.11069031 -107.04153442 121.25814819 C-107.55596928 117.61382748 -108.06730517 113.96915819 -108.5703125 110.32324219 C-109.37096961 104.61856029 -110.28081202 99.02793877 -111.60424805 93.42260742 C-112.52036739 89.09269736 -112.97496982 84.69158642 -113.50390625 80.30078125 C-114.52993266 72.07392705 -115.7095697 63.89893161 -117.15209961 55.73461914 C-117.65671289 52.85503615 -118.06640625 50.16913151 -118.06640625 47.23828125 C-102.38807991 46.02705242 -86.79789352 44.85920927 -71.06640625 45.23828125 C-71.12441406 44.1503125 -71.18242188 43.06234375 -71.2421875 41.94140625 C-71.7325833 28.76239514 -69.24018531 18.22519073 -60.06640625 8.23828125 C-43.62393135 -8.67849581 -20.44133089 -11.74400029 0 0 Z " fill="#FCFCFC" transform="translate(158.06640625,14.76171875)"/>
<path d="M0 0 C12.75610898 8.74653926 21.03863487 19.97395258 23.93359375 35.23828125 C23.93359375 36.88828125 23.93359375 38.53828125 23.93359375 40.23828125 C37.13359375 40.23828125 50.33359375 40.23828125 63.93359375 40.23828125 C63.93359375 40.56828125 63.93359375 40.89828125 63.93359375 41.23828125 C33.86037911 46.45932546 33.86037911 46.45932546 24.93359375 46.23828125 C25.07796875 46.77195313 25.22234375 47.305625 25.37109375 47.85546875 C26.83727786 53.74056888 27.16093872 59.18837901 26.93359375 65.23828125 C27.84109375 65.46515625 28.74859375 65.69203125 29.68359375 65.92578125 C33.4313319 67.43929089 34.73578143 68.90086254 36.93359375 72.23828125 C38.14799174 75.88147522 38.54490202 79.4467145 37.93359375 83.23828125 C36.94359375 84.55828125 35.95359375 85.87828125 34.93359375 87.23828125 C168.08859375 87.73328125 168.08859375 87.73328125 303.93359375 88.23828125 C303.93359375 125.52828125 303.93359375 162.81828125 303.93359375 201.23828125 C268.95359375 201.56828125 233.97359375 201.89828125 197.93359375 202.23828125 C197.93359375 202.89828125 197.93359375 203.55828125 197.93359375 204.23828125 C195.62359375 204.23828125 193.31359375 204.23828125 190.93359375 204.23828125 C190.93359375 203.24828125 190.93359375 202.25828125 190.93359375 201.23828125 C186.97359375 201.23828125 183.01359375 201.23828125 178.93359375 201.23828125 C179.26359375 202.22828125 179.59359375 203.21828125 179.93359375 204.23828125 C176.93359375 204.23828125 176.93359375 204.23828125 175.24609375 202.73828125 C174.81296875 202.24328125 174.37984375 201.74828125 173.93359375 201.23828125 C173.93359375 202.22828125 173.93359375 203.21828125 173.93359375 204.23828125 C173.27359375 204.23828125 172.61359375 204.23828125 171.93359375 204.23828125 C171.93359375 203.24828125 171.93359375 202.25828125 171.93359375 201.23828125 C170.16203721 201.35257522 168.39133146 201.48011162 166.62109375 201.61328125 C165.63496094 201.68289062 164.64882813 201.7525 163.6328125 201.82421875 C160.71830942 202.07693597 160.71830942 202.07693597 157.93359375 204.23828125 C155.37109375 204.48828125 155.37109375 204.48828125 152.93359375 204.23828125 C152.27359375 203.57828125 151.61359375 202.91828125 150.93359375 202.23828125 C148.56850014 201.93768182 146.18917494 201.74313113 143.80859375 201.61328125 C142.52726562 201.53851563 141.2459375 201.46375 139.92578125 201.38671875 C138.44464844 201.31324219 138.44464844 201.31324219 136.93359375 201.23828125 C136.93359375 202.22828125 136.93359375 203.21828125 136.93359375 204.23828125 C135.94359375 204.23828125 134.95359375 204.23828125 133.93359375 204.23828125 C133.93359375 203.24828125 133.93359375 202.25828125 133.93359375 201.23828125 C129.64359375 201.23828125 125.35359375 201.23828125 120.93359375 201.23828125 C120.93359375 201.89828125 120.93359375 202.55828125 120.93359375 203.23828125 C118.62359375 203.56828125 116.31359375 203.89828125 113.93359375 204.23828125 C113.60359375 203.24828125 113.27359375 202.25828125 112.93359375 201.23828125 C105.01359375 201.56828125 97.09359375 201.89828125 88.93359375 202.23828125 C88.93359375 202.89828125 88.93359375 203.55828125 88.93359375 204.23828125 C86.62359375 204.23828125 84.31359375 204.23828125 81.93359375 204.23828125 C81.93359375 203.24828125 81.93359375 202.25828125 81.93359375 201.23828125 C78.30359375 201.23828125 74.67359375 201.23828125 70.93359375 201.23828125 C70.93359375 202.22828125 70.93359375 203.21828125 70.93359375 204.23828125 C69.94359375 204.23828125 68.95359375 204.23828125 67.93359375 204.23828125 C67.60359375 203.57828125 67.27359375 202.91828125 66.93359375 202.23828125 C65.94359375 201.90828125 64.95359375 201.57828125 63.93359375 201.23828125 C63.93359375 202.22828125 63.93359375 203.21828125 63.93359375 204.23828125 C63.27359375 204.23828125 62.61359375 204.23828125 61.93359375 204.23828125 C61.93359375 203.24828125 61.93359375 202.25828125 61.93359375 201.23828125 C58.30359375 201.23828125 54.67359375 201.23828125 50.93359375 201.23828125 C50.93359375 202.22828125 50.93359375 203.21828125 50.93359375 204.23828125 C49.94359375 204.23828125 48.95359375 204.23828125 47.93359375 204.23828125 C47.93359375 203.24828125 47.93359375 202.25828125 47.93359375 201.23828125 C44.30359375 201.56828125 40.67359375 201.89828125 36.93359375 202.23828125 C36.93359375 202.89828125 36.93359375 203.55828125 36.93359375 204.23828125 C34.62359375 204.23828125 32.31359375 204.23828125 29.93359375 204.23828125 C29.93359375 203.24828125 29.93359375 202.25828125 29.93359375 201.23828125 C26.30359375 201.23828125 22.67359375 201.23828125 18.93359375 201.23828125 C18.93359375 202.22828125 18.93359375 203.21828125 18.93359375 204.23828125 C17.94359375 204.23828125 16.95359375 204.23828125 15.93359375 204.23828125 C15.60359375 203.57828125 15.27359375 202.91828125 14.93359375 202.23828125 C13.94359375 201.90828125 12.95359375 201.57828125 11.93359375 201.23828125 C11.93359375 202.22828125 11.93359375 203.21828125 11.93359375 204.23828125 C11.27359375 204.23828125 10.61359375 204.23828125 9.93359375 204.23828125 C9.93359375 203.24828125 9.93359375 202.25828125 9.93359375 201.23828125 C7.9954264 201.35246785 6.05804276 201.48001548 4.12109375 201.61328125 C3.04214844 201.68289062 1.96320313 201.7525 0.8515625 201.82421875 C-2.25266811 202.05023858 -2.25266811 202.05023858 -5.06640625 204.23828125 C-10.62196181 203.68272569 -10.62196181 203.68272569 -12.06640625 202.23828125 C-13.75349972 202.11528959 -15.44561528 202.06042867 -17.13696289 202.03295898 C-18.2331897 202.0127771 -19.3294165 201.99259521 -20.4588623 201.97180176 C-21.61970337 201.95532593 -22.78054443 201.9388501 -23.9765625 201.921875 C-25.03709839 201.90322388 -26.09763428 201.88457275 -27.19030762 201.86535645 C-31.16975197 201.79681629 -35.14933981 201.73682279 -39.12890625 201.67578125 C-48.01828125 201.53140625 -56.90765625 201.38703125 -66.06640625 201.23828125 C-66.06640625 167.24828125 -66.06640625 133.25828125 -66.06640625 98.23828125 C-67.38640625 97.57828125 -68.70640625 96.91828125 -70.06640625 96.23828125 C-72.92790598 91.84383523 -73.63387016 88.44003373 -73.06640625 83.23828125 C-71.66179928 80.36522153 -70.32129626 78.49317126 -68.06640625 76.23828125 C-67.78008322 71.26717704 -67.78008322 71.26717704 -68.57299805 66.40576172 C-69.11407526 64.02887725 -69.16470346 61.92249147 -69.12890625 59.48828125 C-69.11988281 58.6890625 -69.11085937 57.88984375 -69.1015625 57.06640625 C-69.08996094 56.463125 -69.07835937 55.85984375 -69.06640625 55.23828125 C-69.90300781 55.29886719 -70.73960938 55.35945313 -71.6015625 55.421875 C-74.73991406 55.64778071 -77.87843566 55.87111494 -81.01708984 56.09277344 C-83.02976186 56.23567938 -85.04222734 56.38148474 -87.0546875 56.52734375 C-93.40715029 56.97425068 -99.69785396 57.3682517 -106.06640625 57.23828125 C-105.76839111 58.18131104 -105.47037598 59.12434082 -105.16333008 60.09594727 C-103.81327132 64.83676504 -103.17821698 69.6391289 -102.515625 74.515625 C-102.3765271 75.5074176 -102.2374292 76.49921021 -102.09411621 77.52105713 C-101.7970464 79.64138568 -101.502092 81.7620115 -101.20907593 83.88290405 C-100.44303577 89.4247411 -99.66093545 94.96430637 -98.87890625 100.50390625 C-98.72431442 101.60095383 -98.5697226 102.6980014 -98.41044617 103.82829285 C-96.93238403 114.27409002 -95.32833666 124.69734446 -93.66479492 135.11499023 C-92.38263934 143.14551106 -91.1978918 151.18520009 -90.06640625 159.23828125 C-89.34281781 164.35544935 -88.61617474 169.47218488 -87.88916016 174.58886719 C-87.67349278 176.10865336 -87.45832578 177.62851062 -87.24365234 179.1484375 C-86.12011773 187.1001301 -84.95952299 195.03635246 -83.61132812 202.95361328 C-82.4910889 209.7061664 -81.48178032 216.47631052 -80.46191406 223.24462891 C-80.19982834 224.97989525 -79.93617555 226.7149257 -79.67089844 228.44970703 C-77.85044903 240.35490408 -76.30131214 252.25787805 -75.06640625 264.23828125 C-74.26650269 263.96902832 -74.26650269 263.96902832 -73.45043945 263.69433594 C-59.04650392 258.85333553 -44.60690814 254.12983223 -30.14788818 249.456604 C-20.41529124 246.31050777 -10.69760847 243.12774138 -1.00390625 239.86328125 C19.53640818 232.97221296 40.32021477 227.14274126 61.43359375 222.2890625 C64.81753856 221.5082111 68.18875531 220.68336346 71.55859375 219.84375 C72.99066162 219.49086914 72.99066162 219.49086914 74.45166016 219.13085938 C76.32530717 218.66845187 78.19745303 218.19990938 80.06787109 217.72460938 C81.34331787 217.41233398 81.34331787 217.41233398 82.64453125 217.09375 C83.40040527 216.90449951 84.1562793 216.71524902 84.93505859 216.52026367 C86.93359375 216.23828125 86.93359375 216.23828125 89.93359375 217.23828125 C88.79482788 217.68312866 88.79482788 217.68312866 87.63305664 218.13696289 C63.77640297 227.44715269 63.77640297 227.44715269 40.140625 237.30078125 C38.90227905 237.83119019 38.90227905 237.83119019 37.63891602 238.37231445 C36.07822397 239.04193623 34.51982633 239.71695087 32.96459961 240.39916992 C27.58921007 242.70409978 22.13418182 244.45899911 16.53417969 246.13793945 C12.63493348 247.32955206 8.76777757 248.5983619 4.90234375 249.89453125 C3.86578644 250.24170952 3.86578644 250.24170952 2.80828857 250.59590149 C0.68298326 251.30882327 -1.44180146 252.0232747 -3.56640625 252.73828125 C-12.17482988 255.63532796 -20.78466679 258.48395869 -29.47558594 261.12597656 C-38.4055896 263.89216481 -47.2769933 266.84792859 -56.16259766 269.75292969 C-58.80466986 270.61628962 -61.44723806 271.47811836 -64.08984375 272.33984375 C-64.88788422 272.60133209 -65.68592468 272.86282043 -66.50814819 273.13223267 C-79.10396701 277.23828125 -79.10396701 277.23828125 -84.06640625 277.23828125 C-84.14299973 276.69324448 -84.2195932 276.1482077 -84.29850769 275.58665466 C-88.60461844 244.52863146 -88.60461844 244.52863146 -93.44140625 213.55078125 C-96.04378393 197.89744041 -98.29437103 182.19219957 -100.56640625 166.48828125 C-100.66490246 165.80793068 -100.76339867 165.12758011 -100.86487961 164.42661285 C-102.8264891 150.8759021 -104.77839683 137.32384704 -106.6875 123.765625 C-106.80433136 122.93815765 -106.92116272 122.11069031 -107.04153442 121.25814819 C-107.55596928 117.61382748 -108.06730517 113.96915819 -108.5703125 110.32324219 C-109.37096961 104.61856029 -110.28081202 99.02793877 -111.60424805 93.42260742 C-112.52036739 89.09269736 -112.97496982 84.69158642 -113.50390625 80.30078125 C-114.52993266 72.07392705 -115.7095697 63.89893161 -117.15209961 55.73461914 C-117.65671289 52.85503615 -118.06640625 50.16913151 -118.06640625 47.23828125 C-102.38807991 46.02705242 -86.79789352 44.85920927 -71.06640625 45.23828125 C-71.12441406 44.1503125 -71.18242188 43.06234375 -71.2421875 41.94140625 C-71.7325833 28.76239514 -69.24018531 18.22519073 -60.06640625 8.23828125 C-43.62393135 -8.67849581 -20.44133089 -11.74400029 0 0 Z M-47.06640625 90.23828125 C-48.05640625 92.21828125 -49.04640625 94.19828125 -50.06640625 96.23828125 C-54.06640625 99.23828125 -54.06640625 99.23828125 -64.06640625 100.23828125 C-64.06640625 132.90828125 -64.06640625 165.57828125 -64.06640625 199.23828125 C-46.90640625 199.23828125 -29.74640625 199.23828125 -12.06640625 199.23828125 C-11.57140625 197.25828125 -11.57140625 197.25828125 -11.06640625 195.23828125 C-8.25390625 194.61328125 -8.25390625 194.61328125 -5.06640625 194.23828125 C-2.06640625 196.23828125 -2.06640625 196.23828125 -1.06640625 199.23828125 C2.56359375 199.23828125 6.19359375 199.23828125 9.93359375 199.23828125 C9.93359375 197.25828125 9.93359375 195.27828125 9.93359375 193.23828125 C11.91359375 194.88828125 13.89359375 196.53828125 15.93359375 198.23828125 C15.93359375 196.58828125 15.93359375 194.93828125 15.93359375 193.23828125 C16.92359375 193.23828125 17.91359375 193.23828125 18.93359375 193.23828125 C18.93359375 195.21828125 18.93359375 197.19828125 18.93359375 199.23828125 C22.56359375 199.23828125 26.19359375 199.23828125 29.93359375 199.23828125 C29.93359375 197.25828125 29.93359375 195.27828125 29.93359375 193.23828125 C30.92359375 193.23828125 31.91359375 193.23828125 32.93359375 193.23828125 C32.93359375 195.21828125 32.93359375 197.19828125 32.93359375 199.23828125 C37.88359375 199.23828125 42.83359375 199.23828125 47.93359375 199.23828125 C47.93359375 197.25828125 47.93359375 195.27828125 47.93359375 193.23828125 C48.59359375 193.23828125 49.25359375 193.23828125 49.93359375 193.23828125 C49.93359375 195.21828125 49.93359375 197.19828125 49.93359375 199.23828125 C53.89359375 199.23828125 57.85359375 199.23828125 61.93359375 199.23828125 C61.93359375 197.25828125 61.93359375 195.27828125 61.93359375 193.23828125 C63.91359375 194.88828125 65.89359375 196.53828125 67.93359375 198.23828125 C67.93359375 196.58828125 67.93359375 194.93828125 67.93359375 193.23828125 C68.92359375 193.23828125 69.91359375 193.23828125 70.93359375 193.23828125 C70.93359375 195.21828125 70.93359375 197.19828125 70.93359375 199.23828125 C74.56359375 199.23828125 78.19359375 199.23828125 81.93359375 199.23828125 C81.93359375 197.25828125 81.93359375 195.27828125 81.93359375 193.23828125 C84.24359375 193.23828125 86.55359375 193.23828125 88.93359375 193.23828125 C88.93359375 193.89828125 88.93359375 194.55828125 88.93359375 195.23828125 C87.61359375 195.23828125 86.29359375 195.23828125 84.93359375 195.23828125 C84.93359375 195.89828125 84.93359375 196.55828125 84.93359375 197.23828125 C86.25359375 197.23828125 87.57359375 197.23828125 88.93359375 197.23828125 C88.93359375 197.89828125 88.93359375 198.55828125 88.93359375 199.23828125 C97.18359375 199.23828125 105.43359375 199.23828125 113.93359375 199.23828125 C113.93359375 197.58828125 113.93359375 195.93828125 113.93359375 194.23828125 C115.58359375 194.23828125 117.23359375 194.23828125 118.93359375 194.23828125 C119.26359375 194.89828125 119.59359375 195.55828125 119.93359375 196.23828125 C118.28359375 195.90828125 116.63359375 195.57828125 114.93359375 195.23828125 C114.93359375 195.89828125 114.93359375 196.55828125 114.93359375 197.23828125 C119.15256241 199.28726412 122.58731521 199.45036122 127.24609375 199.36328125 C129.12748047 199.33621094 129.12748047 199.33621094 131.046875 199.30859375 C131.99949219 199.28539062 132.95210937 199.2621875 133.93359375 199.23828125 C133.93359375 197.91828125 133.93359375 196.59828125 133.93359375 195.23828125 C132.94359375 195.23828125 131.95359375 195.23828125 130.93359375 195.23828125 C130.93359375 194.57828125 130.93359375 193.91828125 130.93359375 193.23828125 C133.90359375 193.23828125 136.87359375 193.23828125 139.93359375 193.23828125 C139.93359375 193.89828125 139.93359375 194.55828125 139.93359375 195.23828125 C138.94359375 195.23828125 137.95359375 195.23828125 136.93359375 195.23828125 C136.93359375 196.55828125 136.93359375 197.87828125 136.93359375 199.23828125 C139.03600978 199.37324376 141.14088985 199.47025432 143.24609375 199.55078125 C144.41785156 199.60878906 145.58960938 199.66679687 146.796875 199.7265625 C147.83199219 199.56542969 148.86710938 199.40429688 149.93359375 199.23828125 C151.74258839 196.83142039 151.74258839 196.83142039 152.93359375 194.23828125 C155.43359375 193.61328125 155.43359375 193.61328125 157.93359375 194.23828125 C158.30484375 195.06328125 158.67609375 195.88828125 159.05859375 196.73828125 C159.67734375 197.56328125 160.29609375 198.38828125 160.93359375 199.23828125 C164.62935135 199.70505598 168.22658245 199.52149943 171.93359375 199.23828125 C171.93359375 197.25828125 171.93359375 195.27828125 171.93359375 193.23828125 C174.24359375 193.89828125 176.55359375 194.55828125 178.93359375 195.23828125 C179.26359375 196.55828125 179.59359375 197.87828125 179.93359375 199.23828125 C183.56359375 199.23828125 187.19359375 199.23828125 190.93359375 199.23828125 C190.93359375 197.25828125 190.93359375 195.27828125 190.93359375 193.23828125 C193.24359375 193.23828125 195.55359375 193.23828125 197.93359375 193.23828125 C197.93359375 193.89828125 197.93359375 194.55828125 197.93359375 195.23828125 C196.61359375 195.23828125 195.29359375 195.23828125 193.93359375 195.23828125 C193.93359375 195.89828125 193.93359375 196.55828125 193.93359375 197.23828125 C195.25359375 197.23828125 196.57359375 197.23828125 197.93359375 197.23828125 C197.93359375 197.89828125 197.93359375 198.55828125 197.93359375 199.23828125 C232.25359375 199.23828125 266.57359375 199.23828125 301.93359375 199.23828125 C301.93359375 163.26828125 301.93359375 127.29828125 301.93359375 90.23828125 C186.76359375 90.23828125 71.59359375 90.23828125 -47.06640625 90.23828125 Z " fill="#F03A62" transform="translate(158.06640625,14.76171875)"/>
<path d="M0 0 C1.63198853 1.15223694 1.63198853 1.15223694 3 3 C3.38095093 5.64964294 3.38095093 5.64964294 3.38818359 8.87670898 C3.39764008 10.08483749 3.40709656 11.292966 3.4168396 12.53770447 C3.40773056 14.49710716 3.40773056 14.49710716 3.3984375 16.49609375 C3.40045873 17.8498602 3.40337057 19.20362558 3.40713501 20.55738831 C3.41155765 23.3945655 3.40513066 26.23145928 3.39111328 29.06860352 C3.37403728 32.7015237 3.38385215 36.3337782 3.40183067 39.96667385 C3.41268437 42.76256807 3.40921472 45.55830516 3.4014473 48.35420418 C3.39847805 50.34392352 3.40757536 52.33364901 3.4168396 54.323349 C3.40265488 56.14027 3.40265488 56.14027 3.38818359 57.99389648 C3.38579681 59.05962387 3.38341003 60.12535126 3.38095093 61.22337341 C2.95474427 64.32985418 2.08379619 65.70597985 0 68 C-2.31 67.67 -4.62 67.34 -7 67 C-7.66 65.02 -8.32 63.04 -9 61 C-9.79664063 61.74056641 -9.79664063 61.74056641 -10.609375 62.49609375 C-11.31578125 63.13675781 -12.0221875 63.77742188 -12.75 64.4375 C-13.44609375 65.07558594 -14.1421875 65.71367187 -14.859375 66.37109375 C-19.24364916 69.70730237 -24.68884329 69.69708932 -30 69 C-37.31552117 66.81426502 -41.59831932 62.95672592 -45.66015625 56.58203125 C-47.48775036 53.06004959 -48.34899133 49.906052 -49 46 C-49.33 46.33 -49.66 46.66 -50 47 C-52.44830426 47.08843793 -54.86820599 47.11528752 -57.31640625 47.09765625 C-58.41298805 47.09553383 -58.41298805 47.09553383 -59.53172302 47.09336853 C-61.87535632 47.08775408 -64.21889539 47.07519922 -66.5625 47.0625 C-68.14778508 47.05748686 -69.73307166 47.05292363 -71.31835938 47.04882812 C-75.2122761 47.03777997 -79.10612205 47.02050572 -83 47 C-82.3855717 48.45985457 -81.76289336 49.91623882 -81.13671875 51.37109375 C-80.79084717 52.18247803 -80.44497559 52.9938623 -80.08862305 53.82983398 C-78.53801008 56.92097519 -77.2827084 57.90576387 -74 59 C-68.0138305 59.8944851 -63.99993193 58.82565897 -58.7890625 55.8984375 C-56.40488815 54.70114471 -54.61619136 54.53831917 -52 55 C-51.34 55.66 -50.68 56.32 -50 57 C-50.08964441 60.4064876 -50.70178672 61.70178672 -53.125 64.125 C-60.406856 68.87403652 -66.31245446 70.02804505 -75 69 C-81.83971921 66.99436805 -87.61283333 63.57964931 -91.3125 57.375 C-93 54 -93 54 -93 52 C-95.51640184 53.25820092 -95.61551938 54.14093969 -96.6875 56.6875 C-99.5135463 62.51752886 -103.39500743 65.93870673 -109.375 68.375 C-117.33565874 69.74752737 -122.24288997 69.63723237 -129 65 C-130.33702892 64.00494651 -131.67117682 63.00598545 -133 62 C-132.96519531 63.18078125 -132.93039062 64.3615625 -132.89453125 65.578125 C-132.86638768 67.13540242 -132.83908813 68.69269525 -132.8125 70.25 C-132.77479492 71.41595703 -132.77479492 71.41595703 -132.73632812 72.60546875 C-132.69158793 76.09520419 -132.67667063 78.38576957 -134.32421875 81.515625 C-136 83 -136 83 -139 83.5 C-142 83 -142 83 -143.6622467 81.32019043 C-145.30500758 78.47099688 -145.3861864 76.65610039 -145.40405273 73.37695312 C-145.41673691 72.24898315 -145.42942108 71.12101318 -145.44248962 69.9588623 C-145.43955399 68.74525024 -145.43661835 67.53163818 -145.43359375 66.28125 C-145.44145653 64.40620789 -145.44145653 64.40620789 -145.44947815 62.49328613 C-145.45590215 59.85018423 -145.45599529 57.20794557 -145.44604492 54.56494141 C-145.43454791 51.18187048 -145.4547796 47.79984222 -145.48396206 44.41690826 C-145.5067403 41.18418345 -145.49985723 37.95153628 -145.49609375 34.71875 C-145.50732773 33.50513794 -145.51856171 32.29152588 -145.53013611 31.0411377 C-145.52075516 29.91316772 -145.51137421 28.78519775 -145.50170898 27.62304688 C-145.50154282 26.63139526 -145.50137665 25.63974365 -145.50120544 24.61804199 C-144.85878419 21.26236054 -143.68261202 20.05708423 -141 18 C-137.9375 17.875 -137.9375 17.875 -135 19 C-133.125 22.0625 -133.125 22.0625 -132 25 C-131.0925 24.21625 -130.185 23.4325 -129.25 22.625 C-124.75166639 18.74007552 -121.26631436 17.59511736 -115.37109375 17.75 C-109.00327576 18.42140091 -103.23017519 21.10252957 -99 26 C-97.14456772 28.9128818 -95.52501082 31.90274351 -94 35 C-93.70867187 34.40832031 -93.41734375 33.81664062 -93.1171875 33.20703125 C-89.61985685 26.46532155 -86.47891272 22.97820527 -79.8125 19.1875 C-72.77476029 16.99541714 -66.48069894 16.9717065 -59.6875 20 C-54.73120413 22.74999564 -52.04723658 26.33649267 -49 31 C-48.01 31.99 -48.01 31.99 -47 33 C-46.6596875 32.40832031 -46.319375 31.81664062 -45.96875 31.20703125 C-41.83467098 24.46716306 -37.54513479 20.51504493 -30 18 C-22.70488802 17.26483368 -17.74399361 18.6000041 -11.5625 22.5625 C-11.046875 23.036875 -10.53125 23.51125 -10 24 C-10 24.66 -10 25.32 -10 26 C-9.34 26 -8.68 26 -8 26 C-8.02356567 24.92516357 -8.02356567 24.92516357 -8.04760742 23.82861328 C-8.10981863 20.59415524 -8.14894649 17.35982281 -8.1875 14.125 C-8.21263672 12.99707031 -8.23777344 11.86914062 -8.26367188 10.70703125 C-8.27817383 9.09248047 -8.27817383 9.09248047 -8.29296875 7.4453125 C-8.31653442 5.95281982 -8.31653442 5.95281982 -8.34057617 4.43017578 C-8.22818604 3.62821777 -8.1157959 2.82625977 -8 2 C-4.76746204 -0.15502531 -3.74849077 -0.46856135 0 0 Z " fill="#161514" transform="translate(392,124)"/>
<path d="M0 0 C1.29550781 -0.00386719 2.59101562 -0.00773437 3.92578125 -0.01171875 C4.5997998 -0.00543457 5.27381836 0.00084961 5.96826172 0.00732422 C7.99647068 0.02322607 10.02263833 0.00754984 12.05078125 -0.01171875 C29.68569553 0.04061037 29.68569553 0.04061037 35.35986328 5.17236328 C39.20251299 9.46502137 40.70949111 12.39703215 40.61328125 18.30859375 C40.01995186 24.08007053 36.49938075 27.63000316 32.3984375 31.3984375 C32.92953125 31.68976563 33.460625 31.98109375 34.0078125 32.28125 C38.86474309 35.09968782 41.6576244 37.48781404 44.3984375 42.3984375 C45.2646875 41.6146875 46.1309375 40.8309375 47.0234375 40.0234375 C53.48215912 34.74582469 60.35277768 34.85225694 68.3984375 35.3984375 C71.17054827 35.89012687 73.7011761 36.56851091 76.3984375 37.3984375 C75.15648757 31.63670158 75.15648757 31.63670158 71.3984375 27.3984375 C65.35561948 25.38416483 58.57768913 26.17366905 52.3359375 27.0234375 C51.0365625 27.1471875 49.7371875 27.2709375 48.3984375 27.3984375 C46.3984375 25.3984375 46.3984375 25.3984375 46.0234375 22.9609375 C46.3984375 20.3984375 46.3984375 20.3984375 47.9609375 18.7109375 C55.90388335 14.43396666 65.07955509 14.30036947 73.87109375 15.828125 C79.18196646 17.48585406 82.27181733 20.9086542 85.3984375 25.3984375 C86.97453359 28.55062969 86.58247511 31.93629224 86.6015625 35.3984375 C86.60726257 36.18992188 86.61296265 36.98140625 86.61883545 37.796875 C86.62828568 39.47134055 86.63481953 41.14582471 86.63867188 42.8203125 C86.64839928 45.38834757 86.67943016 47.95558963 86.7109375 50.5234375 C86.71746535 52.14843274 86.72271668 53.7734337 86.7265625 55.3984375 C86.7389093 56.16929687 86.7512561 56.94015625 86.76397705 57.734375 C86.75488281 59.8984375 86.75488281 59.8984375 86.3984375 63.3984375 C83.17470073 65.54759535 82.13140076 65.78130553 78.3984375 65.3984375 C77.7384375 64.7384375 77.0784375 64.0784375 76.3984375 63.3984375 C76.3984375 62.4084375 76.3984375 61.4184375 76.3984375 60.3984375 C75.86734375 60.74777344 75.33625 61.09710938 74.7890625 61.45703125 C73.72945312 62.13958984 73.72945312 62.13958984 72.6484375 62.8359375 C71.60429687 63.51462891 71.60429687 63.51462891 70.5390625 64.20703125 C65.50480975 67.008942 60.02566906 66.88000724 54.3984375 66.3984375 C49.13532642 64.61096581 46.57452197 61.78890721 43.3984375 57.3984375 C43.3984375 56.7384375 43.3984375 56.0784375 43.3984375 55.3984375 C42.7384375 55.3984375 42.0784375 55.3984375 41.3984375 55.3984375 C41.1921875 55.9759375 40.9859375 56.5534375 40.7734375 57.1484375 C38.2697378 61.24540064 34.65330464 62.96889862 30.203125 64.4921875 C24.03103138 65.94619714 17.64951529 65.77046021 11.34277344 65.76904297 C9.13920985 65.77345598 6.93759074 65.80997353 4.734375 65.84765625 C3.32552761 65.85351861 1.91667082 65.85749189 0.5078125 65.859375 C-0.76094727 65.86759277 -2.02970703 65.87581055 -3.33691406 65.88427734 C-7.2678407 65.29928303 -8.18136632 64.47983483 -10.6015625 61.3984375 C-11.10949707 58.73570251 -11.10949707 58.73570251 -11.11914062 55.66772461 C-11.13174927 54.5165062 -11.14435791 53.36528778 -11.15734863 52.17918396 C-11.14925171 50.94056107 -11.14115479 49.70193817 -11.1328125 48.42578125 C-11.1366394 47.15118546 -11.14046631 45.87658966 -11.14440918 44.56336975 C-11.14713158 41.8687606 -11.14176141 39.17560287 -11.12304688 36.48120117 C-11.1002332 33.02849358 -11.11339711 29.57702806 -11.13733673 26.12436581 C-11.15526551 22.82895964 -11.14271426 19.53370361 -11.1328125 16.23828125 C-11.14090942 14.99763412 -11.14900635 13.756987 -11.15734863 12.47874451 C-11.14473999 11.33067825 -11.13213135 10.182612 -11.11914062 8.99975586 C-11.11595825 7.98811874 -11.11277588 6.97648163 -11.10949707 5.93418884 C-10.6015625 3.3984375 -10.6015625 3.3984375 -8.75979614 1.57261658 C-5.7626584 -0.05796519 -3.40103299 0.00981741 0 0 Z " fill="#141311" transform="translate(111.6015625,126.6015625)"/>
<path d="M0 0 C122.1 0 244.2 0 370 0 C370 37.29 370 74.58 370 113 C335.02 113.33 300.04 113.66 264 114 C264 114.66 264 115.32 264 116 C261.69 116 259.38 116 257 116 C257 115.01 257 114.02 257 113 C253.04 113 249.08 113 245 113 C245.33 113.99 245.66 114.98 246 116 C243 116 243 116 241.3125 114.5 C240.879375 114.005 240.44625 113.51 240 113 C240 113.99 240 114.98 240 116 C239.34 116 238.68 116 238 116 C238 115.01 238 114.02 238 113 C236.22844346 113.11429397 234.45773771 113.24183037 232.6875 113.375 C231.70136719 113.44460937 230.71523438 113.51421875 229.69921875 113.5859375 C226.78471567 113.83865472 226.78471567 113.83865472 224 116 C221.4375 116.25 221.4375 116.25 219 116 C218.34 115.34 217.68 114.68 217 114 C214.63490639 113.69940057 212.25558119 113.50484988 209.875 113.375 C208.59367188 113.30023438 207.31234375 113.22546875 205.9921875 113.1484375 C204.51105469 113.07496094 204.51105469 113.07496094 203 113 C203 113.99 203 114.98 203 116 C202.01 116 201.02 116 200 116 C200 115.01 200 114.02 200 113 C195.71 113 191.42 113 187 113 C187 113.66 187 114.32 187 115 C183.535 115.495 183.535 115.495 180 116 C179.67 115.01 179.34 114.02 179 113 C167.12 113.495 167.12 113.495 155 114 C155 114.66 155 115.32 155 116 C152.69 116 150.38 116 148 116 C148 115.01 148 114.02 148 113 C144.37 113 140.74 113 137 113 C137 113.99 137 114.98 137 116 C136.01 116 135.02 116 134 116 C133.67 115.34 133.34 114.68 133 114 C132.01 113.67 131.02 113.34 130 113 C130 113.99 130 114.98 130 116 C129.34 116 128.68 116 128 116 C128 115.01 128 114.02 128 113 C124.37 113 120.74 113 117 113 C117 113.99 117 114.98 117 116 C116.01 116 115.02 116 114 116 C114 115.01 114 114.02 114 113 C110.37 113.33 106.74 113.66 103 114 C103 114.66 103 115.32 103 116 C100.69 116 98.38 116 96 116 C96 115.01 96 114.02 96 113 C92.37 113 88.74 113 85 113 C85 113.99 85 114.98 85 116 C84.01 116 83.02 116 82 116 C81.67 115.34 81.34 114.68 81 114 C79.515 113.505 79.515 113.505 78 113 C78 113.99 78 114.98 78 116 C77.34 116 76.68 116 76 116 C76 115.01 76 114.02 76 113 C74.06183265 113.1141866 72.12444901 113.24173423 70.1875 113.375 C69.10855469 113.44460937 68.02960938 113.51421875 66.91796875 113.5859375 C63.81373814 113.81195733 63.81373814 113.81195733 61 116 C55.44444444 115.44444444 55.44444444 115.44444444 54 114 C36.18 113.67 18.36 113.34 0 113 C0 75.71 0 38.42 0 0 Z M19 2 C18.01 3.98 17.02 5.96 16 8 C12 11 12 11 2 12 C2 44.67 2 77.34 2 111 C19.16 111 36.32 111 54 111 C54.495 109.02 54.495 109.02 55 107 C57.8125 106.375 57.8125 106.375 61 106 C64 108 64 108 65 111 C68.63 111 72.26 111 76 111 C76 109.02 76 107.04 76 105 C77.98 106.65 79.96 108.3 82 110 C82 108.35 82 106.7 82 105 C82.99 105 83.98 105 85 105 C85 106.98 85 108.96 85 111 C88.63 111 92.26 111 96 111 C96 109.02 96 107.04 96 105 C96.99 105 97.98 105 99 105 C99 106.98 99 108.96 99 111 C103.95 111 108.9 111 114 111 C114 109.02 114 107.04 114 105 C114.66 105 115.32 105 116 105 C116 106.98 116 108.96 116 111 C119.96 111 123.92 111 128 111 C128 109.02 128 107.04 128 105 C129.98 106.65 131.96 108.3 134 110 C134 108.35 134 106.7 134 105 C134.99 105 135.98 105 137 105 C137 106.98 137 108.96 137 111 C140.63 111 144.26 111 148 111 C148 109.02 148 107.04 148 105 C150.31 105 152.62 105 155 105 C155 105.66 155 106.32 155 107 C153.68 107 152.36 107 151 107 C151 107.66 151 108.32 151 109 C152.32 109 153.64 109 155 109 C155 109.66 155 110.32 155 111 C163.25 111 171.5 111 180 111 C180 109.35 180 107.7 180 106 C181.65 106 183.3 106 185 106 C185.33 106.66 185.66 107.32 186 108 C184.35 107.67 182.7 107.34 181 107 C181 107.66 181 108.32 181 109 C185.21896866 111.04898287 188.65372146 111.21207997 193.3125 111.125 C195.19388672 111.09792969 195.19388672 111.09792969 197.11328125 111.0703125 C198.06589844 111.04710937 199.01851562 111.02390625 200 111 C200 109.68 200 108.36 200 107 C199.01 107 198.02 107 197 107 C197 106.34 197 105.68 197 105 C199.97 105 202.94 105 206 105 C206 105.66 206 106.32 206 107 C205.01 107 204.02 107 203 107 C203 108.32 203 109.64 203 111 C205.10241603 111.13496251 207.2072961 111.23197307 209.3125 111.3125 C210.48425781 111.37050781 211.65601563 111.42851562 212.86328125 111.48828125 C213.89839844 111.32714844 214.93351563 111.16601562 216 111 C217.80899464 108.59313914 217.80899464 108.59313914 219 106 C221.5 105.375 221.5 105.375 224 106 C224.37125 106.825 224.7425 107.65 225.125 108.5 C225.74375 109.325 226.3625 110.15 227 111 C230.6957576 111.46677473 234.2929887 111.28321818 238 111 C238 109.02 238 107.04 238 105 C240.31 105.66 242.62 106.32 245 107 C245.33 108.32 245.66 109.64 246 111 C249.63 111 253.26 111 257 111 C257 109.02 257 107.04 257 105 C259.31 105 261.62 105 264 105 C264 105.66 264 106.32 264 107 C262.68 107 261.36 107 260 107 C260 107.66 260 108.32 260 109 C261.32 109 262.64 109 264 109 C264 109.66 264 110.32 264 111 C298.32 111 332.64 111 368 111 C368 75.03 368 39.06 368 2 C252.83 2 137.66 2 19 2 Z " fill="#9750FD" transform="translate(92,103)"/>
<path d="M0 0 C1.90084561 6.29655107 2.90064876 12.41996614 2 19 C0.0625 21.5625 0.0625 21.5625 -2 23 C-3.13557238 25.27114476 -3.23084318 26.72293619 -3.3125 29.25 C-3.36857422 30.37148437 -3.36857422 30.37148437 -3.42578125 31.515625 C-3.03001173 34.83503549 -3.03001173 34.83503549 1 40 C-19.46 40 -39.92 40 -61 40 C-61.99 37.36 -62.98 34.72 -64 32 C-66.34495977 29.14208028 -67.48175495 28.17274835 -71 27 C-71.94921875 24.0859375 -71.94921875 24.0859375 -72.6875 20.375 C-72.93886719 19.16585937 -73.19023438 17.95671875 -73.44921875 16.7109375 C-73.98839508 13.07818914 -74.09895734 9.66613374 -74 6 C-71.14024616 5.20525017 -68.46208185 4.81494857 -65.5012207 4.64282227 C-64.61541824 4.58929092 -63.72961578 4.53575958 -62.81697083 4.48060608 C-61.86287827 4.42642014 -60.90878571 4.37223419 -59.92578125 4.31640625 C-57.87434669 4.19209477 -55.82291447 4.06774449 -53.77148438 3.94335938 C-50.56217795 3.75331704 -47.35278611 3.56484932 -44.14331055 3.37768555 C-32.5264824 2.6951935 -20.98861761 1.9182201 -9.44995117 0.38256836 C-6.2634475 0.02921394 -3.20221005 -0.07109183 0 0 Z " fill="#FEFBFD" transform="translate(173,63)"/>
<path d="M0 0 C0.33 0 0.66 0 1 0 C2.74873649 15.23898943 3.91800693 29.77446957 1.79176331 45.03347778 C0.84753243 51.89859907 0.25790692 58.78196288 -0.3125 65.6875 C-0.56298587 68.64613181 -0.81773777 71.6043822 -1.07421875 74.5625 C-1.14338501 75.36036423 -1.21255127 76.15822845 -1.28381348 76.98027039 C-1.90563905 84.07409252 -2.58255962 91.16222076 -3.26953125 98.25 C-3.38079849 99.39821732 -3.49206573 100.54643463 -3.60670471 101.72944641 C-4.16302243 107.45825063 -4.72321451 113.18665988 -5.28637695 118.91479492 C-6.26905694 128.97185817 -7.22373912 139.01125176 -7.76708984 149.1027832 C-7.98507616 151.81435927 -8.44381992 154.34134588 -9 157 C-9.17990098 158.57938829 -9.33406659 160.16188131 -9.46484375 161.74609375 C-9.58013428 163.11109009 -9.58013428 163.11109009 -9.69775391 164.50366211 C-9.77687012 165.47182861 -9.85598633 166.43999512 -9.9375 167.4375 C-10.11025784 169.48961867 -10.28344694 171.54170107 -10.45703125 173.59375 C-10.54549316 174.645625 -10.63395508 175.6975 -10.72509766 176.78125 C-11.17097458 182.00189066 -11.64729202 187.21969053 -12.125 192.4375 C-12.21257568 193.39648193 -12.30015137 194.35546387 -12.39038086 195.34350586 C-12.59317309 197.5623755 -12.79635703 199.78120831 -13 202 C-11.93136719 201.67644531 -10.86273438 201.35289062 -9.76171875 201.01953125 C-0.55557079 198.52440704 9.2776015 199.95300859 17.70703125 204.44140625 C25.08742547 209.32765803 32.01624768 215.49630589 35 224 C34.071875 223.13375 33.14375 222.2675 32.1875 221.375 C22.17170365 212.7695913 12.92749913 210.2387447 0 211 C-7.82395907 212.06385739 -14.6325867 213.74520092 -21.328125 218.01171875 C-23 219 -23 219 -25 219 C-25.19120253 213.55072791 -24.84629754 208.46199419 -24.0625 203.0625 C-23.1111358 196.42974961 -22.62334813 189.85935456 -22.34204102 183.16625977 C-22.31037842 182.45010498 -22.27871582 181.7339502 -22.24609375 180.99609375 C-22.22216553 180.36888428 -22.1982373 179.7416748 -22.17358398 179.09545898 C-22 177 -22 177 -21.54150391 174.45214844 C-20.77686683 169.57750086 -20.45681381 164.6880536 -20.08984375 159.76953125 C-19.0550817 146.39473682 -17.83252772 133.04173413 -16.5625 119.6875 C-16.45294983 118.52790771 -16.34339966 117.36831543 -16.23052979 116.17358398 C-14.92887337 102.39880558 -13.58961651 88.63310476 -12.01928711 74.88598633 C-11.31131775 68.51127701 -10.77287253 62.13954061 -10.328125 55.7421875 C-8.11658007 24.28999547 -8.11658007 24.28999547 -3 10 C-2.38528659 7.96148398 -1.7794684 5.9202368 -1.1875 3.875 C-0.79372013 2.58270583 -0.39889247 1.29072522 0 0 Z " fill="#F03B63" transform="translate(31,67)"/>
<path d="M0 0 C1.63198853 1.15223694 1.63198853 1.15223694 3 3 C3.38095093 5.64964294 3.38095093 5.64964294 3.38818359 8.87670898 C3.39764008 10.08483749 3.40709656 11.292966 3.4168396 12.53770447 C3.41076691 13.84397293 3.40469421 15.15024139 3.3984375 16.49609375 C3.40045873 17.8498602 3.40337057 19.20362558 3.40713501 20.55738831 C3.41155765 23.3945655 3.40513066 26.23145928 3.39111328 29.06860352 C3.37403728 32.7015237 3.38385215 36.3337782 3.40183067 39.96667385 C3.41268437 42.76256807 3.40921472 45.55830516 3.4014473 48.35420418 C3.39847805 50.34392352 3.40757536 52.33364901 3.4168396 54.323349 C3.40738312 55.53462967 3.39792664 56.74591034 3.38818359 57.99389648 C3.38579681 59.05962387 3.38341003 60.12535126 3.38095093 61.22337341 C2.95474427 64.32985418 2.08379619 65.70597985 0 68 C-2.31 67.67 -4.62 67.34 -7 67 C-7.66 65.02 -8.32 63.04 -9 61 C-9.79664063 61.74056641 -9.79664063 61.74056641 -10.609375 62.49609375 C-11.31578125 63.13675781 -12.0221875 63.77742188 -12.75 64.4375 C-13.44609375 65.07558594 -14.1421875 65.71367187 -14.859375 66.37109375 C-19.24364916 69.70730237 -24.68884329 69.69708932 -30 69 C-37.22577644 66.84107899 -41.64243827 63.0212115 -45.65625 56.70703125 C-47.67577934 52.63861894 -48.79024789 48.54462916 -49 44 C-48.67 43.34 -48.34 42.68 -48 42 C-47.92274432 40.64659497 -47.86267331 39.29217939 -47.8125 37.9375 C-47.20589745 32.22992143 -44.81565146 28.22505613 -41 24 C-34.72875393 19.0303333 -28.95526853 17.24550698 -21 18 C-16.89943321 19.1590296 -13.14607004 21.10561556 -10 24 C-10 24.66 -10 25.32 -10 26 C-9.34 26 -8.68 26 -8 26 C-8.01571045 25.28344238 -8.0314209 24.56688477 -8.04760742 23.82861328 C-8.10981863 20.59415524 -8.14894649 17.35982281 -8.1875 14.125 C-8.21263672 12.99707031 -8.23777344 11.86914062 -8.26367188 10.70703125 C-8.27333984 9.63066406 -8.28300781 8.55429688 -8.29296875 7.4453125 C-8.3086792 6.45031738 -8.32438965 5.45532227 -8.34057617 4.43017578 C-8.17199097 3.22723877 -8.17199097 3.22723877 -8 2 C-4.76746204 -0.15502531 -3.74849077 -0.46856135 0 0 Z " fill="#151413" transform="translate(392,124)"/>
<path d="M0 0 C10.22948785 6.43126086 16.44021895 15.28847231 19.58984375 26.90625 C20 29 20 29 20 32 C18.92685547 32.03758423 18.92685547 32.03758423 17.83203125 32.07592773 C14.5545453 32.19279152 11.27728384 32.31510423 8 32.4375 C6.87464844 32.47681641 5.74929687 32.51613281 4.58984375 32.55664062 C-2.25687123 32.80104407 -2.25687123 32.80104407 -9.06640625 33.50390625 C-14.350845 34.17036476 -19.61726406 34.32207789 -24.9375 34.5 C-34.96904115 34.86557556 -44.98293803 35.35240452 -55 36 C-56.08161927 24.70308759 -54.31974566 17.39615016 -48 8 C-45.55720052 5.25300284 -43.03159115 3.06816176 -40 1 C-38.700625 0.1028125 -38.700625 0.1028125 -37.375 -0.8125 C-26.33549033 -6.33225483 -10.77270624 -6.05535876 0 0 Z " fill="#FEFBFB" transform="translate(152,23)"/>
<path d="M0 0 C3.92562099 3.727183 6.90643007 6.96754767 7.16113281 12.5 C7.18131181 13.99992958 7.19485501 15.49995749 7.203125 17 C7.20882507 17.79148438 7.21452515 18.58296875 7.22039795 19.3984375 C7.22984818 21.07290305 7.23638203 22.74738721 7.24023438 24.421875 C7.24996178 26.98991007 7.28099266 29.55715213 7.3125 32.125 C7.31902785 33.74999524 7.32427918 35.3749962 7.328125 37 C7.3404718 37.77085937 7.3528186 38.54171875 7.36553955 39.3359375 C7.35644531 41.5 7.35644531 41.5 7 45 C3.77626323 47.14915785 2.73296326 47.38286803 -1 47 C-1.66 46.34 -2.32 45.68 -3 45 C-3 44.01 -3 43.02 -3 42 C-3.53109375 42.34933594 -4.0621875 42.69867188 -4.609375 43.05859375 C-5.66898437 43.74115234 -5.66898437 43.74115234 -6.75 44.4375 C-7.44609375 44.88996094 -8.1421875 45.34242188 -8.859375 45.80859375 C-13.89362775 48.6105045 -19.37276844 48.48156974 -25 48 C-30.28097404 46.20646165 -32.79895251 43.39000798 -36 39 C-37.24350856 35.26947433 -37.52198871 31.87447957 -37 28 C-34.58172489 23.16344977 -31.68446404 20.63501102 -27 18 C-19.29602235 15.49785341 -10.58109458 16.66735551 -3 19 C-4.24194993 13.23826408 -4.24194993 13.23826408 -8 9 C-14.04281802 6.98572733 -20.82074837 7.77523155 -27.0625 8.625 C-29.0115625 8.810625 -29.0115625 8.810625 -31 9 C-33 7 -33 7 -33.375 4.5625 C-33 2 -33 2 -31.4375 0.3125 C-22.67051509 -4.40818418 -8.61307497 -5.7553726 0 0 Z " fill="#151412" transform="translate(450,145)"/>
<path d="M0 0 C3.39891781 3.6038798 5.2635506 7.48363387 7.015625 12.05078125 C7.27631775 12.70958786 7.5370105 13.36839447 7.80560303 14.04716492 C8.62862205 16.1324879 9.43945994 18.22229934 10.25 20.3125 C10.80909475 21.73534108 11.36898284 23.1578707 11.9296875 24.58007812 C13.29565038 28.04983136 14.65073744 31.52371324 16 35 C16.86453527 32.8491342 17.72824641 30.69794211 18.59106445 28.54638672 C19.32427203 26.71818399 20.05849064 24.89038644 20.79370117 23.06298828 C22.42053164 19.00687749 24.03713494 14.95190319 25.5390625 10.84765625 C25.95929688 9.70167969 26.37953125 8.55570313 26.8125 7.375 C27.16957031 6.37210938 27.52664062 5.36921875 27.89453125 4.3359375 C29 2 29 2 32 0 C37.55555556 0.55555556 37.55555556 0.55555556 39 2 C38.65207035 9.05006125 36.87521146 14.62679182 34.10546875 21.07421875 C33.71684158 22.00168411 33.32821442 22.92914948 32.92781067 23.88471985 C32.10876204 25.83249434 31.28401605 27.77788196 30.45385742 29.72094727 C29.18902196 32.68393469 27.94377091 35.65458163 26.70117188 38.62695312 C25.89957784 40.52652328 25.09688067 42.42562838 24.29296875 44.32421875 C23.92302292 45.20559006 23.55307709 46.08696136 23.17192078 46.99504089 C20.20710213 53.90260353 17.35153535 59.60278322 11 64 C5.90371261 65.69876246 0.88449765 65.90298846 -4 63.5625 C-6 62 -6 62 -7 61 C-7.1875 58.5625 -7.1875 58.5625 -7 56 C-5 54 -5 54 -2.5390625 53.9453125 C-1.09660156 54.03425781 -1.09660156 54.03425781 0.375 54.125 C4.88066384 54.29974953 4.88066384 54.29974953 8.6875 52 C9.120625 51.34 9.55375 50.68 10 50 C8.26310502 44.11718328 6.00058536 38.63133259 3.42578125 33.078125 C2.93076614 32.00963318 2.93076614 32.00963318 2.42575073 30.91955566 C1.0389804 27.93694914 -0.35418342 24.95745055 -1.75610352 21.98193359 C-2.78712663 19.78860138 -3.80633757 17.59008018 -4.82421875 15.390625 C-5.14291428 14.7228302 -5.4616098 14.0550354 -5.78996277 13.36700439 C-7.43872414 9.78581826 -8.50168002 6.95774786 -8 3 C-5.87067725 -0.25001894 -3.75005472 -0.73171799 0 0 Z " fill="#161513" transform="translate(207,142)"/>
<path d="M0 0 C2 2 2 2 2 5 C5.63 5 9.26 5 13 5 C13 3.02 13 1.04 13 -1 C16 0 16 0 18 3 C18.33 1.68 18.66 0.36 19 -1 C19.99 -1 20.98 -1 22 -1 C22 0.98 22 2.96 22 5 C25.63 5 29.26 5 33 5 C33 3.02 33 1.04 33 -1 C33.99 -1 34.98 -1 36 -1 C36 0.98 36 2.96 36 5 C40.95 5 45.9 5 51 5 C51 3.02 51 1.04 51 -1 C51.66 -1 52.32 -1 53 -1 C53 0.98 53 2.96 53 5 C56.96 5 60.92 5 65 5 C65 3.02 65 1.04 65 -1 C68 0 68 0 70 3 C70.33 1.68 70.66 0.36 71 -1 C71.99 -1 72.98 -1 74 -1 C74 0.98 74 2.96 74 5 C77.63 5 81.26 5 85 5 C85 3.02 85 1.04 85 -1 C87.31 -1 89.62 -1 92 -1 C92 -0.34 92 0.32 92 1 C90.68 1 89.36 1 88 1 C88 1.66 88 2.32 88 3 C89.32 3 90.64 3 92 3 C92 3.66 92 4.32 92 5 C103.88 4.505 103.88 4.505 116 4 C116.33 2.35 116.66 0.7 117 -1 C118.65 -1 120.3 -1 122 -1 C122.33 -0.01 122.66 0.98 123 2 C121.35 1.67 119.7 1.34 118 1 C118 1.66 118 2.32 118 3 C122.099361 3.9327418 126.12043288 4.28825262 130.3125 4.5625 C132.19388672 4.68818359 132.19388672 4.68818359 134.11328125 4.81640625 C135.54220703 4.90728516 135.54220703 4.90728516 137 5 C137 3.68 137 2.36 137 1 C136.01 1 135.02 1 134 1 C134 0.34 134 -0.32 134 -1 C136.97 -1 139.94 -1 143 -1 C143 -0.34 143 0.32 143 1 C142.01 1 141.02 1 140 1 C140 2.32 140 3.64 140 5 C144.29 5 148.58 5 153 5 C153.33 3.68 153.66 2.36 154 1 C156 -1 156 -1 158.4375 -1.3125 C161 -1 161 -1 162.8125 0.3125 C164 2 164 2 164 5 C167.63 5 171.26 5 175 5 C175 3.02 175 1.04 175 -1 C177.875 -1.125 177.875 -1.125 181 -1 C183 1 183 1 183 5 C186.63 5 190.26 5 194 5 C194 3.02 194 1.04 194 -1 C196.31 -1 198.62 -1 201 -1 C201 -0.34 201 0.32 201 1 C199.68 1 198.36 1 197 1 C197 1.66 197 2.32 197 3 C198.32 3 199.64 3 201 3 C201 3.66 201 4.32 201 5 C234.66 5 268.32 5 303 5 C303 5.33 303 5.66 303 6 C268.02 6 233.04 6 197 6 C197 6.66 197 7.32 197 8 C198.32 8 199.64 8 201 8 C201 8.66 201 9.32 201 10 C198.69 10 196.38 10 194 10 C194 9.01 194 8.02 194 7 C190.04 7 186.08 7 182 7 C182.33 7.99 182.66 8.98 183 10 C180 10 180 10 178.3125 8.5 C177.879375 8.005 177.44625 7.51 177 7 C177 7.99 177 8.98 177 10 C176.34 10 175.68 10 175 10 C175 9.01 175 8.02 175 7 C173.22844346 7.11429397 171.45773771 7.24183037 169.6875 7.375 C168.70136719 7.44460937 167.71523438 7.51421875 166.69921875 7.5859375 C163.78471567 7.83865472 163.78471567 7.83865472 161 10 C158.4375 10.25 158.4375 10.25 156 10 C155.01 9.01 155.01 9.01 154 8 C151.63490639 7.69940057 149.25558119 7.50484988 146.875 7.375 C145.59367188 7.30023438 144.31234375 7.22546875 142.9921875 7.1484375 C141.51105469 7.07496094 141.51105469 7.07496094 140 7 C140 7.99 140 8.98 140 10 C139.01 10 138.02 10 137 10 C137 9.01 137 8.02 137 7 C132.71 7 128.42 7 124 7 C124 7.66 124 8.32 124 9 C121.69 9.33 119.38 9.66 117 10 C116.67 9.01 116.34 8.02 116 7 C104.12 7.495 104.12 7.495 92 8 C92 8.66 92 9.32 92 10 C89.69 10 87.38 10 85 10 C85 9.01 85 8.02 85 7 C81.37 7 77.74 7 74 7 C74 7.99 74 8.98 74 10 C73.01 10 72.02 10 71 10 C70.67 9.34 70.34 8.68 70 8 C69.01 7.67 68.02 7.34 67 7 C67 7.99 67 8.98 67 10 C66.34 10 65.68 10 65 10 C65 9.01 65 8.02 65 7 C61.37 7 57.74 7 54 7 C54 7.99 54 8.98 54 10 C53.01 10 52.02 10 51 10 C51 9.01 51 8.02 51 7 C47.37 7.33 43.74 7.66 40 8 C40 8.66 40 9.32 40 10 C37.69 10 35.38 10 33 10 C33 9.01 33 8.02 33 7 C29.37 7 25.74 7 22 7 C22 7.99 22 8.98 22 10 C21.01 10 20.02 10 19 10 C18.505 9.01 18.505 9.01 18 8 C17.01 7.67 16.02 7.34 15 7 C15 7.99 15 8.98 15 10 C14.34 10 13.68 10 13 10 C13 9.01 13 8.02 13 7 C11.06183265 7.1141866 9.12444901 7.24173423 7.1875 7.375 C6.10855469 7.44460937 5.02960938 7.51421875 3.91796875 7.5859375 C0.81373814 7.81195733 0.81373814 7.81195733 -2 10 C-7.55555556 9.44444444 -7.55555556 9.44444444 -9 8 C-10.68709347 7.87700834 -12.37920903 7.82214742 -14.07055664 7.79467773 C-15.15160172 7.77473251 -16.23264679 7.75478729 -17.34645081 7.73423767 C-18.5224736 7.71752518 -19.6984964 7.70081268 -20.91015625 7.68359375 C-22.70591347 7.6524221 -22.70591347 7.6524221 -24.53794861 7.62062073 C-28.37940487 7.55499721 -32.22093201 7.49618097 -36.0625 7.4375 C-38.65951267 7.39432695 -41.25651806 7.35071307 -43.85351562 7.30664062 C-50.23560117 7.19930284 -56.61775793 7.09756069 -63 7 C-63 6.34 -63 5.68 -63 5 C-45.18 5 -27.36 5 -9 5 C-8.67 3.35 -8.34 1.7 -8 0 C-5.09288879 -1.4535556 -3.10402897 -0.71133997 0 0 Z " fill="#7D49DA" transform="translate(155,209)"/>
<path d="M0 0 C3.98561154 2.62688033 6.23980531 5.28191592 7.75 9.8125 C8.28935868 16.17693245 7.34897986 20.48158785 3.75 25.8125 C-0.05510343 29.38699111 -3.9127774 30.2216759 -9.1171875 30.1640625 C-12.85324739 29.54822845 -15.6415005 27.49149948 -18.25 24.8125 C-21.5590461 19.80481024 -20.82826757 13.55234105 -20.25 7.8125 C-16.17051679 -0.95083431 -8.81799051 -3.22195807 0 0 Z " fill="#F9F9F9" transform="translate(376.25,153.1875)"/>
<path d="M0 0 C4.03843343 2.60254599 6.29289779 5.25369336 7.8125 9.8125 C8.35185868 16.17693245 7.41147986 20.48158785 3.8125 25.8125 C0.64403887 28.78893318 -2.09322581 29.70728133 -6.4375 30.125 C-11.25450781 29.72358268 -13.2541205 28.6112508 -17.1875 25.8125 C-21.34333956 20.25200604 -20.93410356 14.48159926 -20.1875 7.8125 C-18.39087459 3.80464331 -16.99085252 2.34806835 -13.375 -0.0625 C-8.46793432 -1.79440553 -4.88252524 -1.81897999 0 0 Z " fill="#FAFAFA" transform="translate(279.1875,153.1875)"/>
<path d="M0 0 C4.04238572 -0.1081173 8.0818685 -0.18738513 12.125 -0.25 C13.26710938 -0.28351563 14.40921875 -0.31703125 15.5859375 -0.3515625 C22.03312894 -0.42652984 26.12766089 -0.41713788 31 4 C32 5 32 5 32.375 8.25 C32 12 32 12 29.625 14.875 C25.85883196 17.9238027 24.11617197 18.12179885 19.3359375 18.09765625 C18.21445313 18.09443359 17.09296875 18.09121094 15.9375 18.08789062 C14.761875 18.07951172 13.58625 18.07113281 12.375 18.0625 C11.19164063 18.05798828 10.00828125 18.05347656 8.7890625 18.04882812 C5.85935361 18.03701478 2.92967059 18.0190789 0 18 C0 12.06 0 6.12 0 0 Z " fill="#F9F9F9" transform="translate(112,164)"/>
<path d="M0 0 C2.98318749 0.44747812 3.66827361 1.03539829 5.5 3.375 C5.88095093 5.38598633 5.88095093 5.38598633 5.88818359 7.70703125 C5.89764008 8.57803467 5.90709656 9.44903809 5.9168396 10.34643555 C5.91076691 11.28398682 5.90469421 12.22153809 5.8984375 13.1875 C5.90274277 14.63539917 5.90274277 14.63539917 5.90713501 16.11254883 C5.90917661 18.15348904 5.90364007 20.19444877 5.89111328 22.23535156 C5.8750612 25.3630744 5.89095895 28.48950496 5.91015625 31.6171875 C5.90817384 33.59896119 5.9043302 35.58073408 5.8984375 37.5625 C5.90754654 38.9688269 5.90754654 38.9688269 5.9168396 40.40356445 C5.90738312 41.27456787 5.89792664 42.14557129 5.88818359 43.04296875 C5.88579681 43.80891357 5.88341003 44.5748584 5.88095093 45.36401367 C5.39716309 47.91786158 4.54089252 48.80844698 2.5 50.375 C0 50.75 0 50.75 -2.5 50.375 C-4.54089252 48.80844698 -5.39716309 47.91786158 -5.88095093 45.36401367 C-5.8845311 44.21509644 -5.8845311 44.21509644 -5.88818359 43.04296875 C-5.89764008 42.17196533 -5.90709656 41.30096191 -5.9168396 40.40356445 C-5.91076691 39.46601318 -5.90469421 38.52846191 -5.8984375 37.5625 C-5.90130768 36.59723389 -5.90417786 35.63196777 -5.90713501 34.63745117 C-5.90917661 32.59651096 -5.90364007 30.55555123 -5.89111328 28.51464844 C-5.8750612 25.3869256 -5.89095895 22.26049504 -5.91015625 19.1328125 C-5.90817384 17.15103881 -5.9043302 15.16926592 -5.8984375 13.1875 C-5.90451019 12.24994873 -5.91058289 11.31239746 -5.9168396 10.34643555 C-5.90738312 9.47543213 -5.89792664 8.60442871 -5.88818359 7.70703125 C-5.88579681 6.94108643 -5.88341003 6.1751416 -5.88095093 5.38598633 C-5.21198347 1.85460126 -3.46575323 0.51986298 0 0 Z " fill="#141311" transform="translate(405.5,141.625)"/>
<path d="M0 0 C3.37548805 -0.08122832 6.74900518 -0.14061118 10.125 -0.1875 C11.55199219 -0.22520508 11.55199219 -0.22520508 13.0078125 -0.26367188 C18.45949356 -0.32046022 22.28132574 -0.07100604 27 3 C28 4 28 4 28.3125 7.8125 C28.28363496 11.03383889 28.17080745 11.77795032 26.125 14.4375 C22.83088801 16.85964117 21.03839432 17.12091031 16.9921875 17.09765625 C16.00605469 17.09443359 15.01992187 17.09121094 14.00390625 17.08789062 C12.97136719 17.07951172 11.93882813 17.07113281 10.875 17.0625 C9.31458984 17.05573242 9.31458984 17.05573242 7.72265625 17.04882812 C5.14841313 17.03701967 2.57419947 17.01908385 0 17 C0 11.39 0 5.78 0 0 Z " fill="#F8F8F8" transform="translate(112,137)"/>
<path d="M0 0 C0.763125 0.33 1.52625 0.66 2.3125 1 C2.67766955 4.83428028 2.42251082 6.78812732 0.625 10.25 C-2.2738344 13.69726253 -4.16697514 14.71823401 -8.609375 15.21484375 C-13.13511296 15.42751941 -16.01563874 14.8929816 -19.6875 12 C-21.150458 9.074084 -21.13273109 7.24382653 -20.6875 4 C-15.21546071 -2.80307587 -7.94012041 -2.15325299 0 0 Z " fill="#F7F7F7" transform="translate(444.6875,170)"/>
<path d="M0 0 C0.763125 0.33 1.52625 0.66 2.3125 1 C2.67766955 4.83428028 2.42251082 6.78812732 0.625 10.25 C-2.2738344 13.69726253 -4.16697514 14.71823401 -8.609375 15.21484375 C-13.13511296 15.42751941 -16.01563874 14.8929816 -19.6875 12 C-21.150458 9.074084 -21.13273109 7.24382653 -20.6875 4 C-15.21546071 -2.80307587 -7.94012041 -2.15325299 0 0 Z " fill="#F7F7F7" transform="translate(185.6875,170)"/>
<path d="M0 0 C2 2 2 2 2 5 C5.63 5 9.26 5 13 5 C13 3.02 13 1.04 13 -1 C16.41158256 0.13719419 17.11854601 1.04342944 19 4 C19 4.66 19 5.32 19 6 C19.99 6.495 19.99 6.495 21 7 C19.02 7 17.04 7 15 7 C15 7.99 15 8.98 15 10 C14.34 10 13.68 10 13 10 C13 9.01 13 8.02 13 7 C11.06183265 7.1141866 9.12444901 7.24173423 7.1875 7.375 C6.10855469 7.44460937 5.02960938 7.51421875 3.91796875 7.5859375 C0.81373814 7.81195733 0.81373814 7.81195733 -2 10 C-7.55555556 9.44444444 -7.55555556 9.44444444 -9 8 C-10.68709347 7.87700834 -12.37920903 7.82214742 -14.07055664 7.79467773 C-15.15160172 7.77473251 -16.23264679 7.75478729 -17.34645081 7.73423767 C-18.5224736 7.71752518 -19.6984964 7.70081268 -20.91015625 7.68359375 C-22.70591347 7.6524221 -22.70591347 7.6524221 -24.53794861 7.62062073 C-28.37940487 7.55499721 -32.22093201 7.49618097 -36.0625 7.4375 C-38.65951267 7.39432695 -41.25651806 7.35071307 -43.85351562 7.30664062 C-50.23560117 7.19930284 -56.61775793 7.09756069 -63 7 C-63 6.34 -63 5.68 -63 5 C-45.18 5 -27.36 5 -9 5 C-8.67 3.35 -8.34 1.7 -8 0 C-5.09288879 -1.4535556 -3.10402897 -0.71133997 0 0 Z " fill="#8E4EF2" transform="translate(155,209)"/>
<path d="M0 0 C4.90868233 2.40803284 7.05158183 4.91246366 9 10 C9 10.99 9 11.98 9 13 C0.75 13 -7.5 13 -16 13 C-14.82412504 4.76887529 -14.82412504 4.76887529 -10.03125 1.10546875 C-6.38165817 -0.88075142 -4.11770384 -0.65360378 0 0 Z " fill="#F8F8F8" transform="translate(325,151)"/>
<path d="M0 0 C0.99 0 1.98 0 3 0 C3 1.98 3 3.96 3 6 C6.63 6 10.26 6 14 6 C14 4.02 14 2.04 14 0 C14.99 0 15.98 0 17 0 C17 1.98 17 3.96 17 6 C21.95 6 26.9 6 32 6 C32 4.02 32 2.04 32 0 C32.66 0 33.32 0 34 0 C34 1.98 34 3.96 34 6 C38.95 5.67 43.9 5.34 49 5 C49.495 6.485 49.495 6.485 50 8 C49.34 8 48.68 8 48 8 C48 8.99 48 9.98 48 11 C47.34 11 46.68 11 46 11 C46 10.01 46 9.02 46 8 C42.37 8 38.74 8 35 8 C35 8.99 35 9.98 35 11 C34.01 11 33.02 11 32 11 C32 10.01 32 9.02 32 8 C28.37 8.33 24.74 8.66 21 9 C21 9.66 21 10.32 21 11 C18.69 11 16.38 11 14 11 C14 10.01 14 9.02 14 8 C10.37 8 6.74 8 3 8 C3 8.99 3 9.98 3 11 C2.01 11 1.02 11 0 11 C-0.33 10.01 -0.66 9.02 -1 8 C-0.67 7.67 -0.34 7.34 0 7 C0.04092937 4.66702567 0.04241723 2.33294775 0 0 Z " fill="#6E48B3" transform="translate(174,208)"/>
<path d="M0 0 C5.61 0 11.22 0 17 0 C16.05429515 4.72852427 15.64621338 6.1822108 11.96484375 9.0625 C8.10421337 10.90455028 4.18449049 10.28273584 0 10 C0 6.7 0 3.4 0 0 Z " fill="#F03760" transform="translate(94,105)"/>
<path d="M0 0 C2 2 2 2 2.375 4.9375 C2 8 2 8 0.4375 9.9375 C-3.05130737 11.45826219 -5.36904394 10.94135898 -9 10 C-11.14762184 6.77856724 -11.561068 5.7404533 -11 2 C-7.75218562 -1.89737726 -4.62190328 -1.11268042 0 0 Z " fill="#1A1917" transform="translate(410,125)"/>
<path d="M0 0 C3 1 3 1 5 4 C5.33 2.68 5.66 1.36 6 0 C6.66 0 7.32 0 8 0 C8 3.63 8 7.26 8 11 C7.34 11 6.68 11 6 11 C4.66666667 9.33333333 3.33333333 7.66666667 2 6 C1.34 6 0.68 6 0 6 C0 4.02 0 2.04 0 0 Z " fill="#5E3C5C" transform="translate(220,208)"/>
<path d="M0 0 C2.875 -0.125 2.875 -0.125 6 0 C8 2 8 2 8 6 C5.36 6 2.72 6 0 6 C0 4.02 0 2.04 0 0 Z " fill="#525463" transform="translate(330,208)"/>
<path d="M0 0 C-5.61 1.98 -11.22 3.96 -17 6 C-17 5.34 -17 4.68 -17 4 C-18.32 3.67 -19.64 3.34 -21 3 C-18.06449875 2.30278105 -15.12712524 1.61690995 -12.1875 0.9375 C-11.35412109 0.73833984 -10.52074219 0.53917969 -9.66210938 0.33398438 C-8.85966797 0.15029297 -8.05722656 -0.03339844 -7.23046875 -0.22265625 C-6.12288208 -0.48187866 -6.12288208 -0.48187866 -4.99291992 -0.74633789 C-3 -1 -3 -1 0 0 Z " fill="#F36282" transform="translate(248,232)"/>
<path d="M0 0 C2.31 0 4.62 0 7 0 C7 0.66 7 1.32 7 2 C5.68 2 4.36 2 3 2 C3 2.66 3 3.32 3 4 C3.99 4 4.98 4 6 4 C6 4.66 6 5.32 6 6 C4.02 6 2.04 6 0 6 C0 4.02 0 2.04 0 0 Z " fill="#3E3B3F" transform="translate(349,208)"/>
<path d="M0 0 C2.31 0 4.62 0 7 0 C7 0.66 7 1.32 7 2 C5.68 2 4.36 2 3 2 C3 2.66 3 3.32 3 4 C3.99 4 4.98 4 6 4 C6 4.66 6 5.32 6 6 C4.02 6 2.04 6 0 6 C0 4.02 0 2.04 0 0 Z " fill="#3E3B3F" transform="translate(240,208)"/>
<path d="M0 0 C2.5625 0.3125 2.5625 0.3125 4.375 1.625 C5.5625 3.3125 5.5625 3.3125 5.5625 6.3125 C4.9025 6.3125 4.2425 6.3125 3.5625 6.3125 C2.9025 5.3225 2.2425 4.3325 1.5625 3.3125 C-0.41286745 3.66036708 -0.41286745 3.66036708 -2.4375 4.3125 C-2.7675 4.9725 -3.0975 5.6325 -3.4375 6.3125 C-4.0975 6.3125 -4.7575 6.3125 -5.4375 6.3125 C-4.69883196 2.6191598 -4.09013702 0.52437654 0 0 Z " fill="#2C2A37" transform="translate(313.4375,207.6875)"/>
<path d="M0 0 C0.33 1.65 0.66 3.3 1 5 C0.34 5 -0.32 5 -1 5 C-1.33 4.01 -1.66 3.02 -2 2 C-3.97536745 2.34786708 -3.97536745 2.34786708 -6 3 C-6.33 3.66 -6.66 4.32 -7 5 C-7.66 5 -8.32 5 -9 5 C-8.625 2.5625 -8.625 2.5625 -8 0 C-5.13822943 -1.43088528 -3.06624227 -0.59991697 0 0 Z " fill="#312C36" transform="translate(155,209)"/>
<path d="M0 0 C1.2065625 0.0309375 1.2065625 0.0309375 2.4375 0.0625 C2.7675 1.0525 3.0975 2.0425 3.4375 3.0625 C1.7875 2.7325 0.1375 2.4025 -1.5625 2.0625 C-1.5625 2.7225 -1.5625 3.3825 -1.5625 4.0625 C-0.2425 4.7225 1.0775 5.3825 2.4375 6.0625 C0.7875 6.0625 -0.8625 6.0625 -2.5625 6.0625 C-2.94468767 4.40635343 -3.27645102 2.73792976 -3.5625 1.0625 C-2.5625 0.0625 -2.5625 0.0625 0 0 Z " fill="#292839" transform="translate(274.5625,207.9375)"/>
<path d="M0 0 C2.97 0 5.94 0 9 0 C9 0.66 9 1.32 9 2 C7.68 2 6.36 2 5 2 C5 3.32 5 4.64 5 6 C4.34 6 3.68 6 3 6 C3 4.68 3 3.36 3 2 C2.01 2 1.02 2 0 2 C0 1.34 0 0.68 0 0 Z " fill="#1E202C" transform="translate(289,208)"/>
<path d="M0 0 C0.99 0.33 1.98 0.66 3 1 C4.1875 3.5625 4.1875 3.5625 5 6 C3.35 6 1.7 6 0 6 C0 4.02 0 2.04 0 0 Z " fill="#23223A" transform="translate(220,208)"/>
<path d="M0 0 C0.99 0.33 1.98 0.66 3 1 C4.1875 3.5625 4.1875 3.5625 5 6 C3.35 6 1.7 6 0 6 C0 4.02 0 2.04 0 0 Z " fill="#23223A" transform="translate(168,208)"/>
<path d="M0 0 C1.9375 0.3125 1.9375 0.3125 4 1 C4.33 1.99 4.66 2.98 5 4 C3.02 4 1.04 4 -1 4 C-0.67 2.68 -0.34 1.36 0 0 Z " fill="#EBE3E5" transform="translate(312,210)"/>
<path d="M0 0 C1.32 0.33 2.64 0.66 4 1 C4 1.99 4 2.98 4 4 C2.02 4 0.04 4 -2 4 C-1.34 2.68 -0.68 1.36 0 0 Z " fill="#E6E7ED" transform="translate(150,210)"/>
<path d="M0 0 C2.97 0 5.94 0 9 0 C9 0.66 9 1.32 9 2 C6.69 2.33 4.38 2.66 2 3 C1.34 2.01 0.68 1.02 0 0 Z " fill="#252E36" transform="translate(309,216)"/>
<path d="M0 0 C2.97 0 5.94 0 9 0 C7.515 1.485 7.515 1.485 6 3 C2.8125 2.6875 2.8125 2.6875 0 2 C0 1.34 0 0.68 0 0 Z " fill="#222830" transform="translate(147,216)"/>
<path d="M0 0 C2.31 0.33 4.62 0.66 7 1 C7 1.66 7 2.32 7 3 C4.69 3 2.38 3 0 3 C0 2.01 0 1.02 0 0 Z " fill="#2E2D28" transform="translate(188,216)"/>
</svg>
