<?xml version="1.0" encoding="UTF-8"?>
<svg version="1.1" xmlns="http://www.w3.org/2000/svg" width="813" height="813">
<path d="M0 0 C268.29 0 536.58 0 813 0 C813 268.29 813 536.58 813 813 C544.71 813 276.42 813 0 813 C0 544.71 0 276.42 0 0 Z " fill="#FEFEFE" transform="translate(0,0)"/>
<path d="M0 0 C12.83672054 10.95300734 19.44613625 24.28070564 22.40576172 40.73388672 C22.40576172 41.72388672 22.40576172 42.71388672 22.40576172 43.73388672 C37.58576172 43.73388672 52.76576172 43.73388672 68.40576172 43.73388672 C68.40576172 44.06388672 68.40576172 44.39388672 68.40576172 44.73388672 C53.43281504 47.02433748 38.4809794 49.23621803 23.40576172 50.73388672 C23.52693359 51.31654297 23.64810547 51.89919922 23.77294922 52.49951172 C24.02431641 53.72927734 24.02431641 53.72927734 24.28076172 54.98388672 C24.46896484 55.88880859 24.65716797 56.79373047 24.85107422 57.72607422 C25.23018706 59.78182697 25.53430062 61.85244869 25.77294922 63.92919922 C26.3482847 70.37627974 26.3482847 70.37627974 30.28076172 75.17138672 C31.31201172 75.68701172 32.34326172 76.20263672 33.40576172 76.73388672 C37.80478493 81.72737253 38.75707089 84.64177834 38.69091797 91.19091797 C38.17002916 95.83610444 35.74686959 98.55533738 32.34326172 101.54638672 C28.24343672 104.05918269 24.08179622 104.31734913 19.40576172 103.73388672 C14.75041345 102.3364404 11.98696595 100.44586191 8.90576172 96.67138672 C6.64221986 91.93018418 6.34620187 86.84111766 7.40576172 81.73388672 C8.79248047 79.92919922 8.79248047 79.92919922 10.46826172 78.35888672 C12.85281017 76.03031358 13.37803353 75.12824319 13.61669922 71.73388672 C13.34390533 68.36683067 12.91234317 65.07357183 12.40576172 61.73388672 C12.22174911 60.16218987 12.04435395 58.58970734 11.87280273 57.01660156 C11.78474869 56.21265961 11.69669464 55.40871765 11.60597229 54.58041382 C11.50686806 53.6663829 11.50686806 53.6663829 11.40576172 52.73388672 C10.23102295 52.93159668 9.05628418 53.12930664 7.84594727 53.33300781 C-5.34017779 55.47449011 -18.45329005 56.58155033 -31.78173828 57.35888672 C-34.76474204 57.54010062 -37.7475725 57.72382564 -40.7303009 57.90951538 C-42.56221429 58.02282394 -44.39430881 58.13325913 -46.22660828 58.24014282 C-51.03779372 58.5297445 -55.80841679 58.94107774 -60.59283447 59.52839661 C-63.78279242 59.85591913 -66.95312185 59.82748979 -70.15673828 59.79638672 C-71.37490234 59.78736328 -72.59306641 59.77833984 -73.84814453 59.76904297 C-75.20746094 59.75164062 -75.20746094 59.75164062 -76.59423828 59.73388672 C-76.45791992 60.65669434 -76.45791992 60.65669434 -76.31884766 61.59814453 C-75.9076894 64.39296643 -75.50091969 67.18841003 -75.09423828 69.98388672 C-74.95115234 70.95197266 -74.80806641 71.92005859 -74.66064453 72.91748047 C-74.52529297 73.85205078 -74.38994141 74.78662109 -74.25048828 75.74951172 C-74.06196289 77.03776855 -74.06196289 77.03776855 -73.86962891 78.35205078 C-73.59423828 80.73388672 -73.59423828 80.73388672 -73.59423828 84.73388672 C-72.89298828 84.75451172 -72.19173828 84.77513672 -71.46923828 84.79638672 C-67.22666077 86.17983591 -65.17244255 89.20109416 -62.59423828 92.73388672 C-60.7406045 96.44115428 -61.13432975 100.68793466 -61.59423828 104.73388672 C-64.04975973 109.39091016 -66.54427749 113.05056645 -71.59423828 114.73388672 C-76.98457774 115.33472073 -81.96782077 115.69986361 -86.59423828 112.54638672 C-90.15250753 109.46596658 -92.31477525 107.01500369 -92.90673828 102.18310547 C-93.17416869 96.0071344 -92.67564225 92.41549715 -88.59423828 87.73388672 C-87.93423828 87.07388672 -87.27423828 86.41388672 -86.59423828 85.73388672 C-86.76710252 83.72866154 -86.95985832 81.7237664 -87.23486328 79.72998047 C-87.69622972 75.8835885 -87.92923466 72.03766776 -88.15673828 68.17138672 C-88.20032471 67.44419434 -88.24391113 66.71700195 -88.28881836 65.96777344 C-88.39247583 64.22325352 -88.49362379 62.47858478 -88.59423828 60.73388672 C-89.58423828 61.06388672 -90.57423828 61.39388672 -91.59423828 61.73388672 C-93.04151919 61.86871145 -94.49339207 61.95761558 -95.94580078 62.01513672 C-96.79787109 62.05251953 -97.64994141 62.08990234 -98.52783203 62.12841797 C-99.86007813 62.180625 -99.86007813 62.180625 -101.21923828 62.23388672 C-107.04135951 62.46815985 -112.78537643 62.83470374 -118.57177734 63.52441406 C-121.27368829 63.8042595 -123.94214385 63.83074867 -126.65673828 63.79638672 C-128.06632812 63.78285156 -128.06632812 63.78285156 -129.50439453 63.76904297 C-130.19404297 63.75744141 -130.88369141 63.74583984 -131.59423828 63.73388672 C-131.32160156 65.62494141 -131.32160156 65.62494141 -131.04345703 67.55419922 C-130.78936955 69.32240235 -130.5354793 71.09063383 -130.28173828 72.85888672 C-130.14711182 73.79651855 -130.01248535 74.73415039 -129.8737793 75.70019531 C-129.16241028 80.67771167 -128.46516053 85.65657518 -127.79736328 90.64013672 C-127.66885986 91.59774902 -127.54035645 92.55536133 -127.40795898 93.54199219 C-127.16466298 95.36363349 -126.92347107 97.18555758 -126.68481445 99.0078125 C-126.10156692 103.37204175 -125.4348565 107.69924234 -124.62158203 112.02685547 C-123.42351842 118.46184491 -122.57773196 124.93382678 -121.71923828 131.42138672 C-120.48802564 140.55365192 -119.16048866 149.65303269 -117.59423828 158.73388672 C-115.82045905 169.0179578 -114.35777145 179.33182099 -112.98876953 189.67724609 C-112.15829894 195.89879681 -111.21319576 202.06875052 -110.05419922 208.23754883 C-109.37346594 211.93208058 -108.82334157 215.64183363 -108.28173828 219.35888672 C-108.02434789 221.10243867 -107.76650037 222.84592317 -107.50830078 224.58935547 C-107.36553711 225.55405762 -107.22277344 226.51875977 -107.07568359 227.51269531 C-106.53570403 231.12552006 -105.98375207 234.7364018 -105.43017578 238.34716797 C-103.1460063 253.26058277 -100.92707949 268.17582573 -98.93823242 283.13208008 C-98.1226967 289.19964814 -97.1875162 295.20256491 -95.96801758 301.203125 C-95.54400146 304.07402708 -95.57041065 306.83532019 -95.59423828 309.73388672 C-94.69614441 309.43452209 -93.79805054 309.13515747 -92.8727417 308.82672119 C-92.26913063 308.62551918 -91.66551956 308.42431717 -91.04361725 308.21701813 C-89.66053113 307.75598596 -88.27744922 307.29494116 -86.89437103 306.83388519 C-82.92119356 305.50942929 -78.94793575 304.18521513 -74.97454834 302.86138916 C-66.74659875 300.11978753 -58.51956201 297.37553344 -50.29541016 294.62255859 C-43.44856214 292.33086239 -36.59846885 290.04910878 -29.7452774 287.77645111 C-25.90127995 286.5013295 -22.05888892 285.22174226 -18.21972656 283.93212891 C1.75324781 277.22708427 21.70728221 271.36397342 42.21153259 266.51179504 C46.51660036 265.46335803 50.77614974 264.28163959 55.03076172 263.04638672 C62.52285234 260.90595503 70.08095512 259.16014057 77.68896484 257.48071289 C83.3239525 256.23234794 88.87436076 254.855093 94.38232422 253.11669922 C96.7131526 252.67573169 98.14739812 253.10234537 100.40576172 253.73388672 C60.22325001 270.06658932 60.22325001 270.06658932 40.09326172 277.98388672 C39.43391632 278.24334076 38.77457092 278.5027948 38.09524536 278.77011108 C33.86834815 280.43225606 29.63753811 282.08419599 25.40576172 283.73388672 C24.24584717 284.19037598 23.08593262 284.64686523 21.89086914 285.1171875 C16.08591018 287.38446947 10.35129116 289.45621264 4.34326172 291.10888672 C-2.83239171 293.13549721 -9.84985362 295.49904955 -16.85229492 298.05957031 C-21.77197546 299.83271929 -26.73216705 301.36908013 -31.75830078 302.80810547 C-40.06897803 305.20247936 -48.28131541 307.88563699 -56.49267578 310.59716797 C-57.48873714 310.92577883 -57.48873714 310.92577883 -58.50492096 311.26102829 C-64.75183301 313.3226164 -70.9963177 315.39151139 -77.23974609 317.46362305 C-80.68809224 318.60779075 -84.13783532 319.74765989 -87.58845901 320.88493919 C-88.89277787 321.31583677 -90.19653526 321.74843789 -91.49970627 322.18279457 C-93.30641657 322.78496753 -95.11507876 323.3812747 -96.92382812 323.97729492 C-97.94954926 324.31751175 -98.97527039 324.65772858 -100.03207397 325.008255 C-102.59423828 325.73388672 -102.59423828 325.73388672 -105.59423828 325.73388672 C-108.43521381 309.7844236 -110.73762112 293.79127441 -112.84301758 277.73120117 C-113.94243577 269.36848606 -115.13695943 261.04344567 -116.59423828 252.73388672 C-120.67250066 229.03522784 -120.67250066 229.03522784 -121.94799805 217.39648438 C-122.47886067 212.57462918 -123.1995066 207.81948555 -124.03564453 203.04248047 C-124.74097759 198.86473849 -125.35314957 194.67557028 -125.96923828 190.48388672 C-126.89681068 184.19010994 -127.89482476 177.91483721 -128.97802734 171.64599609 C-131.264592 158.38119357 -133.09444978 145.07056989 -134.84375 131.72631836 C-135.94287235 123.36501721 -137.14330242 115.04299107 -138.59423828 106.73388672 C-138.91703192 104.82783602 -139.23863804 102.92158385 -139.55908203 101.01513672 C-139.71787842 100.07307373 -139.8766748 99.13101074 -140.0402832 98.16040039 C-141.50768025 89.4223535 -142.94641793 80.68068332 -144.28173828 71.92138672 C-144.46047485 70.76896484 -144.46047485 70.76896484 -144.64282227 69.59326172 C-145.533057 63.65922049 -146.09884766 57.71290819 -146.59423828 51.73388672 C-145.02911499 51.65086304 -145.02911499 51.65086304 -143.43237305 51.56616211 C-139.52402766 51.35815063 -135.61587274 51.1467275 -131.70776367 50.93432617 C-130.02324266 50.84324048 -128.33867279 50.75305343 -126.65405273 50.66381836 C-124.21861269 50.53464984 -121.78337255 50.40214238 -119.34814453 50.26904297 C-118.60714005 50.2304567 -117.86613556 50.19187042 -117.10267639 50.15211487 C-112.56373134 49.90018931 -108.06817887 49.48723862 -103.5546875 48.94335938 C-101.03936613 48.67459901 -98.5598109 48.63578006 -96.03173828 48.67138672 C-94.76136719 48.68492187 -94.76136719 48.68492187 -93.46533203 48.69873047 C-92.84787109 48.71033203 -92.23041016 48.72193359 -91.59423828 48.73388672 C-91.64064453 47.80189453 -91.68705078 46.86990234 -91.73486328 45.90966797 C-92.09218606 33.28851713 -89.64816293 22.4234476 -82.59423828 11.73388672 C-81.85753906 10.61046875 -81.85753906 10.61046875 -81.10595703 9.46435547 C-73.632793 -1.00520847 -60.98856181 -9.6664592 -48.18017578 -11.98095703 C-31.17739487 -13.85588604 -13.69686199 -10.87778351 0 0 Z " fill="#F03961" transform="translate(347.59423828125,251.26611328125)"/>
<path d="M0 0 C3.7559652 0.6259942 4.70343994 1.4958222 7 4.5 C7.50120544 7.72546387 7.50120544 7.72546387 7.50170898 11.59179688 C7.50981346 12.65105125 7.50981346 12.65105125 7.51808167 13.73170471 C7.53056791 16.0611489 7.51408018 18.38935679 7.49609375 20.71875 C7.49624874 22.34012924 7.49773776 23.96150885 7.50050354 25.58288574 C7.50188748 28.97908937 7.48933081 32.37487065 7.46655273 35.77099609 C7.4381678 40.12243695 7.44090534 44.47317611 7.45364285 48.82466888 C7.4606007 52.17215967 7.45280959 55.51948851 7.44038582 58.86695862 C7.43587233 60.47131224 7.43553363 62.07568326 7.43945122 63.68003845 C7.44236456 65.92312197 7.42585204 68.16524149 7.40405273 70.40820312 C7.39864975 71.68409302 7.39324677 72.95998291 7.38768005 74.27453613 C6.97727109 77.68910249 6.41144309 79.09743395 4 81.5 C1.27615325 82.24686121 -1.24435296 82.07529166 -4 81.5 C-6.57453221 79.17461607 -7.3971826 76.87577742 -8 73.5 C-8.680625 74.2425 -9.36125 74.985 -10.0625 75.75 C-15.44631132 80.97021484 -19.35088107 82.77093027 -26.875 83.0625 C-35.6690156 82.77340723 -40.89027174 79.99572709 -46.875 73.6875 C-49.97539207 69.88540256 -51.63454748 66.17330932 -53 61.5 C-53.5878125 59.7675 -53.5878125 59.7675 -54.1875 58 C-54.455625 57.175 -54.72375 56.35 -55 55.5 C-55.99 56.49 -55.99 56.49 -57 57.5 C-59.86888581 57.67532289 -62.63992645 57.73137614 -65.5078125 57.6953125 C-66.34843231 57.6924826 -67.18905212 57.68965271 -68.05514526 57.68673706 C-70.74524046 57.6755243 -73.4350051 57.65041803 -76.125 57.625 C-77.94660978 57.6149716 -79.76822477 57.60584551 -81.58984375 57.59765625 C-86.06002358 57.57558142 -90.52995571 57.54104434 -95 57.5 C-94.54605457 58.78457701 -94.08504835 60.06666027 -93.62109375 61.34765625 C-93.36513428 62.06187744 -93.1091748 62.77609863 -92.84545898 63.51196289 C-91.70633095 66.19054204 -90.31096273 67.74927066 -88 69.5 C-82.39545195 71.3186944 -75.00302941 71.97158418 -69.6484375 69.34765625 C-68.33719285 68.43383517 -67.0379612 67.50242949 -65.75390625 66.55078125 C-64 65.5 -64 65.5 -60.5625 65.625 C-58 66.5 -58 66.5 -57 67.5 C-56.375 70.6875 -56.375 70.6875 -57 74.5 C-64.44514318 81.51653153 -72.43198273 82.98120921 -82.328125 82.75390625 C-90.56181117 82.18455561 -96.86591038 78.63408962 -102.6875 72.8125 C-105.59647301 69.16220806 -106.78422282 64.9479653 -108 60.5 C-108.66 60.5 -109.32 60.5 -110 60.5 C-110.0928125 61.7375 -110.0928125 61.7375 -110.1875 63 C-111.89135927 70.33970147 -115.92129459 74.93109569 -121.9375 79.2734375 C-128.62955909 83.25318476 -135.36874733 83.49611484 -143 82.5 C-147.36305819 80.54621295 -150.64330665 77.85669335 -154 74.5 C-154.0093457 75.11520508 -154.01869141 75.73041016 -154.02832031 76.36425781 C-154.08211085 79.16031086 -154.16573819 81.9547062 -154.25 84.75 C-154.27126953 86.20212891 -154.27126953 86.20212891 -154.29296875 87.68359375 C-154.53997182 94.84668266 -154.53997182 94.84668266 -156.859375 98.140625 C-159.81675175 100.01866717 -161.56246755 100.07292207 -165 99.5 C-167.95482669 97.29128587 -168.90007746 96.10465026 -169.50793457 92.4263916 C-169.51111694 91.22156128 -169.51429932 90.01673096 -169.51757812 88.77539062 C-169.5245874 88.10823532 -169.53159668 87.44108002 -169.53881836 86.75370789 C-169.5563863 84.55412857 -169.54478153 82.35584179 -169.53125 80.15625 C-169.5339453 78.6245499 -169.53782804 77.09285147 -169.54284668 75.56115723 C-169.54874004 72.3532683 -169.54018457 69.14582532 -169.52148438 65.93798828 C-169.49869424 61.82853957 -169.51181829 57.72013578 -169.53577423 53.6107254 C-169.550237 50.44850814 -169.54562418 47.28653812 -169.53526306 44.12431335 C-169.53259706 42.60926693 -169.53586112 41.09419796 -169.54518127 39.57917786 C-169.5553556 37.46038468 -169.53983731 35.34327715 -169.51757812 33.22460938 C-169.51280457 31.41736389 -169.51280457 31.41736389 -169.50793457 29.5736084 C-168.89933022 25.89082805 -168.00348226 24.66619651 -165 22.5 C-161.4375 22.5 -161.4375 22.5 -158 23.5 C-155.70678303 25.79321697 -155.03071195 27.40786415 -154 30.5 C-153.45730469 30.00628906 -152.91460937 29.51257813 -152.35546875 29.00390625 C-151.64003906 28.36324219 -150.92460937 27.72257812 -150.1875 27.0625 C-149.47980469 26.42441406 -148.77210938 25.78632813 -148.04296875 25.12890625 C-142.78213744 20.93432373 -135.35827097 22.13222459 -129 22.5 C-121.9203511 23.64372357 -117.45010101 28.10655961 -113 33.5 C-110.79218605 37.13221004 -109.61727645 40.30252016 -109 44.5 C-108.690625 43.38625 -108.38125 42.2725 -108.0625 41.125 C-105.27768307 33.64996507 -99.04520421 27.13443074 -92 23.5 C-84.6668787 20.89198615 -74.43684217 21.3131859 -67.4375 24.5625 C-60.50069581 28.64635653 -56.69843129 34.5298795 -53 41.5 C-52.58041016 40.52160156 -52.58041016 40.52160156 -52.15234375 39.5234375 C-48.25569692 31.02849681 -43.67795313 26.16379203 -35 22.5 C-27.62237181 21.60793385 -20.18078521 21.42975202 -13.61328125 25.234375 C-11.57468495 26.8336612 -9.82023084 28.65894379 -8 30.5 C-7.98598145 29.34999512 -7.98598145 29.34999512 -7.97167969 28.17675781 C-7.91797227 24.70051897 -7.83432424 21.22562526 -7.75 17.75 C-7.73582031 16.5434375 -7.72164062 15.336875 -7.70703125 14.09375 C-7.67480469 12.93359375 -7.64257812 11.7734375 -7.609375 10.578125 C-7.58842773 9.50981445 -7.56748047 8.44150391 -7.54589844 7.34082031 C-6.66879878 2.77645018 -4.54568733 0.75761455 0 0 Z " fill="#161513" transform="translate(616,374.5)"/>
<path d="M0 0 C1.15721809 -0.01891296 1.15721809 -0.01891296 2.33781433 -0.03820801 C3.57692314 -0.02606262 3.57692314 -0.02606262 4.84106445 -0.01367188 C6.13231987 -0.01941223 6.13231987 -0.01941223 7.44966125 -0.02526855 C9.27114023 -0.02798812 11.09265822 -0.02062375 12.9140625 -0.00390625 C15.67774674 0.01737332 18.43879259 -0.00363717 21.20239258 -0.02929688 C22.97778887 -0.02665105 24.75318354 -0.02152083 26.52856445 -0.01367188 C27.34451584 -0.0217688 28.16046722 -0.02986572 29.00114441 -0.03820801 C36.38585265 0.08006749 42.36295261 2.20247989 47.9543457 7.08007812 C52.52514111 12.48192725 52.44012713 16.14537924 52.33325195 23.05664062 C51.78724717 29.02898928 49.78025551 31.95455579 45.2668457 35.95507812 C44.5243457 36.47070312 43.7818457 36.98632812 43.0168457 37.51757812 C43.54793945 37.74832031 44.0790332 37.9790625 44.6262207 38.21679688 C49.2462339 40.34975917 52.10501696 42.20375777 55.0168457 46.51757812 C55.5943457 47.28070313 56.1718457 48.04382813 56.7668457 48.83007812 C57.1793457 49.38695312 57.5918457 49.94382812 58.0168457 50.51757812 C58.9759082 49.40382813 58.9759082 49.40382813 59.9543457 48.26757812 C65.71622136 42.66531121 71.64326217 41.26102713 79.5793457 41.14257812 C85.03583254 41.28530313 89.83523653 41.82562411 95.0168457 43.51757812 C94.84353208 39.09808086 94.53779898 37.06866264 91.45043945 33.80273438 C87.91220617 31.04486991 84.56681155 30.89909407 80.2043457 31.14257812 C79.50092041 31.1603833 78.79749512 31.17818848 78.07275391 31.1965332 C74.24660689 31.31779521 70.49123497 31.66320417 66.7043457 32.20507812 C63.0168457 32.51757812 63.0168457 32.51757812 61.30981445 31.19335938 C60.0168457 29.51757812 60.0168457 29.51757812 59.6418457 27.01757812 C60.09328795 24.00796316 60.70045199 23.41466878 63.0168457 21.51757812 C72.61292217 17.25460448 85.70354698 16.60242307 95.6418457 20.08007812 C101.13744761 22.69835311 104.75786097 26.45779297 107.0703125 32.07788086 C108.23656883 36.31605096 108.32253124 40.15616057 108.31762695 44.52929688 C108.32191208 45.37933792 108.3261972 46.22937897 108.33061218 47.10517883 C108.33633132 48.89278271 108.33687365 50.68040985 108.33251953 52.46801758 C108.32934354 55.20694185 108.35290324 57.94480155 108.37817383 60.68359375 C108.38044542 62.42382676 108.38115097 64.16406268 108.38012695 65.90429688 C108.3893367 66.72306808 108.39854645 67.54183929 108.40803528 68.38542175 C108.36153933 74.06766227 108.36153933 74.06766227 106.7084198 76.22541809 C105.0168457 77.51757812 105.0168457 77.51757812 101.5793457 78.01757812 C98.0168457 77.51757812 98.0168457 77.51757812 95.5793457 75.01757812 C94.8059082 73.78007812 94.8059082 73.78007812 94.0168457 72.51757812 C93.47415039 72.86691406 92.93145508 73.21625 92.37231445 73.57617188 C91.65688477 74.03121094 90.94145508 74.48625 90.2043457 74.95507812 C89.49665039 75.40753906 88.78895508 75.86 88.05981445 76.32617188 C82.28312042 79.69498962 75.48212054 79.03626119 69.0168457 78.51757812 C63.53582923 76.88909275 60.36163955 72.9135929 57.0168457 68.51757812 C56.0268457 67.52757812 56.0268457 67.52757812 55.0168457 66.51757812 C54.2743457 67.28070313 53.5318457 68.04382813 52.7668457 68.83007812 C45.31391102 76.11362793 37.58036111 77.98385905 27.30981445 77.98632812 C26.42199783 77.99394165 25.53418121 78.00155518 24.61946106 78.00939941 C22.75984491 78.02012515 20.9001689 78.02308448 19.04052734 78.01855469 C16.19373857 78.01757447 13.34957995 78.05944224 10.50317383 78.10351562 C8.68872629 78.10871774 6.87426945 78.1114109 5.05981445 78.11132812 C4.21186813 78.12772339 3.36392181 78.14411865 2.49028015 78.16101074 C1.30303093 78.14705261 1.30303093 78.14705261 0.09179688 78.1328125 C-0.94670158 78.13589417 -0.94670158 78.13589417 -2.00617981 78.13903809 C-5.19842312 77.13555958 -6.25898439 75.31400971 -7.9831543 72.51757812 C-8.49108887 69.36167908 -8.49108887 69.36167908 -8.50073242 65.77124023 C-8.5077417 65.11369247 -8.51475098 64.45614471 -8.52197266 63.77867126 C-8.53950018 61.61698498 -8.52795174 59.45662017 -8.5144043 57.29492188 C-8.51710044 55.78707123 -8.52098388 54.27922228 -8.52600098 52.77137756 C-8.53188857 49.61654043 -8.5233563 46.46215728 -8.50463867 43.30737305 C-8.4818292 39.26632858 -8.49498837 35.22634563 -8.51892853 31.18533993 C-8.5333902 28.07373571 -8.52877933 24.96238278 -8.51841736 21.85077095 C-8.51575207 20.36084428 -8.51901292 18.87089468 -8.52833557 17.3809948 C-8.53851037 15.29822299 -8.52299215 13.21716573 -8.50073242 11.13452148 C-8.49755005 9.95047226 -8.49436768 8.76642303 -8.49108887 7.54649353 C-7.66407623 2.61485179 -5.04363808 0.02379412 0 0 Z " fill="#161513" transform="translate(280.983154296875,378.482421875)"/>
<path d="M0 0 C2.90821787 2.90821787 2.47390503 6.02141026 2.625 9.9375 C2.65682027 10.73870836 2.68864054 11.53991673 2.72142506 12.36540413 C3.49801809 34.1374169 2.66907429 55.45567159 0.55078125 77.1328125 C0.29129557 79.86882298 0.03553102 82.60517848 -0.22041321 85.34152222 C-0.75614388 91.04847468 -1.3008182 96.75450932 -1.85229492 102.45996094 C-2.61192086 110.31894406 -3.35549661 118.17938005 -4.09555602 126.04022646 C-6.75556756 154.27298009 -9.50080928 182.49656629 -12.45549011 210.70022583 C-13.47312311 220.46033199 -14.39689336 230.20372995 -15 240 C-13.9275 239.67 -12.855 239.34 -11.75 239 C0.83609773 235.94748421 13.67550519 238.74252253 24.734375 245.31640625 C30.98017381 249.95768088 37.55160906 255.95853039 41 263 C40.67 263.66 40.34 264.32 40 265 C39.56171875 264.56429688 39.1234375 264.12859375 38.671875 263.6796875 C29.78212275 255.33199332 18.37943263 249.4193592 5.98828125 249.7578125 C-5.27277557 250.67047331 -14.41292634 253.13262349 -24.3046875 258.57421875 C-27 260 -27 260 -29 260 C-29.18672964 250.53834449 -28.62796468 241.27245918 -27.70239258 231.86132812 C-27.56219664 230.3888237 -27.42254436 228.91626742 -27.28338623 227.44366455 C-26.90629922 223.46938986 -26.5217023 219.49587463 -26.13572145 215.52245522 C-25.72649461 211.2956332 -25.32443297 207.06812922 -24.92155457 202.84069824 C-24.15325347 194.78999797 -23.37877113 186.73990515 -22.60197037 178.69002104 C-21.56852549 167.97741627 -20.54384243 157.26397425 -19.51930785 146.55051422 C-18.60785068 137.01990132 -17.69392911 127.48954378 -16.77175903 117.95996094 C-16.44728985 114.60354662 -16.12314395 111.24710128 -15.79931641 107.890625 C-15.7207441 107.07624214 -15.64217179 106.26185928 -15.5612185 105.42279816 C-14.51608988 94.57226949 -13.52066029 83.71874594 -12.57177734 72.859375 C-12.25316149 69.27167195 -11.93373177 65.68404209 -11.6142025 62.09642029 C-11.33823103 58.94144209 -11.07833051 55.78545266 -10.8195343 52.62902832 C-9.26023445 34.59743092 -5.28258217 17.2938165 0 0 Z " fill="#F03961" transform="translate(190,309)"/>
<path d="M0 0 C9.27445595 7.82183032 15.4889173 16.9572372 17.46875 29.0625 C17.48483085 30.72908909 17.48698187 32.39593306 17.46875 34.0625 C16.36474854 34.08755615 15.26074707 34.1126123 14.12329102 34.13842773 C9.99135549 34.23325363 5.85955898 34.33328457 1.7277832 34.43481445 C-0.05375902 34.47788116 -1.83533507 34.51957346 -3.61694336 34.55981445 C-6.19134677 34.61820893 -8.76558432 34.6816963 -11.33984375 34.74609375 C-12.12459579 34.76280624 -12.90934784 34.77951874 -13.71788025 34.79673767 C-18.26769604 34.91612463 -22.72219581 35.27802558 -27.24034119 35.81748962 C-31.27671659 36.24917588 -35.32493795 36.41370467 -39.37890625 36.59765625 C-40.27620956 36.64063339 -41.17351288 36.68361053 -42.0980072 36.72789001 C-44.92980307 36.86291684 -47.7617641 36.99402578 -50.59375 37.125 C-52.52800713 37.21653658 -54.46225207 37.30833104 -56.39648438 37.40039062 C-61.1079374 37.62407298 -65.81954257 37.84424479 -70.53125 38.0625 C-70.58223398 35.52708542 -70.61923897 32.99271499 -70.6484375 30.45703125 C-70.66414795 29.7467981 -70.6798584 29.03656494 -70.69604492 28.30480957 C-70.79113205 17.26519416 -65.90846124 9.34430727 -58.34765625 1.546875 C-41.21560571 -13.56544698 -18.11610747 -13.86665016 0 0 Z " fill="#FEFCFD" transform="translate(339.53125,260.9375)"/>
<path d="M0 0 C4.74314103 3.87900603 6.75338542 8.04075617 8 14 C8.27913369 16.96623503 8.30423586 19.91263864 8.30078125 22.890625 C8.30506638 23.71705505 8.3093515 24.54348511 8.31376648 25.3949585 C8.31947695 27.12950732 8.32003444 28.86408007 8.31567383 30.59863281 C8.3124925 33.25626855 8.33608628 35.91281235 8.36132812 38.5703125 C8.36359928 40.26041527 8.36430547 41.95052102 8.36328125 43.640625 C8.372491 44.43438538 8.38170074 45.22814575 8.39118958 46.04595947 C8.34540413 51.47047949 8.34540413 51.47047949 6.69604492 53.99902344 C3.79662107 55.71021356 1.26234683 55.34953716 -2 55 C-4.61593153 53.16884793 -4.96989455 52.09031634 -6 49 C-6.886875 49.78375 -7.77375 50.5675 -8.6875 51.375 C-14.37253152 56.39898134 -20.2311383 56.44610331 -27.55078125 56.30078125 C-33.37061212 55.79327618 -36.8076037 54.31997109 -40.8125 50.08203125 C-44.39588036 45.39543425 -45.91509113 41.34078131 -45.51953125 35.42578125 C-44.319874 29.8243741 -41.45176034 26.17376368 -37.0625 22.625 C-28.1726059 17.90791333 -17.78876025 17.56408509 -8.0625 20 C-7.051875 20.33 -6.04125 20.66 -5 21 C-6.03612624 14.6641528 -6.03612624 14.6641528 -10 10 C-17.68101035 7.43966322 -27.11966948 8.76108786 -35.01171875 10.07421875 C-37 10 -37 10 -38.73828125 8.671875 C-40 7 -40 7 -40.5 4.5625 C-40 2 -40 2 -37.9375 -0.1875 C-27.5747898 -6.58151268 -10.39770481 -6.15891923 0 0 Z " fill="#161513" transform="translate(689,401)"/>
<path d="M0 0 C4.00523269 3.12467413 5.58134986 7.11988187 7.3828125 11.72265625 C7.68315399 12.46454697 7.98349548 13.20643768 8.29293823 13.97080994 C9.24660898 16.33095955 10.18642268 18.69631238 11.125 21.0625 C12.07306864 23.43122856 13.02402531 25.79874125 13.97848511 28.16490173 C14.57040684 29.63451877 15.15823942 31.10579105 15.7414856 32.57887268 C16.96101469 35.62539746 18.17190764 38.25786147 20 41 C20.37286133 40.00145996 20.74572266 39.00291992 21.12988281 37.97412109 C22.52371525 34.2475686 23.92760875 30.52487286 25.33447266 26.80322266 C25.94038766 25.19617449 26.54361973 23.58811196 27.14404297 21.97900391 C28.01075204 19.65771841 28.88724921 17.34032953 29.765625 15.0234375 C30.02933899 14.31069672 30.29305298 13.59795593 30.5647583 12.86361694 C32.35448382 8.18047642 34.39488587 3.60511413 38 0 C44.6 0.6 44.6 0.6 47 3 C47.3963801 9.65498386 44.82356497 15.73812252 42.24609375 21.72265625 C41.67738304 23.07827919 41.67738304 23.07827919 41.09718323 24.46128845 C40.29488947 26.36709147 39.48691938 28.27051383 38.67358398 30.17163086 C37.45350039 33.02507939 36.25163296 35.88564257 35.05273438 38.74804688 C31.45552846 47.2868615 27.76038849 55.78016863 23.72265625 64.12109375 C23.41943954 64.76627457 23.11622284 65.41145538 22.80381775 66.07618713 C20.35570371 70.99909981 17.41853521 73.79646352 12.52734375 76.23046875 C6.85622376 77.95722399 1.0112272 77.58949763 -4.625 75.9375 C-7 74 -7 74 -8.0625 70.5 C-8 67 -8 67 -6.93359375 65.27734375 C-3.22512091 62.82750412 1.47653401 64.03141921 5.75 64.28515625 C9.00664887 64.3058037 9.00664887 64.3058037 11 62.37109375 C12.56165463 58.66826423 11.62887451 55.65277137 10.22171021 51.95454407 C9.19650585 49.56462089 8.12493306 47.20101967 7.03515625 44.83984375 C6.64178574 43.97235001 6.24841522 43.10485626 5.84312439 42.21107483 C4.58957246 39.45013009 3.32636677 36.69373603 2.0625 33.9375 C0.80430056 31.17677885 -0.45191314 28.41516339 -1.70741272 25.6532135 C-2.48780717 23.93829095 -3.27014216 22.22424977 -4.05467224 20.51121521 C-9.58755899 8.40554275 -9.58755899 8.40554275 -9 3 C-6.79244709 -0.67925486 -4.01747809 -0.57392544 0 0 Z " fill="#151413" transform="translate(399,397)"/>
<path d="M0 0 C5.44189799 1.813966 8.7783325 5.38262638 12 10 C13.99374888 15.98124663 13.99908576 22.67434022 11.3125 28.4375 C9.02347568 32.41274509 6.10501204 34.94749398 2 37 C-3.43296471 37.49612402 -8.36153674 37.68517555 -13.4375 35.5625 C-18.23138078 30.76861922 -21.25457019 25.82875669 -21.5625 18.9375 C-21.23429953 13.2250378 -19.49336869 8.55697504 -15.46875 4.4296875 C-10.27570353 -0.02513177 -6.64974396 -0.59633914 0 0 Z " fill="#FAFAFA" transform="translate(481,408)"/>
<path d="M0 0 C4.20872374 3.63142093 5.53716601 6.48158524 6.140625 11.875 C6.31943796 17.18350968 6.33891093 21.29193439 4.078125 26.1484375 C-0.69466451 31.05022132 -3.99488666 33.67586847 -10.859375 34.0234375 C-16.77661694 33.99498922 -19.55912608 32.54456934 -23.7109375 28.4453125 C-28.45276728 22.46331186 -28.05004022 15.89738064 -27.234375 8.5234375 C-25.48182826 3.8942005 -22.6382689 -0.06152391 -18.234375 -2.4765625 C-11.64313615 -5.06597776 -5.59429801 -3.98648795 0 0 Z " fill="#FBFBFB" transform="translate(603.234375,411.4765625)"/>
<path d="M0 0 C2.55123816 2.01212259 3.83825875 3.21423013 4.50120544 6.43495178 C4.50137161 7.34079514 4.50153778 8.24663849 4.50170898 9.17993164 C4.51108994 10.21102554 4.52047089 11.24211945 4.53013611 12.30445862 C4.51890213 13.41183884 4.50766815 14.51921906 4.49609375 15.66015625 C4.49754898 16.80157578 4.49900421 17.9429953 4.50050354 19.1190033 C4.49884422 21.53061477 4.4872794 23.94223679 4.46655273 26.35375977 C4.43758186 30.05205062 4.44594727 33.74890999 4.45898438 37.44726562 C4.45274763 39.78906949 4.44435719 42.13086882 4.43359375 44.47265625 C4.43652939 45.5820607 4.43946503 46.69146515 4.44248962 47.83448792 C4.42346336 49.37640053 4.42346336 49.37640053 4.40405273 50.94946289 C4.39864975 51.85451065 4.39324677 52.75955841 4.38768005 53.69203186 C3.92024113 56.47482695 3.28153019 57.37284354 1 59 C-5.08081555 59.65151595 -5.08081555 59.65151595 -7.69448853 57.7989502 C-9.44869719 55.38171061 -9.3805176 53.81542777 -9.38818359 50.84179688 C-9.39764008 49.79060669 -9.40709656 48.7394165 -9.4168396 47.65637207 C-9.41076691 46.52195679 -9.40469421 45.3875415 -9.3984375 44.21875 C-9.40130768 43.05371948 -9.40417786 41.88868896 -9.40713501 40.68835449 C-9.40917767 38.22370925 -9.40363379 35.75904788 -9.39111328 33.29443359 C-9.37506341 29.51493185 -9.39095614 25.7364996 -9.41015625 21.95703125 C-9.40817386 19.5651018 -9.40433026 17.17317301 -9.3984375 14.78125 C-9.40451019 13.64683472 -9.41058289 12.51241943 -9.4168396 11.34362793 C-9.40738312 10.29243774 -9.39792664 9.24124756 -9.38818359 8.15820312 C-9.38579681 7.23237427 -9.38341003 6.30654541 -9.38095093 5.35266113 C-8.50295276 -0.06964398 -4.96513696 -0.70930528 0 0 Z " fill="#11100E" transform="translate(638,397)"/>
<path d="M0 0 C4.00262009 -0.09230898 8.00249678 -0.17179076 12.00561523 -0.21972656 C13.36446713 -0.23972628 14.72323424 -0.26693576 16.08178711 -0.30175781 C30.19935303 -0.65430812 30.19935303 -0.65430812 36 4 C37.60306924 7.20613847 37.48740461 10.52139997 37 14 C34.83658005 17.55418992 32.85660219 19.51268939 29 21 C25.88378906 21.22705078 25.88378906 21.22705078 22.265625 21.1953125 C20.97011719 21.18886719 19.67460937 21.18242187 18.33984375 21.17578125 C16.97655981 21.15907193 15.61327856 21.14214206 14.25 21.125 C12.87110015 21.1149634 11.49219335 21.10583873 10.11328125 21.09765625 C6.74211277 21.07408165 3.37103436 21.03821072 0 21 C0 14.07 0 7.14 0 0 Z " fill="#FCFCFC" transform="translate(287,423)"/>
<path d="M0 0 C4.04207139 -0.08108167 8.08250908 -0.14054629 12.125 -0.1875 C13.26710938 -0.21263672 14.40921875 -0.23777344 15.5859375 -0.26367188 C26.35107918 -0.35755392 26.35107918 -0.35755392 31 3 C33.11977368 6.17966051 33.53084554 8.20008693 33.4609375 11.99609375 C32.60751012 15.70633313 30.08342097 16.96494216 27 19 C24.33821779 20.3308911 22.31260604 20.11268993 19.3359375 20.09765625 C18.21445312 20.09443359 17.09296875 20.09121094 15.9375 20.08789062 C14.761875 20.07951172 13.58625 20.07113281 12.375 20.0625 C11.19164062 20.05798828 10.00828125 20.05347656 8.7890625 20.04882812 C5.85935361 20.03701478 2.92967059 20.0190789 0 20 C0 13.4 0 6.8 0 0 Z " fill="#FDFDFD" transform="translate(287,391)"/>
<path d="M0 0 C-0.11569465 4.82762215 -0.25480659 8.05340296 -3.3125 11.9375 C-9.27211875 16.5111609 -14.57988036 16.9616799 -22 16 C-25.27747006 13.98309535 -26.53890234 12.80082235 -27.49609375 9.0625 C-27.86248441 5.11445367 -27.21277883 3.30949648 -24.9375 0 C-18.27544445 -4.74491726 -7.11109147 -2.73250274 0 0 Z " fill="#F9F9F9" transform="translate(377,431)"/>
<path d="M0 0 C1.2890625 0.00386719 2.578125 0.00773437 3.90625 0.01171875 C7.23323966 0.29017332 9.51825509 0.87323467 12.5 2.3125 C13.2162143 9.11653581 13.2162143 9.11653581 11.26953125 12.3671875 C8.04189412 16.20847415 5.96648082 18.09817617 0.7578125 18.55078125 C-7.60951996 18.74900982 -7.60951996 18.74900982 -11.6875 16.75 C-14.07070922 13.54499449 -14.42911018 11.28232998 -14.5 7.3125 C-13.69435297 4.41217069 -12.78958308 3.52995445 -10.3828125 1.72265625 C-6.73618976 -0.06112533 -4.0450884 -0.05258615 0 0 Z " fill="#FAFAFA" transform="translate(671.5,428.6875)"/>
<path d="M0 0 C3.47948823 2.26923145 5.55289235 4.42501149 7.875 7.875 C8.205 10.185 8.535 12.495 8.875 14.875 C-1.025 14.875 -10.925 14.875 -21.125 14.875 C-19.99454662 6.96182635 -19.99454662 6.96182635 -17.3125 4.0625 C-16.81105469 3.49917969 -16.30960938 2.93585938 -15.79296875 2.35546875 C-11.00546095 -1.89386487 -5.96210222 -2.1463568 0 0 Z " fill="#F2F2F2" transform="translate(541.125,408.125)"/>
<path d="M0 0 C1.9375 1.1875 1.9375 1.1875 3 3 C3.53520313 6.59350675 3.44814771 8.31881548 1.4375 11.375 C-1.91283535 13.6085569 -4.0481433 13.49398209 -8 13 C-10.4375 11.9375 -10.4375 11.9375 -12 10 C-12.5625 6.5625 -12.5625 6.5625 -12 3 C-8.31376997 -1.46815761 -5.41712863 -1.50475795 0 0 Z " fill="#1A1917" transform="translate(640,376)"/>
<path d="M0 0 C1.9375 1.125 1.9375 1.125 3 3 C3.39365568 6.14924548 3.52854531 8.11909116 1.875 10.875 C-0.92446741 12.55468045 -2.79804064 12.45742277 -6 12 C-8.83171242 9.98799381 -9.84987863 8.87928233 -10.4375 5.4375 C-10 3 -10 3 -8.9375 1.1875 C-5.90624457 -0.67036623 -3.46577141 -0.37133265 0 0 Z " fill="#2F383B" transform="translate(529,478)"/>
<path d="M0 0 C2 2 2 2 2.3125 5.4375 C2 9 2 9 0.875 10.9375 C-1.88980433 12.50422245 -3.88188517 12.38976435 -7 12 C-8.875 10.9375 -8.875 10.9375 -10 9 C-10.375 5.4375 -10.375 5.4375 -10 2 C-6.32653229 -0.44897847 -4.33643601 -0.31537716 0 0 Z " fill="#1C2629" transform="translate(337,478)"/>
<path d="M0 0 C6.625 -0.25 6.625 -0.25 10 2 C10.1875 5.125 10.1875 5.125 10 8 C9.34 8 8.68 8 8 8 C8.66 9.65 9.32 11.3 10 13 C6.73045798 12.43628586 5.17424117 11.50037734 3 9 C3 10.32 3 11.64 3 13 C2.01 13 1.02 13 0 13 C0 8.71 0 4.42 0 0 Z " fill="#4E5557" transform="translate(545,477)"/>
<path d="M0 0 C4 2 4 2 6 5 C6.33 3.35 6.66 1.7 7 0 C7.99 0 8.98 0 10 0 C10 3.96 10 7.92 10 12 C9.01 12 8.02 12 7 12 C4.8125 9 4.8125 9 3 6 C2.67 7.98 2.34 9.96 2 12 C1.34 12 0.68 12 0 12 C0 8.04 0 4.08 0 0 Z " fill="#232C2F" transform="translate(415,478)"/>
<path d="M0 0 C0.99 0 1.98 0 3 0 C5.1875 3 5.1875 3 7 6 C7.33 4.02 7.66 2.04 8 0 C8.66 0 9.32 0 10 0 C10 3.96 10 7.92 10 12 C6 10 6 10 4 7 C3.67 8.65 3.34 10.3 3 12 C2.01 12 1.02 12 0 12 C0 8.04 0 4.08 0 0 Z " fill="#2A3336" transform="translate(353,478)"/>
<path d="M0 0 C1.134375 0.020625 2.26875 0.04125 3.4375 0.0625 C3.7675 1.3825 4.0975 2.7025 4.4375 4.0625 C3.4475 4.0625 2.4575 4.0625 1.4375 4.0625 C1.4375 3.4025 1.4375 2.7425 1.4375 2.0625 C0.4475 2.0625 -0.5425 2.0625 -1.5625 2.0625 C-0.18558038 4.81633923 1.80470042 5.57733101 4.4375 7.0625 C4.1075 8.7125 3.7775 10.3625 3.4375 12.0625 C-2.3125 12.1875 -2.3125 12.1875 -4.5625 11.0625 C-4.5625 10.0725 -4.5625 9.0825 -4.5625 8.0625 C-2.5825 8.7225 -0.6025 9.3825 1.4375 10.0625 C1.4375 9.0725 1.4375 8.0825 1.4375 7.0625 C-0.2125 6.7325 -1.8625 6.4025 -3.5625 6.0625 C-3.94468767 4.40635343 -4.27645102 2.73792976 -4.5625 1.0625 C-3.5625 0.0625 -3.5625 0.0625 0 0 Z " fill="#2C3538" transform="translate(479.5625,477.9375)"/>
<path d="M0 0 C2.64 0 5.28 0 8 0 C8 0.66 8 1.32 8 2 C6.35 2 4.7 2 3 2 C3 2.99 3 3.98 3 5 C4.32 5 5.64 5 7 5 C7 5.66 7 6.32 7 7 C5.68 7 4.36 7 3 7 C3 7.99 3 8.98 3 10 C4.65 10 6.3 10 8 10 C8 10.66 8 11.32 8 12 C5.36 12 2.72 12 0 12 C0 8.04 0 4.08 0 0 Z " fill="#172124" transform="translate(439,478)"/>
<path d="M0 0 C2.31 0 4.62 0 7 0 C7 0.66 7 1.32 7 2 C5.35 2 3.7 2 2 2 C2 2.99 2 3.98 2 5 C3.65 5 5.3 5 7 5 C7 5.66 7 6.32 7 7 C5.35 7 3.7 7 2 7 C2 7.99 2 8.98 2 10 C3.98 10 5.96 10 8 10 C8 10.66 8 11.32 8 12 C5.36 12 2.72 12 0 12 C0 8.04 0 4.08 0 0 Z " fill="#141E21" transform="translate(569,478)"/>
<path d="M0 0 C3.3 0 6.6 0 10 0 C10 0.66 10 1.32 10 2 C8.68 2 7.36 2 6 2 C6 5.3 6 8.6 6 12 C5.01 12 4.02 12 3 12 C3 9.03 3 6.06 3 3 C2.01 3 1.02 3 0 3 C0 2.01 0 1.02 0 0 Z " fill="#2D3639" transform="translate(497,478)"/>
<path d="M0 0 C0.99 0 1.98 0 3 0 C3 2.97 3 5.94 3 9 C4.65 9 6.3 9 8 9 C8 9.99 8 10.98 8 12 C5.36 12 2.72 12 0 12 C0 8.04 0 4.08 0 0 Z " fill="#252E31" transform="translate(377,478)"/>
<path d="M0 0 C1.67542976 0.28604898 3.34385343 0.61781233 5 1 C5.38218767 2.65614657 5.71395102 4.32457024 6 6 C5 7 5 7 1.9375 7.0625 C0.4834375 7.0315625 0.4834375 7.0315625 -1 7 C-1.04254356 5.00045254 -1.04080783 2.99958364 -1 1 C-0.67 0.67 -0.34 0.34 0 0 Z " fill="#E8E9EA" transform="translate(331,480)"/>
<path d="M0 0 C2.625 0.375 2.625 0.375 5 1 C5.042721 2.66611905 5.04063832 4.33382885 5 6 C4 7 4 7 1.4375 7.0625 C0.2309375 7.0315625 0.2309375 7.0315625 -1 7 C-1.625 4.625 -1.625 4.625 -2 2 C-1.34 1.34 -0.68 0.68 0 0 Z " fill="#EDEEEE" transform="translate(524,480)"/>
<path d="M0 0 C4.5 2.25 4.5 2.25 6 6 C5.01 6 4.02 6 3 6 C2.67 7.98 2.34 9.96 2 12 C1.34 12 0.68 12 0 12 C0 8.04 0 4.08 0 0 Z " fill="#172124" transform="translate(415,478)"/>
<path d="M0 0 C0.99 0 1.98 0 3 0 C3 3.96 3 7.92 3 12 C2.01 12 1.02 12 0 12 C0 8.04 0 4.08 0 0 Z " fill="#252E31" transform="translate(398,478)"/>
<path d="M0 0 C0.66 0 1.32 0 2 0 C2 3.96 2 7.92 2 12 C-2 10 -2 10 -3 7 C-2.01 7 -1.02 7 0 7 C0 4.69 0 2.38 0 0 Z " fill="#161F22" transform="translate(361,478)"/>
<path d="M0 0 C0.66 0 1.32 0 2 0 C2 1.65 2 3.3 2 5 C3.65 5 5.3 5 7 5 C6.01 5.33 5.02 5.66 4 6 C4 6.66 4 7.32 4 8 C2.68 7.67 1.36 7.34 0 7 C-0.38133299 5.0085944 -0.71325582 3.00720923 -1 1 C-0.67 0.67 -0.34 0.34 0 0 Z " fill="#373F42" transform="translate(328,482)"/>
<path d="M0 0 C0.33 0 0.66 0 1 0 C1.268125 0.969375 1.53625 1.93875 1.8125 2.9375 C2.204375 3.948125 2.59625 4.95875 3 6 C3.99 6.33 4.98 6.66 6 7 C6 7.66 6 8.32 6 9 C0.125 8.125 0.125 8.125 -1 7 C-1.125 4 -1.125 4 -1 1 C-0.67 0.67 -0.34 0.34 0 0 Z " fill="#1A2427" transform="translate(521,481)"/>
<path d="M0 0 C-3.63 1.32 -7.26 2.64 -11 4 C-11 3.34 -11 2.68 -11 2 C-11.66 1.67 -12.32 1.34 -13 1 C-11.58622218 0.63447197 -10.16879424 0.28304505 -8.75 -0.0625 C-7.96109375 -0.25972656 -7.1721875 -0.45695312 -6.359375 -0.66015625 C-4 -1 -4 -1 0 0 Z " fill="#F46E8B" transform="translate(448,505)"/>
</svg>
