<?xml version="1.0" standalone="no"?>
<!DOCTYPE svg PUBLIC "-//W3C//DTD SVG 20010904//EN"
 "http://www.w3.org/TR/2001/REC-SVG-20010904/DTD/svg10.dtd">
<svg version="1.0" xmlns="http://www.w3.org/2000/svg"
 width="512.000000pt" height="512.000000pt" viewBox="0 0 512.000000 512.000000"
 preserveAspectRatio="xMidYMid meet">

<g transform="translate(0.000000,512.000000) scale(0.100000,-0.100000)"
fill="#000000" stroke="none">
<path d="M4778 5106 c-51 -18 -167 -95 -178 -117 -26 -48 10 -109 64 -109 16
0 53 18 89 42 51 35 70 43 109 43 60 0 98 -32 98 -83 0 -30 -11 -45 -84 -115
-93 -91 -106 -114 -202 -345 l-58 -143 -106 -64 -105 -64 -124 124 -124 123
62 105 c58 98 67 109 136 154 96 63 114 97 74 147 -32 40 -70 35 -159 -24 -96
-63 -102 -70 -185 -210 l-68 -115 -665 -667 c-367 -367 -679 -673 -694 -679
-81 -33 -175 51 -153 138 4 17 74 96 180 203 95 96 180 190 189 208 25 48 31
123 15 179 -18 67 -103 152 -184 183 -83 32 -196 32 -280 1 -55 -21 -80 -44
-281 -245 -258 -259 -296 -310 -443 -604 -91 -181 -109 -209 -169 -270 -37
-37 -93 -81 -127 -99 -33 -17 -220 -88 -415 -158 -195 -70 -395 -147 -445
-171 -237 -115 -420 -334 -501 -599 -26 -83 -28 -104 -28 -265 -1 -194 9 -248
69 -392 63 -149 107 -202 499 -596 204 -206 400 -396 436 -423 447 -337 1085
-231 1399 234 55 81 103 197 236 567 70 195 138 375 152 400 74 131 149 188
408 314 233 113 290 151 424 280 116 113 141 154 141 236 0 166 -170 277 -318
210 -25 -11 -88 -63 -146 -119 -104 -101 -139 -121 -211 -121 -65 1 -151 61
-174 123 -15 40 -14 112 3 150 8 19 331 348 772 788 l759 755 119 70 c65 38
130 83 143 99 13 17 56 107 95 200 80 192 108 237 176 292 26 21 53 45 60 53
99 117 60 290 -83 362 -50 26 -147 33 -197 14z m-2497 -2357 c19 -10 14 -18
-70 -104 -129 -133 -133 -116 87 -338 97 -98 187 -183 200 -188 13 -5 31 -23
40 -40 9 -18 38 -59 65 -92 l47 -60 -65 -68 c-54 -56 -65 -73 -65 -101 0 -19
5 -39 11 -45 7 -7 -1 -28 -29 -71 -21 -33 -45 -74 -52 -91 -10 -24 -19 -31
-40 -31 -15 0 -37 -8 -49 -17 -15 -12 -64 -136 -156 -391 -74 -206 -143 -390
-152 -410 -10 -21 -41 -61 -69 -90 -43 -42 -59 -52 -86 -52 -69 0 -73 11 -73
177 0 139 -2 152 -28 214 -26 63 -26 68 -12 102 18 43 19 97 4 152 -9 33 -55
85 -263 293 -138 140 -267 262 -286 272 -20 10 -57 21 -84 25 l-48 8 6 51 c9
80 34 141 77 190 54 61 86 79 225 126 145 50 261 106 354 171 39 28 156 133
259 235 192 186 207 197 252 173z"/>
<path d="M1991 2298 c-13 -5 -30 -16 -37 -26 -31 -40 -18 -61 118 -199 113
-114 136 -133 163 -133 39 0 75 36 75 75 0 23 -23 52 -122 151 -125 127 -156
148 -197 132z"/>
<path d="M1752 2070 c-15 -14 -22 -33 -22 -58 0 -34 10 -47 129 -164 138 -138
155 -147 205 -107 20 15 26 29 26 57 0 34 -10 47 -129 164 -139 138 -163 151
-209 108z"/>
<path d="M1530 1848 c-43 -47 -31 -71 109 -211 124 -124 130 -128 166 -125 49
4 81 42 70 85 -4 17 -54 75 -129 150 -112 112 -126 123 -159 123 -24 0 -43 -7
-57 -22z"/>
</g>
</svg>
