<?xml version="1.0" standalone="no"?>
<!DOCTYPE svg PUBLIC "-//W3C//DTD SVG 20010904//EN"
 "http://www.w3.org/TR/2001/REC-SVG-20010904/DTD/svg10.dtd">
<svg version="1.0" xmlns="http://www.w3.org/2000/svg"
 width="512.000000pt" height="512.000000pt" viewBox="0 0 512.000000 512.000000"
 preserveAspectRatio="xMidYMid meet">

<g transform="translate(0.000000,512.000000) scale(0.100000,-0.100000)"
fill="#007BFF" stroke="none">
<path d="M1260 4871 c-83 -26 -150 -82 -191 -161 -23 -43 -24 -56 -27 -272
l-3 -228 25 -25 c33 -33 79 -33 111 0 25 24 25 25 25 227 0 230 7 259 70 291
33 16 110 17 1295 15 1196 -3 1262 -4 1288 -21 16 -10 37 -32 47 -50 20 -31
20 -68 20 -2090 0 -2271 5 -2097 -63 -2134 -30 -17 -107 -18 -1302 -18 -1254
0 -1270 0 -1297 20 -62 45 -58 -70 -58 1684 l0 1602 -25 24 c-32 33 -78 33
-111 0 l-24 -24 2 -1628 3 -1628 24 -45 c32 -61 76 -107 136 -138 l50 -27
1305 0 1305 0 49 24 c63 31 115 83 146 146 l25 50 0 2095 0 2095 -28 57 c-34
69 -91 121 -164 148 -53 20 -75 20 -1331 19 -702 0 -1288 -4 -1302 -8z"/>
<path fill="#FF5733" d="M1865 4535 c-16 -15 -25 -36 -25 -55 0 -19 9 -40 25 -55 l24 -25 671
0 671 0 24 25 c33 32 33 78 0 110 l-24 25 -671 0 -671 0 -24 -25z"/>
<path fill="#28A745" d="M1491 4214 c-59 -30 -105 -85 -121 -145 -7 -24 -9 -522 -8 -1451 l3
-1415 30 -49 c19 -30 49 -60 79 -79 l49 -30 1021 -3 c929 -2 1025 -1 1065 14
57 22 110 69 132 119 18 38 19 108 19 1463 0 1559 4 1460 -58 1526 -15 16 -49
39 -77 52 l-50 24 -1016 0 -1015 0 -53 -26z"/>
<path fill="#FFC107" d="M1065 4014 c-72 -78 37 -183 112 -108 21 21 24 32 19 62 -11 70 -85
95 -131 46z"/>
<path fill="#6F42C1" d="M2451 934 c-90 -45 -137 -130 -129 -234 6 -77 46 -144 112 -185 44
-27 58 -30 126 -30 68 0 82 3 126 30 160 99 149 342 -19 421 -72 33 -146 32
-216 -2z"/>
</g>
</svg>
