<?xml version="1.0" standalone="no"?>
<!DOCTYPE svg PUBLIC "-//W3C//DTD SVG 20010904//EN"
 "http://www.w3.org/TR/2001/REC-SVG-20010904/DTD/svg10.dtd">
<svg version="1.0" xmlns="http://www.w3.org/2000/svg"
 width="512.000000pt" height="512.000000pt" viewBox="0 0 512.000000 512.000000"
 preserveAspectRatio="xMidYMid meet">

<g transform="translate(0.000000,512.000000) scale(0.100000,-0.100000)"
fill="#000000" stroke="none">
<path d="M2070 3932 l0 -857 1388 -801 1387 -802 6 332 c3 182 7 568 8 857 l1
525 -1389 802 c-764 441 -1392 802 -1395 802 -3 0 -6 -386 -6 -858z"/>
<path d="M5048 3226 c-17 -12 -18 -79 -20 -1028 -3 -973 -2 -1015 15 -1004 10
6 20 20 23 31 2 11 3 469 2 1017 -3 943 -4 996 -20 984z"/>
<path d="M1692 2611 c-46 -27 -85 -51 -88 -54 -5 -4 203 -129 237 -142 9 -3
54 17 108 48 l93 55 -125 71 c-68 39 -128 71 -133 71 -5 0 -46 -22 -92 -49z"/>
<path d="M1407 2445 l-89 -52 114 -66 c62 -36 120 -69 129 -72 10 -4 52 14
108 45 50 29 91 53 91 55 0 6 -248 145 -256 144 -5 0 -49 -25 -97 -54z"/>
<path d="M1966 2445 l-88 -53 98 -57 c55 -32 112 -65 127 -74 26 -15 30 -14
80 13 29 16 71 42 95 56 l43 27 -125 71 c-69 40 -129 72 -133 71 -5 0 -48 -24
-97 -54z"/>
<path d="M1211 2331 c-45 -26 -86 -52 -92 -58 -7 -7 30 -32 115 -81 l124 -72
91 52 c50 29 91 55 91 58 0 3 -56 38 -124 77 l-124 70 -81 -46z"/>
<path d="M1698 2289 c-49 -28 -88 -54 -88 -58 0 -4 55 -39 122 -78 l122 -70
85 50 c48 27 89 53 93 56 6 5 -232 152 -244 151 -2 0 -42 -23 -90 -51z"/>
<path d="M2260 2290 c-47 -27 -85 -54 -85 -60 0 -5 54 -41 119 -79 l119 -69
86 50 c47 28 89 54 94 57 5 5 -203 133 -242 148 -3 2 -44 -20 -91 -47z"/>
<path d="M976 2195 l-88 -53 73 -42 c41 -24 95 -56 122 -71 26 -16 52 -29 58
-29 10 0 129 66 172 95 15 11 1 21 -107 84 -68 39 -128 71 -132 70 -5 0 -49
-25 -98 -54z"/>
<path d="M1472 2158 c-46 -28 -80 -54 -75 -58 4 -4 60 -38 124 -75 l117 -66
91 51 c50 29 91 55 91 59 -1 10 -236 141 -251 140 -8 0 -52 -23 -97 -51z"/>
<path d="M1972 2123 l-94 -55 129 -73 128 -74 35 21 c19 11 59 34 87 50 29 17
55 33 57 37 3 5 -216 139 -243 148 -3 1 -48 -23 -99 -54z"/>
<path d="M2531 2123 l-93 -55 63 -37 c35 -21 93 -54 129 -73 l65 -37 70 41
c132 77 127 64 48 110 -37 22 -95 55 -128 73 l-60 33 -94 -55z"/>
<path d="M774 2076 c-49 -28 -87 -56 -86 -61 2 -6 120 -77 262 -158 l258 -148
91 51 c50 29 91 55 91 59 0 3 -22 18 -48 32 -26 15 -144 83 -263 152 l-217
125 -88 -52z"/>
<path d="M1270 2040 c-47 -27 -85 -54 -85 -59 0 -6 54 -42 119 -80 l119 -69
86 50 c47 28 89 54 93 57 6 5 -233 152 -244 151 -2 0 -41 -23 -88 -50z"/>
<path d="M1757 1998 c-48 -28 -84 -55 -80 -59 27 -27 238 -139 252 -134 41 15
170 98 166 105 -6 10 -231 140 -242 140 -4 0 -48 -24 -96 -52z"/>
<path d="M2247 1958 c-76 -44 -86 -53 -70 -62 10 -5 67 -38 127 -73 l109 -63
93 52 c52 29 94 55 94 58 -1 9 -237 140 -251 140 -8 0 -54 -24 -102 -52z"/>
<path d="M2807 1959 c-48 -28 -87 -53 -85 -54 2 -2 59 -35 127 -74 l124 -71
92 52 c51 29 91 56 89 59 -7 11 -233 139 -246 139 -7 0 -53 -23 -101 -51z"/>
<path d="M546 1945 l-88 -53 98 -57 c55 -32 112 -65 127 -74 26 -15 30 -14 80
13 29 16 71 42 95 56 l43 27 -125 71 c-69 40 -129 72 -133 71 -5 0 -48 -24
-97 -54z"/>
<path d="M1542 1873 l-93 -55 127 -73 c70 -41 130 -73 133 -71 10 5 134 78
159 93 24 15 23 15 -45 55 -37 22 -95 55 -128 73 l-60 33 -93 -55z"/>
<path d="M2038 1837 c-48 -28 -85 -54 -82 -58 7 -13 232 -139 246 -139 17 1
170 93 172 104 1 8 -230 147 -242 145 -4 0 -46 -24 -94 -52z"/>
<path d="M2540 1804 c-41 -25 -81 -48 -88 -52 -10 -7 134 -98 229 -145 24 -13
204 93 186 109 -21 19 -228 134 -240 133 -7 0 -46 -21 -87 -45z"/>
<path d="M3100 1804 c-41 -25 -81 -49 -88 -53 -9 -5 28 -31 112 -79 69 -40
128 -72 131 -72 16 0 183 106 177 111 -17 17 -234 139 -245 138 -7 0 -46 -20
-87 -45z"/>
<path d="M840 1790 c-47 -27 -85 -54 -85 -60 0 -5 54 -41 119 -79 l119 -69 86
50 c47 28 89 53 93 57 6 5 -207 135 -241 148 -3 2 -44 -20 -91 -47z"/>
<path d="M1327 1748 c-72 -41 -86 -53 -75 -63 36 -33 231 -136 246 -130 10 3
52 27 95 52 63 37 76 48 65 58 -18 16 -225 135 -235 135 -5 0 -48 -23 -96 -52z"/>
<path d="M1817 1708 c-48 -28 -86 -52 -85 -53 2 -1 59 -35 127 -74 l123 -72
93 53 c52 29 92 55 89 59 -7 12 -233 139 -246 139 -7 0 -52 -24 -101 -52z"/>
<path d="M2322 1677 c-50 -29 -92 -54 -92 -57 0 -3 56 -37 124 -76 l125 -71
90 51 c50 28 91 54 91 58 0 4 -192 120 -241 144 -3 2 -46 -21 -97 -49z"/>
<path d="M2818 1639 c-49 -28 -88 -54 -88 -57 0 -8 233 -142 245 -142 4 0 48
23 98 52 83 47 88 52 71 65 -22 16 -229 133 -235 133 -2 0 -43 -23 -91 -51z"/>
<path d="M3372 1636 l-93 -54 124 -71 c68 -39 128 -71 132 -71 9 0 185 100
185 105 0 4 -245 145 -251 145 -2 0 -46 -24 -97 -54z"/>
<path d="M1112 1623 c-51 -30 -92 -56 -90 -58 10 -8 1069 -616 1082 -621 19
-7 201 95 189 106 -7 7 -1022 594 -1068 617 -17 9 -36 1 -113 -44z"/>
<path d="M1608 1587 c-49 -28 -88 -54 -88 -57 1 -9 237 -140 251 -140 20 1
172 94 171 104 0 9 -228 147 -241 145 -3 0 -45 -23 -93 -52z"/>
<path d="M2110 1554 c-41 -25 -81 -48 -88 -52 -8 -5 31 -33 112 -80 69 -40
128 -72 131 -72 16 0 184 105 177 112 -16 16 -234 138 -245 137 -7 0 -46 -21
-87 -45z"/>
<path d="M2602 1514 c-52 -31 -92 -57 -90 -59 2 -2 58 -35 126 -74 l123 -72
89 53 c50 29 90 55 90 59 0 4 -39 29 -87 57 -49 27 -104 59 -123 70 l-35 21
-93 -55z"/>
<path d="M3098 1477 c-49 -28 -88 -54 -88 -57 0 -3 56 -37 123 -76 l124 -71
84 49 c46 27 88 53 92 57 6 6 -230 152 -244 151 -2 -1 -43 -24 -91 -53z"/>
<path d="M3658 1477 c-49 -28 -88 -54 -88 -57 0 -7 240 -146 249 -143 11 3
181 104 181 107 0 4 -248 146 -252 146 -2 -1 -42 -24 -90 -53z"/>
<path d="M1892 1427 c-50 -29 -92 -54 -92 -57 0 -3 56 -37 124 -76 l124 -72
91 52 c50 28 91 54 91 58 0 5 -121 77 -241 144 -3 1 -46 -21 -97 -49z"/>
<path d="M2388 1389 c-49 -28 -88 -54 -88 -57 0 -8 233 -142 245 -142 9 0 185
100 185 105 0 4 -219 132 -240 139 -8 4 -54 -17 -102 -45z"/>
<path d="M2773 1288 c-106 -61 -193 -114 -193 -118 0 -7 241 -146 250 -143 18
5 390 226 390 232 0 8 -230 141 -244 141 -6 0 -98 -51 -203 -112z"/>
<path d="M3378 1316 c-48 -28 -88 -54 -88 -57 0 -10 242 -144 254 -141 18 6
175 97 176 102 0 5 -246 151 -252 149 -2 -1 -42 -24 -90 -53z"/>
<path d="M3938 1316 c-48 -28 -87 -54 -85 -59 1 -4 56 -38 122 -76 l120 -70
55 31 c83 48 132 79 128 83 -5 5 -250 145 -251 144 -1 -1 -41 -24 -89 -53z"/>
<path d="M2171 1263 c-83 -49 -91 -56 -74 -67 10 -7 129 -77 265 -155 l247
-143 91 52 c49 28 90 55 90 58 0 6 -101 65 -480 283 l-46 27 -93 -55z"/>
<path d="M3160 1189 c-47 -28 -86 -52 -88 -54 -3 -3 214 -130 239 -140 10 -4
52 15 108 48 l92 54 -124 71 c-68 40 -128 72 -133 72 -5 -1 -47 -23 -94 -51z"/>
<path d="M3670 1159 c-46 -26 -87 -52 -92 -57 -6 -6 37 -36 115 -81 l125 -71
91 52 c50 29 91 55 91 58 0 3 -56 37 -124 76 l-123 71 -83 -48z"/>
<path d="M4216 1152 c-44 -26 -79 -51 -77 -57 1 -5 55 -41 120 -78 l118 -68
91 53 c51 29 92 55 92 58 -1 9 -236 140 -251 140 -8 -1 -50 -22 -93 -48z"/>
<path d="M4954 1081 c-23 -22 -1700 -996 -1751 -1018 -37 -15 -121 -14 -155 1
-14 6 -18 4 -18 -12 0 -33 28 -47 94 -47 l61 0 893 519 c720 419 894 524 898
543 8 32 2 36 -22 14z"/>
<path d="M3436 1025 l-88 -53 98 -57 c55 -32 109 -64 121 -71 12 -8 27 -14 34
-14 6 0 51 23 100 51 79 46 87 53 72 64 -41 28 -233 135 -240 134 -4 0 -48
-25 -97 -54z"/>
<path d="M3941 992 c-46 -26 -83 -52 -83 -57 0 -8 227 -145 240 -145 10 0 182
103 182 109 -1 7 -234 141 -246 141 -5 0 -47 -22 -93 -48z"/>
<path d="M2238 977 c-49 -28 -88 -54 -88 -57 0 -8 241 -145 250 -143 13 4 180
103 180 107 0 4 -248 146 -252 146 -2 -1 -42 -24 -90 -53z"/>
<path d="M3745 879 c-134 -79 -135 -61 10 -144 l128 -72 86 49 c47 27 89 53
93 56 5 6 -201 133 -241 149 -3 2 -37 -16 -76 -38z"/>
<path d="M2518 816 c-48 -28 -88 -54 -88 -57 0 -6 218 -136 238 -141 11 -3
192 93 192 103 0 5 -234 142 -249 145 -3 1 -45 -21 -93 -50z"/>
<path d="M3006 775 c-88 -52 -88 -53 -65 -68 66 -41 222 -127 231 -127 12 0
190 101 186 105 -12 11 -248 145 -255 144 -4 0 -48 -25 -97 -54z"/>
<path d="M2796 652 c-44 -26 -79 -51 -77 -57 1 -5 55 -41 120 -78 l118 -68 91
53 c51 29 92 55 92 58 -1 9 -236 140 -251 140 -8 -1 -50 -22 -93 -48z"/>
<path d="M3072 488 c-45 -27 -80 -53 -77 -58 3 -4 51 -34 107 -66 57 -31 110
-62 119 -67 12 -8 38 3 107 43 51 29 90 56 87 60 -8 13 -234 140 -247 139 -7
0 -50 -23 -96 -51z"/>
</g>
</svg>
